<svg width="14" height="14" viewBox="0 0 14 14" fill="none" xmlns="http://www.w3.org/2000/svg">
<g id="Checkbox&#229;&#164;&#154;&#233;&#128;&#137;&#230;&#161;&#134;">
<path id="BG (Stroke)" fill-rule="evenodd" clip-rule="evenodd" d="M10.5 1.05H3.5C2.1469 1.05 1.05 2.1469 1.05 3.5V10.5C1.05 11.8531 2.1469 12.95 3.5 12.95H10.5C11.8531 12.95 12.95 11.8531 12.95 10.5V3.5C12.95 2.1469 11.8531 1.05 10.5 1.05ZM3.5 0C1.567 0 0 1.567 0 3.5V10.5C0 12.433 1.567 14 3.5 14H10.5C12.433 14 14 12.433 14 10.5V3.5C14 1.567 12.433 0 10.5 0H3.5Z" fill="#D5D6D9"/>
</g>
</svg>
