<svg width="20" height="20" viewBox="0 0 20 20" fill="none" xmlns="http://www.w3.org/2000/svg">
<g id="1.&#233;&#128;&#154;&#231;&#148;&#168;&#231;&#187;&#132;&#228;&#187;&#182;/2.Icon&#229;&#155;&#190;&#230;&#160;&#135;/1.Outlined&#231;&#186;&#191;&#230;&#128;&#167;/&#231;&#148;&#168;&#230;&#136;&#183;">
<path id="&#229;&#189;&#162;&#231;&#138;&#182;&#231;&#187;&#147;&#229;&#144;&#136;" fill-rule="evenodd" clip-rule="evenodd" d="M5 1.25H15C17.0711 1.25 18.75 2.92893 18.75 5V15C18.75 17.0711 17.0711 18.75 15 18.75H5C2.92893 18.75 1.25 17.0711 1.25 15V5C1.25 2.92893 2.92893 1.25 5 1.25ZM15 3.75H5C4.30964 3.75 3.75 4.30964 3.75 5V15C3.75 15.6904 4.30964 16.25 5 16.25H15C15.6904 16.25 16.25 15.6904 16.25 15V5C16.25 4.30964 15.6904 3.75 15 3.75ZM12.5 5C13.1904 5 13.75 5.55964 13.75 6.25C13.75 6.89104 13.2674 7.41938 12.6458 7.49159L12.5 7.5H7.5C6.80964 7.5 6.25 6.94036 6.25 6.25C6.25 5.60896 6.73255 5.08062 7.35422 5.00841L7.5 5H12.5ZM10 13.75C10.6904 13.75 11.25 13.1904 11.25 12.5C11.25 11.8096 10.6904 11.25 10 11.25C9.30964 11.25 8.75 11.8096 8.75 12.5C8.75 13.1904 9.30964 13.75 10 13.75Z" fill="#BBBDBF"/>
</g>
</svg>
