<svg width="64" height="64" viewBox="0 0 64 64" fill="none" xmlns="http://www.w3.org/2000/svg">
<rect width="64" height="64" rx="32" fill="#6688FF"/>
<path d="M12.9375 19.9226C12.9375 17.5907 15.4814 16.1504 17.481 17.3501L36.481 28.7501C37.3846 29.2923 37.9375 30.2688 37.9375 31.3226V51.8255C37.9375 54.1573 35.3936 55.5977 33.394 54.3979L14.394 42.9979C13.4904 42.4558 12.9375 41.4792 12.9375 40.4255V19.9226Z" fill="white"/>
<path opacity="0.6" fill-rule="evenodd" clip-rule="evenodd" d="M51.0625 23.5726C51.0625 22.5188 50.5096 21.5423 49.606 21.0001L30.606 9.60012C28.6064 8.40038 26.0625 9.84072 26.0625 12.1726V17.8005C26.0625 18.8542 26.6154 19.8308 27.519 20.3729L38.981 27.2501C39.8846 27.7923 40.4375 28.7688 40.4375 29.8226V41.3005C40.4375 42.3542 40.9904 43.3308 41.894 43.8729L46.519 46.6479C48.5186 47.8477 51.0625 46.4073 51.0625 44.0755V23.5726Z" fill="white"/>
</svg>
