<svg xmlns="http://www.w3.org/2000/svg" fill="none" viewBox="0 0 64 64"><g clip-path="url(#a)"><rect fill="#68F" rx="32" height="64" width="64"/><circle fill="#68F" r="35.25" cy="44.77" cx="64.832" opacity=".08" style="mix-blend-mode:multiply"/><circle fill="#fff" r="35.25" cy="19.18" cx="-.867" opacity=".05"/><path fill="#fff" d="M49.375 21.438a2.687 2.687 0 0 1 2.688 2.687v22.188A2.687 2.687 0 0 1 49.374 49h-34.75a2.687 2.687 0 0 1-2.688-2.688V26.25a2.687 2.687 0 1 1 5.376 0v17.375h29.375v-19.5a2.687 2.687 0 0 1 2.687-2.688Z" clip-rule="evenodd" fill-rule="evenodd"/><rect fill="#FFB366" rx="3.125" height="6.25" width="6.25" y="14.625" x="11.5"/><path fill="#fff" d="M26.094 17.75a2.687 2.687 0 0 1 2.688-2.688h20.594a2.687 2.687 0 0 1 2.687 2.688v8.5c0 .992-.547 1.904-1.422 2.37l-17.214 9.188a2.688 2.688 0 0 1-2.513.01l-17.536-9.187a2.688 2.688 0 0 1 2.495-4.762l16.277 8.528 14.538-7.759v-4.2H28.782a2.687 2.687 0 0 1-2.688-2.688Z" clip-rule="evenodd" fill-rule="evenodd"/><path fill="url(#b)" d="m11.938 27.875 5.374 2.813v1.875l-5.375-4.688Z" opacity=".3" style="mix-blend-mode:multiply"/><path fill="url(#c)" d="m52.063 27.875-5.376 2.856v1.894l5.376-4.75Z" opacity=".3" style="mix-blend-mode:multiply"/><path fill="#fff" d="M47.125 15.063H20.25a5.375 5.375 0 0 0 5.375 5.374h21.5v-5.375Z"/></g><defs><linearGradient gradientUnits="userSpaceOnUse" y2="31.668" x2="16.533" y1="26.834" x1="13.152" id="b"><stop stop-color="#68F"/><stop stop-color="#1045FD" offset="1"/></linearGradient><linearGradient gradientUnits="userSpaceOnUse" y2="31.731" x2="47.467" y1="26.897" x1="50.849" id="c"><stop stop-color="#68F"/><stop stop-color="#1045FD" offset="1"/></linearGradient><clipPath id="a"><rect fill="#fff" rx="32" height="64" width="64"/></clipPath></defs></svg>