<svg width="16" height="16" viewBox="0 0 16 16" fill="none" xmlns="http://www.w3.org/2000/svg">
<g id="Line Icon">
<path id="Vector" d="M8.01538 1.78125C11.4584 1.78125 14.2495 4.57236 14.2495 8.01538C14.2495 11.4584 11.4584 14.2495 8.01538 14.2495C4.57236 14.2495 1.78125 11.4584 1.78125 8.01538C1.78125 4.57236 4.57236 1.78125 8.01538 1.78125ZM12.755 10.4854L10.6345 10.4854C10.2661 11.4233 9.68996 12.3565 8.90828 13.2845V13.2846C10.5839 13.0028 11.9949 11.941 12.755 10.4854H12.755ZM5.38618 10.4854L3.27576 10.4854C4.03408 11.9375 5.44018 12.9978 7.11065 13.2826V13.2825C6.32985 12.3551 5.75424 11.4226 5.38618 10.4854V10.4854ZM9.79004 10.4854H6.23061C6.61829 11.3613 7.21065 12.2422 8.01027 13.1287C8.802 12.2511 9.39049 11.3789 9.77837 10.5116L9.79006 10.4854L9.79004 10.4854ZM5.1172 6.32465H2.94486C2.76774 6.85601 2.67184 7.4245 2.67184 8.01538C2.67184 8.60627 2.76775 9.17476 2.94485 9.70612H5.12832C4.97514 9.13719 4.89831 8.56661 4.89831 7.9945C4.89831 7.44526 4.96914 6.89741 5.11032 6.35109L5.1172 6.32465ZM10.094 6.32465H5.92664C5.76038 6.88319 5.67758 7.43976 5.67758 7.9945C5.67758 8.56308 5.76455 9.13355 5.93922 9.70611H10.0814C10.2561 9.13355 10.3431 8.56308 10.3431 7.9945C10.3431 7.43976 10.2603 6.88319 10.094 6.32465ZM13.0859 6.32465H10.9034C11.0492 6.87974 11.1223 7.4364 11.1223 7.9945C11.1223 8.56661 11.0455 9.13719 10.8923 9.70612H13.0859C13.263 9.17476 13.3589 8.60627 13.3589 8.01538C13.3589 7.4245 13.263 6.85601 13.0859 6.32465ZM7.06978 2.75528L7.06421 2.75625C5.41416 3.05268 4.02704 4.10666 3.27577 5.54533L5.36992 5.54538C5.73085 4.61054 6.29827 3.68033 7.06979 2.75526L7.06978 2.75528ZM8.01038 2.8603L7.99103 2.88167C7.18848 3.77504 6.59645 4.66275 6.21227 5.5454H9.80838C9.42115 4.65571 8.82272 3.76088 8.01038 2.8603V2.8603ZM8.94913 2.75315L8.96814 2.77604C9.73088 3.69425 10.2925 4.61754 10.6507 5.54538L12.755 5.54533C12.0011 4.10161 10.6069 3.04527 8.94913 2.75313V2.75315Z" fill="#666666"/>
</g>
</svg>
