<svg width="169" height="26" viewBox="0 0 169 26" fill="none" xmlns="http://www.w3.org/2000/svg">
<path id="&#231;&#153;&#187;&#229;&#189;&#149;IFUN OA" d="M5.048 11.772V18.912H21.064V11.772H5.048ZM18.404 16.56H7.708V14.096H18.404V16.56ZM8.016 19.22L5.496 20.144C6.336 20.9 7.064 21.712 7.68 22.608H0.904V25.128H25.04V22.608H18.712C19.328 21.796 19.916 20.928 20.448 19.976L17.956 19.108C17.34 20.312 16.64 21.488 15.856 22.608H10.508C9.752 21.292 8.912 20.172 8.016 19.22ZM3.592 3.792L1.8 5.5C3.144 6.452 4.292 7.348 5.244 8.216C3.788 9.224 2.08 10.148 0.12 10.932L1.716 13.032C4.376 11.912 6.616 10.568 8.436 8.972V9.868H18.684V8.804C20.364 10.316 22.324 11.716 24.564 12.976L26.328 10.932C24.76 10.148 23.36 9.28 22.1 8.328C23.276 7.432 24.284 6.424 25.18 5.304L23.304 3.652C22.464 4.772 21.428 5.808 20.196 6.76C19.58 6.2 19.02 5.612 18.516 5.024C19.692 4.184 20.756 3.232 21.652 2.14L19.776 0.487999C18.992 1.44 18.096 2.336 17.06 3.148C16.388 2.196 15.828 1.16 15.38 0.0679982L13.196 1.3C14.176 3.54 15.548 5.584 17.34 7.46H9.948C11.124 6.116 12.048 4.576 12.72 2.896V0.907999H3.144V3.344H9.696C9.024 4.52 8.184 5.612 7.12 6.676C6.112 5.724 4.936 4.744 3.592 3.792ZM31.732 0.935999V3.316H45.564V5.528H32.684V7.824H45.564V9.98H28.932V12.416H39.516V15.58C36.436 18.296 32.768 20.62 28.54 22.552L29.604 25.016C33.412 23.028 36.716 20.816 39.516 18.352V22.44C39.516 23.196 39.264 23.588 38.788 23.588C37.864 23.588 36.884 23.504 35.848 23.392L36.436 25.912H39.684C41.308 25.912 42.148 24.96 42.148 23.056V18.212C44.612 20.9 47.832 23.196 51.864 25.1L53.208 22.748C50.408 21.544 47.972 20.172 45.844 18.604C47.748 17.568 49.428 16.112 50.912 14.264L48.868 12.556C47.524 14.544 45.9 16.056 44.024 17.12C43.352 16.532 42.736 15.916 42.148 15.272V12.416H53.096V9.98H48.28V0.935999H31.732ZM32.292 13.004L30.528 14.712C32.32 15.944 33.72 17.092 34.728 18.156L36.464 16.42C35.344 15.3 33.944 14.152 32.292 13.004ZM57.016 3.008V23H60.04V3.008H57.016ZM64.0147 3.008V23H67.0667V14.04H77.0067V11.436H67.0667V5.612H77.5947V3.008H64.0147ZM80.2842 3.008V15.384C80.2842 17.988 81.0122 19.976 82.4682 21.376C83.8682 22.72 85.8842 23.392 88.5442 23.392C91.1762 23.392 93.1922 22.692 94.6202 21.348C96.0482 19.976 96.7762 17.988 96.7762 15.384V3.008H93.7242V15.44C93.7242 17.232 93.3042 18.548 92.4922 19.416C91.6522 20.284 90.3362 20.732 88.5442 20.732C86.7242 20.732 85.4082 20.284 84.5682 19.416C83.7282 18.548 83.3362 17.232 83.3362 15.44V3.008H80.2842ZM100.683 3.008V23H103.735V7.964H103.847L114.179 23H117.147V3.008H114.095V17.876H113.983L103.763 3.008H100.683ZM139.253 2.616C136.201 2.616 133.793 3.596 132.057 5.612C130.377 7.516 129.565 9.98 129.565 13.032C129.565 16.056 130.377 18.52 132.057 20.424C133.793 22.384 136.201 23.392 139.253 23.392C142.277 23.392 144.685 22.412 146.449 20.452C148.129 18.548 148.969 16.084 148.969 13.032C148.969 9.952 148.129 7.46 146.449 5.584C144.685 3.596 142.277 2.616 139.253 2.616ZM139.253 5.304C141.381 5.304 143.033 5.976 144.181 7.376C145.301 8.748 145.889 10.624 145.889 13.032C145.889 15.412 145.301 17.288 144.181 18.632C143.033 20.004 141.381 20.704 139.253 20.704C137.125 20.704 135.473 19.976 134.297 18.576C133.177 17.204 132.617 15.356 132.617 13.032C132.617 10.68 133.177 8.832 134.297 7.46C135.473 6.004 137.125 5.304 139.253 5.304ZM157.802 3.008L150.102 23H153.35L155.226 17.848H163.822L165.698 23H168.974L161.274 3.008H157.802ZM156.15 15.328L159.482 6.284H159.594L162.898 15.328H156.15Z" fill="#333333"/>
</svg>
