<svg width="20" height="20" viewBox="0 0 20 20" fill="none" xmlns="http://www.w3.org/2000/svg">
<g id="1.&#233;&#128;&#154;&#231;&#148;&#168;&#231;&#187;&#132;&#228;&#187;&#182;/2.Icon&#229;&#155;&#190;&#230;&#160;&#135;/1.Outlined&#231;&#186;&#191;&#230;&#128;&#167;/&#231;&#148;&#168;&#230;&#136;&#183;">
<path id="&#229;&#189;&#162;&#231;&#138;&#182;&#231;&#187;&#147;&#229;&#144;&#136;&#229;&#164;&#135;&#228;&#187;&#189;" fill-rule="evenodd" clip-rule="evenodd" d="M17.3321 5.02556C16.6558 4.88733 15.9954 5.32357 15.8572 5.99994C15.2676 8.88465 12.7165 10.9905 9.73386 10.9905C6.75676 10.9905 4.20901 8.89235 3.61359 6.0147C3.47371 5.33866 2.81228 4.90402 2.13625 5.0439C1.46021 5.18377 1.02557 5.8452 1.16545 6.52124C1.34629 7.39524 1.6554 8.21774 2.07112 8.97002L0.183058 10.8581L0.110739 10.9446C-0.0580061 11.1882 -0.0338997 11.525 0.183058 11.742C0.427136 11.986 0.822864 11.986 1.06694 11.742L2.76915 10.0397C3.42308 10.8976 4.23056 11.6279 5.14764 12.1928L3.66692 13.6735L3.5946 13.7601C3.42585 14.0037 3.44996 14.3405 3.66692 14.5574C3.91099 14.8015 4.30672 14.8015 4.5508 14.5574L6.313 12.7952C7.18475 13.1658 8.12644 13.3986 9.10886 13.4684V15.3264L9.11893 15.4388C9.17185 15.7303 9.42703 15.9514 9.73386 15.9514C10.079 15.9514 10.3589 15.6716 10.3589 15.3264V13.4684C11.4934 13.3879 12.5736 13.0898 13.5544 12.6133L15.1831 14.242C15.4271 14.486 15.8229 14.486 16.0669 14.242C16.2839 14.025 16.308 13.6882 16.1393 13.4446L16.0669 13.3581L14.6727 11.9638C15.2942 11.5386 15.8592 11.0348 16.3526 10.4653L18.0684 11.4962C18.3642 11.674 18.7482 11.5783 18.926 11.2824C19.084 11.0194 19.0259 10.6868 18.8033 10.4912L18.7122 10.4248L17.1051 9.4591C17.6729 8.57366 18.0868 7.57586 18.3065 6.50055C18.4448 5.82417 18.0085 5.1638 17.3321 5.02556Z" fill="#BBBDBF"/>
</g>
</svg>
