<svg width="487" height="409" viewBox="0 0 487 409" fill="none" xmlns="http://www.w3.org/2000/svg">
<g id="pic" clip-path="url(#clip0_938_31384)">
<path id="Vector" opacity="0.46" d="M400.189 260.977C385.855 255.388 389.574 212.641 403.757 194.657C439.712 149.101 420.194 97.4506 381.288 92.6197C321.206 85.1649 268.699 115.865 198.845 146.921C174.383 157.799 152.961 152.108 104.426 157.854C9.3626 169.163 26.7508 267.681 100.413 297.165C157.255 319.919 128.669 322.747 138.99 337.582C158.165 337.582 177.3 337.486 196.448 337.951C196.47 337.767 196.561 337.599 196.702 337.479C196.842 337.358 197.023 337.295 197.208 337.302C205.605 337.302 213.994 337.766 222.383 337.91C222.327 337.733 222.336 337.541 222.409 337.37C222.482 337.199 222.613 337.059 222.78 336.976C222.891 336.921 223.013 336.892 223.137 336.892H357.249C388.841 320.219 427.234 333.837 445.868 322.221C476.029 303.328 444.766 278.374 400.189 260.977V260.977Z" fill="#C2D3F9"/>
<path id="Vector_2" opacity="0.68" d="M196.962 166.286H105.713C102.473 166.286 99.3653 167.57 97.0741 169.857C94.7828 172.143 93.4956 175.243 93.4956 178.476V311.152C93.4956 314.385 94.7828 317.486 97.0741 319.772C99.3653 322.058 102.473 323.342 105.713 323.342H196.962C200.202 323.342 203.31 322.058 205.601 319.772C207.892 317.486 209.179 314.385 209.179 311.152V178.476C209.179 175.243 207.892 172.143 205.601 169.857C203.31 167.57 200.202 166.286 196.962 166.286Z" fill="#A1BEF7"/>
<g id="Vector_3" style="mix-blend-mode:multiply" opacity="0.87">
<path d="M400.655 124.468H244.88C242.103 124.468 239.44 125.569 237.476 127.528C235.512 129.488 234.409 132.145 234.409 134.916V239.105C234.409 241.876 235.512 244.533 237.476 246.493C239.44 248.452 242.103 249.553 244.88 249.553H400.655C403.432 249.553 406.096 248.452 408.059 246.493C410.023 244.533 411.126 241.876 411.126 239.105V134.916C411.126 132.145 410.023 129.488 408.059 127.528C406.096 125.569 403.432 124.468 400.655 124.468V124.468Z" fill="#A1BEF7"/>
</g>
<path id="Vector_4" d="M206.659 160.006H117.753C115.995 160.006 114.254 160.352 112.629 161.023C111.005 161.694 109.529 162.678 108.285 163.919C107.042 165.159 106.056 166.632 105.383 168.253C104.71 169.873 104.364 171.61 104.364 173.365V265.166C104.364 266.92 104.71 268.657 105.383 270.278C106.056 271.899 107.042 273.372 108.285 274.612C109.529 275.853 111.005 276.837 112.629 277.508C114.254 278.179 115.995 278.524 117.753 278.524H206.659C214.053 278.524 220.048 272.544 220.048 265.166V173.365C220.048 165.987 214.053 160.006 206.659 160.006Z" fill="#EAF4FE" stroke="#231815" stroke-width="0.555" stroke-miterlimit="10"/>
<path id="Vector_5" d="M389.362 114.478H235.93C233.369 114.478 230.913 115.493 229.102 117.3C227.291 119.107 226.273 121.557 226.273 124.113V229.928C226.273 232.483 227.291 234.934 229.102 236.741C230.913 238.547 233.369 239.562 235.93 239.562H389.362C391.923 239.562 394.379 238.547 396.19 236.741C398.001 234.934 399.018 232.483 399.018 229.928V124.113C399.018 121.557 398.001 119.107 396.19 117.3C394.379 115.493 391.923 114.478 389.362 114.478Z" fill="#F5F8FE" stroke="#231815" stroke-width="0.31" stroke-miterlimit="10"/>
<g id="Vector_6" style="mix-blend-mode:multiply" opacity="0.38">
<path d="M377.445 146.02H333.115C331.608 146.02 330.162 146.617 329.096 147.681C328.03 148.744 327.431 150.187 327.431 151.691V209.197C327.431 210.701 328.03 212.144 329.096 213.207C330.162 214.271 331.608 214.869 333.115 214.869H377.445C378.953 214.869 380.399 214.271 381.465 213.207C382.531 212.144 383.129 210.701 383.129 209.197V151.691C383.129 150.187 382.531 148.744 381.465 147.681C380.399 146.617 378.953 146.02 377.445 146.02V146.02Z" fill="#8CACE2"/>
</g>
<path id="Vector_7" d="M305.085 171.547H249.126C247.56 171.547 246.059 172.168 244.952 173.273C243.845 174.377 243.223 175.875 243.223 177.437V204.25C243.223 205.812 243.845 207.31 244.952 208.415C246.059 209.519 247.56 210.14 249.126 210.14H305.085C306.65 210.14 308.152 209.519 309.259 208.415C310.366 207.31 310.988 205.812 310.988 204.25V177.437C310.988 175.875 310.366 174.377 309.259 173.273C308.152 172.168 306.65 171.547 305.085 171.547Z" fill="white" stroke="#231815" stroke-width="0.31" stroke-miterlimit="10"/>
<path id="Vector_8" d="M231.828 128.329H391.513" stroke="#231815" stroke-width="0.275" stroke-miterlimit="10"/>
<path id="Vector_9" d="M0.220215 336.502H487.22" stroke="black" stroke-width="0.555" stroke-miterlimit="10"/>
<path id="Vector_10" d="M72.1012 141.646L80.7096 150.236M72.0669 150.324L80.8329 141.681M80.874 141.599H72.0532V150.399H80.874V141.599ZM121.937 141.687H91.7425C91.1104 141.687 90.4845 141.811 89.9005 142.052C89.3165 142.294 88.7858 142.647 88.3387 143.093C87.8916 143.539 87.537 144.068 87.2949 144.651C87.0529 145.233 86.9282 145.858 86.928 146.488C86.9288 147.762 87.4364 148.983 88.3392 149.883C89.242 150.783 90.4662 151.288 91.7425 151.288H121.937C123.214 151.288 124.438 150.783 125.341 149.883C126.243 148.983 126.751 147.762 126.752 146.488C126.752 145.858 126.627 145.233 126.385 144.651C126.143 144.068 125.788 143.539 125.341 143.093C124.894 142.647 124.363 142.294 123.779 142.052C123.195 141.811 122.569 141.687 121.937 141.687V141.687Z" stroke="#231815" stroke-width="0.275" stroke-miterlimit="10"/>
<path id="Vector_11" d="M296.531 272.217L275.39 271.698L280.047 256.891C280.047 256.891 276.082 252.982 275.411 248.985C274.739 244.988 276.13 227.12 276.13 227.12C276.13 227.12 275.541 220.608 278.184 219.077C280.828 217.547 285.252 217.458 285.718 223.751C286.183 230.044 285.718 229.996 285.718 229.996L288.738 225.145L301.209 203.279C301.209 203.279 303.736 199.323 307.338 200.943C310.94 202.562 309.139 207.092 307.742 210.153C306.345 213.215 303.421 218.872 303.421 218.872C303.421 218.872 307.475 214.649 310.762 217.506C314.049 220.362 310.851 224.701 310.851 224.701C310.851 224.701 314.365 222.651 316.837 225.241C319.309 227.83 315.084 233.953 315.084 233.953L307.311 245.897C307.311 245.897 306.845 253.973 300.27 259.05L296.531 272.217V272.217Z" fill="#F9D3DC"/>
<path id="Vector_12" d="M275.219 271.876L280.745 255.88M296.38 272.675C297.243 271.172 300.9 257.991 300.9 257.991" stroke="#231815" stroke-width="0.415" stroke-miterlimit="10"/>
<path id="Vector_13" d="M292.669 260.567C292.669 260.567 305.818 261.005 307.79 245.432C307.79 245.432 316.118 232.771 317.036 230.755C317.953 228.739 319.008 225.056 315.782 223.867C314.927 223.506 313.981 223.417 313.073 223.614C312.166 223.811 311.342 224.284 310.714 224.967C310.714 224.967 312.365 222.877 312.639 221.674C312.913 220.471 313.536 218.257 310.406 216.577C307.276 214.896 303.64 218.08 302.448 221.305C302.448 221.305 305.708 214.335 306.681 212.579C310.434 205.746 310.44 202.624 308.05 200.786C304.366 197.923 301.353 202.835 298.463 208.015C297.641 209.511 286.081 230.16 286.081 230.16" stroke="#231815" stroke-width="0.415" stroke-miterlimit="10"/>
<path id="Vector_14" d="M282.293 257.527C282.293 257.527 275.178 253.461 275.493 243.649C275.808 233.837 276.896 225.603 276.801 223.095C276.705 220.588 278.307 217.369 281.773 217.629C285.238 217.889 287.635 222.474 285.293 234.78" stroke="#231815" stroke-width="0.415" stroke-miterlimit="10"/>
<path id="Vector_15" d="M283.464 248.842C283.464 248.842 289.34 245.022 287.573 238.34M302.435 221.305L296.586 231.93M310.701 224.968L304.886 234.595" stroke="#231815" stroke-width="0.415" stroke-miterlimit="10"/>
<path id="Vector_16" d="M401.901 268.555C416.078 268.555 427.569 257.089 427.569 242.945C427.569 228.801 416.078 217.335 401.901 217.335C387.725 217.335 376.233 228.801 376.233 242.945C376.233 257.089 387.725 268.555 401.901 268.555Z" fill="white" stroke="#231815" stroke-width="0.41" stroke-miterlimit="10"/>
<path id="Vector_17" d="M306.9 143.013H245.381C244.982 143.004 244.585 143.075 244.214 143.222C243.843 143.368 243.505 143.587 243.22 143.865C242.935 144.144 242.709 144.476 242.554 144.843C242.399 145.21 242.32 145.604 242.32 146.002C242.32 146.4 242.399 146.794 242.554 147.161C242.709 147.528 242.935 147.861 243.22 148.139C243.505 148.417 243.843 148.636 244.214 148.783C244.585 148.929 244.982 149 245.381 148.992H306.9C307.303 149.007 307.705 148.94 308.081 148.797C308.458 148.653 308.801 148.435 309.092 148.156C309.382 147.877 309.613 147.543 309.771 147.173C309.928 146.802 310.01 146.404 310.01 146.002C310.01 145.6 309.928 145.202 309.771 144.832C309.613 144.462 309.382 144.127 309.092 143.848C308.801 143.569 308.458 143.351 308.081 143.208C307.705 143.064 307.303 142.998 306.9 143.013Z" fill="#49E5DB" stroke="#231815" stroke-width="0.31" stroke-miterlimit="10"/>
<path id="Vector_18" d="M306.9 154.896H245.381C244.982 154.887 244.585 154.958 244.214 155.105C243.843 155.251 243.505 155.47 243.22 155.748C242.935 156.027 242.709 156.359 242.554 156.726C242.399 157.093 242.32 157.487 242.32 157.885C242.32 158.283 242.399 158.677 242.554 159.044C242.709 159.411 242.935 159.743 243.22 160.022C243.505 160.3 243.843 160.519 244.214 160.666C244.585 160.812 244.982 160.883 245.381 160.874H306.9C307.303 160.889 307.705 160.823 308.081 160.68C308.458 160.536 308.801 160.318 309.092 160.039C309.382 159.76 309.613 159.425 309.771 159.055C309.928 158.685 310.01 158.287 310.01 157.885C310.01 157.483 309.928 157.085 309.771 156.715C309.613 156.345 309.382 156.01 309.092 155.731C308.801 155.452 308.458 155.234 308.081 155.091C307.705 154.947 307.303 154.881 306.9 154.896V154.896Z" fill="#2F54EB" stroke="#231815" stroke-width="0.31" stroke-miterlimit="10"/>
<path id="Vector_19" d="M269.864 182.542H252.051C251.314 182.542 250.606 182.834 250.085 183.354C249.563 183.874 249.271 184.58 249.271 185.316V200.341C249.271 200.706 249.342 201.066 249.482 201.403C249.622 201.74 249.827 202.045 250.085 202.303C250.343 202.561 250.65 202.765 250.987 202.904C251.324 203.044 251.686 203.116 252.051 203.116H269.864C270.229 203.116 270.59 203.044 270.928 202.904C271.265 202.765 271.572 202.561 271.83 202.303C272.088 202.045 272.293 201.74 272.433 201.403C272.572 201.066 272.644 200.706 272.644 200.341V185.316C272.644 184.58 272.351 183.874 271.83 183.354C271.308 182.834 270.601 182.542 269.864 182.542V182.542Z" fill="#2F54EB" stroke="#231815" stroke-width="0.415" stroke-miterlimit="10"/>
<path id="Vector_20" d="M280.061 183.368H307.009M280.061 188.855H292.162M280.061 194.615H307.009M280.061 199.549H302.058M251.537 202.89L256.002 196.426L261.899 199.084L272.541 189.976" stroke="black" stroke-width="0.465" stroke-miterlimit="10"/>
<path id="Vector_21" d="M260.844 192.122C261.2 192.122 261.551 192.052 261.88 191.916C262.208 191.781 262.506 191.582 262.757 191.331C263.008 191.081 263.208 190.783 263.344 190.456C263.479 190.128 263.549 189.777 263.549 189.423C263.549 189.068 263.479 188.717 263.344 188.39C263.208 188.062 263.008 187.765 262.757 187.514C262.506 187.264 262.208 187.065 261.88 186.929C261.551 186.793 261.2 186.724 260.844 186.724C260.127 186.724 259.439 187.008 258.931 187.514C258.424 188.02 258.139 188.707 258.139 189.423C258.139 190.138 258.424 190.825 258.931 191.331C259.439 191.837 260.127 192.122 260.844 192.122V192.122Z" fill="white" stroke="black" stroke-width="0.465" stroke-miterlimit="10"/>
<path id="Vector_22" d="M372.762 140.983H328.432C326.924 140.983 325.478 141.581 324.412 142.645C323.346 143.708 322.748 145.151 322.748 146.655V204.161C322.748 205.665 323.346 207.108 324.412 208.171C325.478 209.235 326.924 209.832 328.432 209.832H372.762C374.269 209.832 375.715 209.235 376.781 208.171C377.847 207.108 378.446 205.665 378.446 204.161V146.655C378.446 145.151 377.847 143.708 376.781 142.645C375.715 141.581 374.269 140.983 372.762 140.983V140.983Z" fill="#49E5DB" stroke="#231815" stroke-width="0.31" stroke-miterlimit="10"/>
<path id="Vector_23" d="M327.383 156.508H374.405" stroke="#231815" stroke-width="0.275" stroke-miterlimit="10"/>
<path id="Vector_24" d="M333.39 152.6C334.44 152.6 335.447 152.184 336.189 151.443C336.931 150.702 337.348 149.698 337.348 148.65C337.348 147.603 336.931 146.598 336.189 145.857C335.447 145.117 334.44 144.701 333.39 144.701C332.34 144.701 331.333 145.117 330.591 145.857C329.849 146.598 329.432 147.603 329.432 148.65C329.432 149.698 329.849 150.702 330.591 151.443C331.333 152.184 332.34 152.6 333.39 152.6V152.6Z" stroke="#231815" stroke-width="0.31" stroke-miterlimit="10"/>
<path id="Vector_25" d="M345.443 152.6C346.493 152.6 347.499 152.184 348.242 151.443C348.984 150.702 349.401 149.698 349.401 148.65C349.401 147.603 348.984 146.598 348.242 145.857C347.499 145.117 346.493 144.701 345.443 144.701C344.393 144.701 343.386 145.117 342.644 145.857C341.901 146.598 341.484 147.603 341.484 148.65C341.484 149.698 341.901 150.702 342.644 151.443C343.386 152.184 344.393 152.6 345.443 152.6Z" fill="#49E5DB" stroke="#231815" stroke-width="0.31" stroke-miterlimit="10"/>
<path id="Vector_26" d="M357.503 152.6C358.553 152.6 359.559 152.184 360.302 151.443C361.044 150.702 361.461 149.698 361.461 148.65C361.461 147.603 361.044 146.598 360.302 145.857C359.559 145.117 358.553 144.701 357.503 144.701C356.453 144.701 355.446 145.117 354.704 145.857C353.961 146.598 353.544 147.603 353.544 148.65C353.544 149.698 353.961 150.702 354.704 151.443C355.446 152.184 356.453 152.6 357.503 152.6Z" fill="white" stroke="#231815" stroke-width="0.31" stroke-miterlimit="10"/>
<path id="Vector_27" d="M371.337 162.357H330.239C329.575 162.357 328.937 162.62 328.467 163.089C327.997 163.558 327.733 164.195 327.733 164.858C327.733 165.521 327.997 166.157 328.467 166.626C328.937 167.095 329.575 167.359 330.239 167.359H371.337C372.002 167.359 372.639 167.095 373.109 166.626C373.579 166.157 373.843 165.521 373.843 164.858C373.843 164.195 373.579 163.558 373.109 163.089C372.639 162.62 372.002 162.357 371.337 162.357V162.357Z" fill="#F5F8FE" stroke="#231815" stroke-width="0.31" stroke-miterlimit="10"/>
<path id="Vector_28" d="M345.785 170.83H330.239C329.575 170.83 328.937 171.093 328.467 171.562C327.997 172.031 327.733 172.667 327.733 173.33C327.733 173.994 327.997 174.63 328.467 175.099C328.937 175.568 329.575 175.831 330.239 175.831H345.785C346.45 175.831 347.088 175.568 347.558 175.099C348.028 174.63 348.292 173.994 348.292 173.33C348.292 172.667 348.028 172.031 347.558 171.562C347.088 171.093 346.45 170.83 345.785 170.83V170.83Z" fill="#F5F8FE" stroke="#231815" stroke-width="0.29" stroke-miterlimit="10"/>
<path id="Vector_29" d="M401.86 250.673V237.287" stroke="#231815" stroke-width="0.41" stroke-miterlimit="10"/>
<path id="Vector_30" d="M404.559 241.128C404.495 241.167 404.418 241.179 404.346 241.163C404.273 241.146 404.209 241.101 404.168 241.039L401.861 237.417L399.546 241.039C399.517 241.089 399.474 241.129 399.423 241.153C399.371 241.178 399.313 241.187 399.256 241.178C399.199 241.168 399.147 241.142 399.105 241.103C399.064 241.063 399.035 241.012 399.024 240.955C399.017 240.918 399.018 240.879 399.027 240.842C399.034 240.804 399.05 240.769 399.073 240.738L401.621 236.748C401.646 236.707 401.681 236.673 401.722 236.649C401.765 236.627 401.813 236.616 401.861 236.618C401.907 236.618 401.953 236.63 401.994 236.652C402.035 236.675 402.069 236.708 402.093 236.748L404.641 240.738C404.673 240.782 404.69 240.834 404.689 240.888C404.689 240.936 404.677 240.982 404.654 241.024C404.631 241.066 404.599 241.101 404.559 241.128V241.128Z" fill="#231815"/>
<path id="Vector_31" d="M399.107 128.268H226.301V126.73C226.301 116.706 230.841 114.629 237.895 114.629H390.088C392.413 114.628 394.646 115.535 396.309 117.155C397.973 118.776 398.936 120.981 398.991 123.3L399.107 128.268Z" fill="#2F54EB" stroke="#231815" stroke-width="0.31" stroke-miterlimit="10"/>
<path id="Vector_32" d="M238.812 125.917C239.862 125.917 240.869 125.5 241.611 124.76C242.354 124.019 242.771 123.014 242.771 121.967C242.771 120.92 242.354 119.915 241.611 119.174C240.869 118.434 239.862 118.018 238.812 118.018C237.763 118.018 236.756 118.434 236.013 119.174C235.271 119.915 234.854 120.92 234.854 121.967C234.854 123.014 235.271 124.019 236.013 124.76C236.756 125.5 237.763 125.917 238.812 125.917V125.917Z" fill="#FF6666"/>
<path id="Vector_33" d="M250.866 125.917C251.916 125.917 252.923 125.5 253.665 124.76C254.407 124.019 254.825 123.014 254.825 121.967C254.825 120.92 254.407 119.915 253.665 119.174C252.923 118.434 251.916 118.018 250.866 118.018C249.816 118.018 248.809 118.434 248.067 119.174C247.325 119.915 246.908 120.92 246.908 121.967C246.908 123.014 247.325 124.019 248.067 124.76C248.809 125.5 249.816 125.917 250.866 125.917V125.917Z" fill="#F5F8FE" stroke="#231815" stroke-width="0.31" stroke-miterlimit="10"/>
<path id="Vector_34" d="M262.926 125.917C263.976 125.917 264.983 125.5 265.725 124.76C266.468 124.019 266.885 123.014 266.885 121.967C266.885 120.92 266.468 119.915 265.725 119.174C264.983 118.434 263.976 118.018 262.926 118.018C261.876 118.018 260.869 118.434 260.127 119.174C259.385 119.915 258.968 120.92 258.968 121.967C258.968 123.014 259.385 124.019 260.127 124.76C260.869 125.5 261.876 125.917 262.926 125.917V125.917Z" fill="#F8DC29"/>
<path id="Vector_35" d="M193.744 169.962C193.744 169.962 203.092 188.534 190.73 198.148C181.088 205.664 167.822 195.975 167.822 195.975L164.008 190.509L149.373 185.596L155.92 165.869L181.677 159.036L193.744 169.962V169.962Z" fill="#F9D3DC" stroke="#231815" stroke-width="0.415" stroke-miterlimit="10"/>
<path id="Vector_36" d="M75.6968 195.893L98.4404 235.156C98.998 232.798 100.176 230.632 101.852 228.88C103.53 227.129 105.645 225.856 107.98 225.193C116.198 222.713 119.308 226.122 124.889 216.215C130.471 206.307 131.97 203.861 142.942 202.453C153.913 201.045 155.611 195.313 155.611 195.313C155.611 195.313 165.089 202.262 167.356 195.401C167.356 195.401 166.788 190.372 163.624 188.726C160.46 187.079 158.248 184.434 157.522 181.893C156.981 180 157.652 175.709 162.364 176.05C167.075 176.392 169.555 180.403 169.555 180.403C169.555 180.403 181.423 178.046 185.149 162.917C185.149 162.917 190.025 169.525 193.716 169.962L195.373 173.843C196.093 172.572 196.621 171.202 196.942 169.778C197.626 167.045 199.832 162.999 195.147 156.296C190.463 149.593 178.28 142.767 160.871 146.935C153.94 148.596 150.756 155.927 148.544 157.724C146.332 159.521 143.551 164.086 133.847 165.056C124.143 166.026 121.362 174.171 119.561 177.356C117.76 180.54 115.274 188.972 101.687 189.395C88.0993 189.819 87.1474 186.491 75.6968 195.893Z" fill="#010001"/>
<path id="Vector_37" d="M172.082 198.339V221.216C172.082 221.216 183.799 229.921 192.771 221.216L192.819 196.201C192.819 196.201 184.046 206.061 172.082 198.339V198.339Z" fill="#F9D3DC" stroke="#231815" stroke-width="0.415" stroke-miterlimit="10"/>
<path id="Vector_38" d="M166.972 215.401C166.972 215.401 138.044 222.617 132.415 224.51C126.786 226.402 117.636 228.903 111.342 250.55C105.049 272.197 93.105 315.463 93.105 315.463C93.105 315.463 89.9547 347.175 122.012 339.987L134.586 337.158H236.463L255.002 274.39L258.776 271.883L245.585 232.026C245.585 232.026 245.27 224.81 228.608 221.36C218.424 219.261 208.137 217.689 197.79 216.652C197.79 216.652 184.271 222.31 166.972 215.401Z" fill="#2F54EB" stroke="#231815" stroke-width="0.415" stroke-miterlimit="10"/>
<path id="Vector_39" d="M148.735 248.343L144.332 299.174" stroke="white" stroke-width="0.415" stroke-miterlimit="10"/>
<path id="Vector_40" d="M122.636 301.367L184.587 295.723L187.463 329.464L134.586 337.13" fill="#2F54EB"/>
<path id="Vector_41" d="M122.636 301.367L184.587 295.723L187.463 329.464L134.586 337.13" stroke="#231815" stroke-width="0.415" stroke-miterlimit="10"/>
<path id="Vector_42" d="M222.945 247.721L242.127 316.112" stroke="white" stroke-width="0.415" stroke-miterlimit="10"/>
<path id="Vector_43" d="M350.737 277.397L335.04 333.154C334.777 334.083 334.219 334.903 333.45 335.489C332.68 336.075 331.741 336.397 330.773 336.406L242.552 337.09C241.851 337.096 241.158 336.938 240.529 336.628C239.901 336.317 239.355 335.864 238.935 335.304C238.515 334.743 238.233 334.092 238.114 333.402C237.994 332.713 238.038 332.005 238.244 331.336L255.502 274.855C255.782 273.943 256.347 273.144 257.114 272.576C257.883 272.008 258.813 271.701 259.769 271.698L346.491 271.541C347.199 271.54 347.897 271.707 348.527 272.028C349.158 272.349 349.703 272.815 350.118 273.388C350.532 273.96 350.805 274.623 350.912 275.321C351.02 276.02 350.96 276.733 350.737 277.404V277.397V277.397Z" fill="#49E5DB" stroke="#231815" stroke-width="0.415" stroke-miterlimit="10"/>
<path id="Vector_44" d="M296.189 315.73C298.852 315.73 301.406 314.675 303.288 312.796C305.171 310.918 306.229 308.37 306.229 305.713C306.229 303.056 305.171 300.508 303.288 298.63C301.406 296.751 298.852 295.696 296.189 295.696C293.527 295.696 290.973 296.751 289.09 298.63C287.207 300.508 286.149 303.056 286.149 305.713C286.149 308.37 287.207 310.918 289.09 312.796C290.973 314.675 293.527 315.73 296.189 315.73V315.73Z" fill="white" stroke="#231815" stroke-width="0.555" stroke-miterlimit="10"/>
<path id="Vector_45" d="M177.615 200.389L192.846 207.988V196.167C192.846 196.167 187.552 202.596 177.615 200.389Z" fill="#231815"/>
<path id="Vector_46" d="M193.627 297.438L213.871 296.071L222.52 286.006C224.184 284.066 227.314 282.494 229.93 284.708C232.546 286.922 231.622 289.286 228.958 292.395L226.52 295.244C226.52 295.244 228.944 293.727 234.525 298.483C240.107 303.239 241.812 308.049 236.936 313.762L224.869 327.865C222.979 330.065 218.63 333.331 210.713 326.553L187.511 328.733L185.004 297.984L193.627 297.438V297.438Z" fill="#F9D3DC" stroke="#231815" stroke-width="0.415" stroke-miterlimit="10"/>
<path id="Vector_47" d="M228.376 306.792L236.553 313.878M222.78 313.024L230.964 320.465M217.124 319.263L225.807 327.032" stroke="#231815" stroke-width="0.535" stroke-miterlimit="10"/>
<path id="Vector_48" d="M184.977 297.984L196.27 327.783L187.484 328.733L184.977 297.984Z" fill="#231815"/>
<path id="Vector_49" opacity="0.46" d="M16.5195 286.512C16.5195 286.512 21.1285 315.149 37.2703 322.843C53.4121 330.537 71.7727 328.118 52.3369 302.03C32.901 275.941 17.4783 270.291 16.5195 286.512V286.512Z" fill="#C2D3F9"/>
<path id="Vector_50" d="M374.816 288.965H343.498C341.222 288.965 339.04 289.867 337.43 291.473C335.821 293.078 334.917 295.256 334.917 297.527V315.292C334.917 317.563 335.821 319.741 337.43 321.346C339.04 322.952 341.222 323.854 343.498 323.854H374.816C377.092 323.854 379.274 322.952 380.884 321.346C382.493 319.741 383.397 317.563 383.397 315.292V297.527C383.397 295.256 382.493 293.078 380.884 291.473C379.274 289.867 377.092 288.965 374.816 288.965V288.965Z" fill="white" stroke="#231815" stroke-width="0.41" stroke-miterlimit="10"/>
<g id="Union">
<path fill-rule="evenodd" clip-rule="evenodd" d="M350.783 314.655H358.328H361.118H368.662C369.738 314.655 373.833 313.903 373.833 309.284C373.833 304.665 369.724 303.913 367.478 304.774C367.478 304.774 366.724 298.433 359.944 298.433C359.87 298.433 359.796 298.434 359.723 298.435C359.65 298.434 359.576 298.433 359.501 298.433C352.721 298.433 351.968 304.774 351.968 304.774C349.722 303.913 345.613 304.665 345.613 309.284C345.613 313.903 349.708 314.655 350.783 314.655Z" fill="#2F54EB"/>
<path d="M367.478 304.774L367.272 304.799L367.303 305.063L367.552 304.968L367.478 304.774ZM359.723 298.435L359.719 298.643L359.727 298.643L359.723 298.435ZM351.968 304.774L351.894 304.968L352.143 305.063L352.174 304.799L351.968 304.774ZM358.328 314.447H350.783V314.862H358.328V314.447ZM358.328 314.862H361.118V314.447H358.328V314.862ZM361.118 314.862H368.662V314.447H361.118V314.862ZM368.662 314.862C369.231 314.862 370.566 314.667 371.765 313.875C372.978 313.073 374.04 311.668 374.04 309.284H373.625C373.625 311.519 372.64 312.799 371.536 313.528C370.419 314.266 369.169 314.447 368.662 314.447V314.862ZM374.04 309.284C374.04 306.901 372.974 305.484 371.591 304.789C370.226 304.102 368.575 304.131 367.403 304.58L367.552 304.968C368.626 304.556 370.154 304.53 371.404 305.159C372.638 305.78 373.625 307.048 373.625 309.284H374.04ZM367.478 304.774C367.684 304.75 367.684 304.749 367.684 304.749C367.684 304.749 367.684 304.749 367.684 304.749C367.684 304.749 367.683 304.748 367.683 304.748C367.683 304.747 367.683 304.745 367.683 304.743C367.682 304.74 367.682 304.735 367.681 304.728C367.679 304.715 367.676 304.696 367.673 304.671C367.665 304.622 367.653 304.551 367.636 304.462C367.601 304.283 367.543 304.029 367.453 303.724C367.272 303.116 366.959 302.304 366.427 301.49C365.358 299.854 363.414 298.226 359.944 298.226V298.641C363.255 298.641 365.077 300.182 366.08 301.717C366.584 302.489 366.883 303.262 367.055 303.842C367.141 304.132 367.196 304.374 367.228 304.541C367.245 304.625 367.256 304.691 367.262 304.735C367.266 304.757 367.268 304.773 367.27 304.784C367.27 304.789 367.271 304.793 367.271 304.796C367.271 304.797 367.271 304.798 367.272 304.798C367.272 304.799 367.272 304.799 367.272 304.799C367.272 304.799 367.272 304.799 367.272 304.799C367.272 304.799 367.272 304.799 367.478 304.774ZM359.944 298.226C359.869 298.226 359.793 298.226 359.719 298.228L359.727 298.643C359.799 298.641 359.871 298.641 359.944 298.641V298.226ZM359.501 298.641C359.575 298.641 359.647 298.641 359.719 298.643L359.727 298.228C359.652 298.226 359.577 298.226 359.501 298.226V298.641ZM351.968 304.774C352.174 304.799 352.174 304.799 352.174 304.799C352.174 304.799 352.174 304.799 352.174 304.799C352.174 304.799 352.174 304.799 352.174 304.798C352.174 304.798 352.174 304.797 352.175 304.796C352.175 304.793 352.175 304.789 352.176 304.784C352.178 304.773 352.18 304.757 352.183 304.735C352.19 304.691 352.201 304.625 352.217 304.541C352.25 304.374 352.305 304.132 352.391 303.842C352.563 303.262 352.862 302.489 353.366 301.717C354.369 300.182 356.191 298.641 359.501 298.641V298.226C356.032 298.226 354.087 299.854 353.019 301.49C352.487 302.304 352.174 303.116 351.993 303.724C351.902 304.029 351.845 304.283 351.81 304.462C351.793 304.551 351.781 304.622 351.773 304.671C351.769 304.696 351.767 304.715 351.765 304.728C351.764 304.735 351.763 304.74 351.763 304.743C351.763 304.745 351.762 304.747 351.762 304.748C351.762 304.748 351.762 304.749 351.762 304.749C351.762 304.749 351.762 304.749 351.762 304.749C351.762 304.749 351.762 304.75 351.968 304.774ZM345.82 309.284C345.82 307.048 346.808 305.78 348.041 305.159C349.292 304.53 350.82 304.556 351.894 304.968L352.042 304.58C350.87 304.131 349.22 304.102 347.855 304.789C346.472 305.484 345.405 306.901 345.405 309.284H345.82ZM350.783 314.447C350.277 314.447 349.026 314.266 347.909 313.528C346.805 312.799 345.82 311.519 345.82 309.284H345.405C345.405 311.668 346.468 313.073 347.681 313.875C348.88 314.667 350.215 314.862 350.783 314.862V314.447Z" fill="#231815"/>
</g>
<path id="Vector_51" d="M182.32 180.478C183.119 180.478 183.765 179.226 183.765 177.683C183.765 176.14 183.119 174.889 182.32 174.889C181.521 174.889 180.875 176.14 180.875 177.683C180.875 179.226 181.521 180.478 182.32 180.478ZM192.876 179.259C193.598 179.151 194.021 177.995 193.823 176.677C193.624 175.36 192.878 174.38 192.156 174.488C191.434 174.597 191.009 175.752 191.209 177.07C191.408 178.387 192.154 179.367 192.876 179.259Z" fill="black"/>
<path id="Vector_52" d="M188.36 177.164L195.236 187.789L187.935 189.053M187.607 194.65C187.607 194.65 180.683 194.007 179.231 190.55" stroke="black" stroke-width="0.5" stroke-miterlimit="10"/>
<path id="Vector_53" d="M360.237 311.51V303.995" stroke="#231815" stroke-width="0.41" stroke-miterlimit="10"/>
<path id="Vector_54" d="M362.935 307.835C362.871 307.874 362.794 307.887 362.721 307.87C362.649 307.853 362.585 307.809 362.544 307.746L360.237 304.125L357.922 307.746C357.893 307.796 357.85 307.836 357.799 307.861C357.747 307.886 357.689 307.894 357.632 307.885C357.575 307.876 357.523 307.85 357.481 307.81C357.44 307.77 357.411 307.719 357.4 307.663C357.393 307.625 357.394 307.587 357.403 307.549C357.41 307.512 357.426 307.476 357.449 307.446L359.997 303.455C360.022 303.414 360.057 303.38 360.098 303.357C360.141 303.335 360.189 303.324 360.237 303.325C360.283 303.325 360.329 303.337 360.37 303.36C360.411 303.383 360.445 303.415 360.469 303.455L363.017 307.446C363.049 307.489 363.066 307.542 363.065 307.596C363.065 307.643 363.052 307.69 363.03 307.732C363.007 307.773 362.974 307.809 362.935 307.835V307.835Z" fill="#231815"/>
<rect id="Rectangle 87" x="436" y="263" width="28" height="20" rx="2" fill="#FF6666" stroke="#231815" stroke-width="0.41" stroke-miterlimit="10"/>
<path id="Vector 14" d="M436.5 264L449.47 271.411C450.105 271.774 450.887 271.762 451.51 271.378L463.5 264" stroke="#231815" stroke-width="0.41" stroke-miterlimit="10"/>
</g>
<defs>
<clipPath id="clip0_938_31384">
<rect width="487" height="409" fill="white"/>
</clipPath>
</defs>
</svg>
