<svg width="20" height="20" viewBox="0 0 20 20" fill="none" xmlns="http://www.w3.org/2000/svg">
<g id="1.&#233;&#128;&#154;&#231;&#148;&#168;&#231;&#187;&#132;&#228;&#187;&#182;/2.Icon&#229;&#155;&#190;&#230;&#160;&#135;/1.Outlined&#231;&#186;&#191;&#230;&#128;&#167;/&#231;&#148;&#168;&#230;&#136;&#183;">
<path id="&#229;&#189;&#162;&#231;&#138;&#182;&#231;&#187;&#147;&#229;&#144;&#136;&#229;&#164;&#135;&#228;&#187;&#189;" fill-rule="evenodd" clip-rule="evenodd" d="M14.9936 4.77966C14.8796 2.81115 13.2471 1.25 11.25 1.25H8.75L8.52966 1.25637C6.56115 1.37042 5 3.0029 5 5V6.25C2.92893 6.25 1.25 7.92893 1.25 10V15C1.25 17.0711 2.92893 18.75 5 18.75H15C17.0711 18.75 18.75 17.0711 18.75 15V10C18.75 7.92893 17.0711 6.25 15 6.25V5L14.9936 4.77966ZM12.5 6.25V5C12.5 4.35896 12.0174 3.83062 11.3958 3.75841L11.25 3.75H8.75C8.10896 3.75 7.58062 4.23255 7.50841 4.85422L7.5 5V6.25H12.5ZM5 8.75C4.30964 8.75 3.75 9.30964 3.75 10V15C3.75 15.6904 4.30964 16.25 5 16.25H15C15.6904 16.25 16.25 15.6904 16.25 15V10C16.25 9.30964 15.6904 8.75 15 8.75H12.5H7.5H5Z" fill="#BBBDBF"/>
</g>
</svg>
