<?xml version="1.0" encoding="UTF-8"?>
<svg width="160px" height="160px" viewBox="0 0 160 160" version="1.1" xmlns="http://www.w3.org/2000/svg" xmlns:xlink="http://www.w3.org/1999/xlink">
    <title>White Rabbit black circle 3840 x 2160</title>
    <defs>
        <ellipse id="path-1" cx="79.9641121" cy="79.9454206" rx="79.9641121" ry="79.9454206"></ellipse>
        <ellipse id="path-3" cx="79.9641121" cy="79.9454206" rx="79.9641121" ry="79.9454206"></ellipse>
        <ellipse id="path-5" cx="79.9641121" cy="79.9454206" rx="79.9641121" ry="79.9454206"></ellipse>
        <ellipse id="path-7" cx="79.9641121" cy="79.9454206" rx="79.9641121" ry="79.9454206"></ellipse>
        <ellipse id="path-9" cx="79.9641121" cy="79.9454206" rx="79.9641121" ry="79.9454206"></ellipse>
        <ellipse id="path-11" cx="79.9641121" cy="79.9454206" rx="79.9641121" ry="79.9454206"></ellipse>
        <ellipse id="path-13" cx="79.9641121" cy="79.9454206" rx="79.9641121" ry="79.9454206"></ellipse>
    </defs>
    <g id="控件" stroke="none" stroke-width="1" fill="none" fill-rule="evenodd">
        <g id="White-Rabbit-black-circle-3840-x-2160">
            <ellipse id="椭圆形" fill="#000000" fill-rule="nonzero" cx="80.484486" cy="79.4968224" rx="79.515514" ry="79.4968224"></ellipse>
            <g id="编组" transform="translate(0.000000, 0.109159)">
                <g id="Clipped">
                    <mask id="mask-2" fill="white">
                        <use xlink:href="#path-1"></use>
                    </mask>
                    <g id="SVGID_1_"></g>
                </g>
                <g id="Clipped">
                    <mask id="mask-4" fill="white">
                        <use xlink:href="#path-3"></use>
                    </mask>
                    <g id="SVGID_1_"></g>
                    <path d="M37.3996262,107.342056 C29.2179439,100.56 38.6908411,76.171215 45.0938318,59.6852336 C47.0743925,54.5869159 49.6949533,49.5760748 54.9375701,39.5543925 C55.3585047,38.7499065 58.2138318,33.3682243 63.3091589,27.3809346 C68.3469159,21.4616822 70.1226168,21.3562617 70.9928972,21.5970093 C73.124486,22.1861682 73.8915888,25.9760748 74.2564486,28.6990654 C75.8302804,40.4575701 72.4523364,51.4571963 69.211215,63.68 C69.211215,63.68 65.4018692,78.0433645 58.0837383,97.9065421 C57.1050467,100.563738 55.3435514,105.147664 50.9128972,107.530467 C47.0796262,109.59028 40.8620561,110.213084 37.3996262,107.342056 Z" id="路径" fill="#FFFFFF" fill-rule="nonzero" mask="url(#mask-4)"></path>
                </g>
                <g id="Clipped">
                    <mask id="mask-6" fill="white">
                        <use xlink:href="#path-5"></use>
                    </mask>
                    <g id="SVGID_1_"></g>
                    <path d="M88.6093458,125.028785 C80.4276636,118.246729 89.9005607,93.8579439 96.3035514,77.3719626 C98.2841121,72.2736449 100.904673,67.2628037 106.14729,57.2411215 C106.568224,56.4366355 109.423551,51.0549533 114.518879,45.0676636 C119.556636,39.1484112 121.332336,39.0429907 122.202617,39.2837383 C124.334206,39.8728972 125.101308,43.6628037 125.466168,46.3857944 C127.04,58.1442991 123.662056,69.1439252 120.420935,81.366729 C120.420935,81.366729 116.611589,95.7300935 109.293458,115.593271 C108.314766,118.250467 106.553271,122.834393 102.122617,125.217196 C98.2900935,127.277009 92.0725234,127.899813 88.6093458,125.028785 Z" id="路径" fill="#FFFFFF" fill-rule="nonzero" mask="url(#mask-6)"></path>
                </g>
                <g id="Clipped">
                    <mask id="mask-8" fill="white">
                        <use xlink:href="#path-7"></use>
                    </mask>
                    <g id="SVGID_1_"></g>
                    <path d="M22.4770093,133.072897 C21.9857944,123.971589 24.4545794,116.706542 25.922243,112.515888 C28.4613084,105.265794 31.8983178,99.7981308 34.5502804,96.1943925 L59.4414953,92.6257944 C62.4792523,92.2302804 68.4201869,91.8669159 75.2919626,94.2601869 C81.9880374,96.5921495 86.3469159,100.420935 88.4919626,102.586168 C94.2646729,108.523364 100.037383,114.459813 105.810093,120.397009 C105.643364,125.307664 104.838879,132.718505 101.650841,141.06243 C99.9476636,145.52 97.5962617,151.674766 92.1540187,157.63215 C81.1274766,169.700935 66.2915888,171.241121 64.7484112,171.377944 C61.1140187,171.699439 47.3607477,172.699065 35.837757,163.000374 C23.5342056,152.642991 22.7229907,137.620187 22.4770093,133.072897 Z" id="路径" fill="#FFFFFF" fill-rule="nonzero" mask="url(#mask-8)"></path>
                </g>
                <g id="Clipped">
                    <mask id="mask-10" fill="white">
                        <use xlink:href="#path-9"></use>
                    </mask>
                    <g id="SVGID_1_"></g>
                    <path d="M51.9790654,140.04486 C51.6657944,140.702056 52.5614953,142.045607 54.3005607,144.709533 C55.1715888,146.044112 55.6164486,146.53757 56.3162617,146.798505 C57.0138318,147.057944 57.6590654,146.971963 59.2620561,146.531589 C62.2975701,145.697944 63.8153271,145.280748 64.0456075,144.648224 C64.5749533,143.198505 62.1779439,140.811963 59.8205607,139.712897 C56.9682243,138.383551 52.7902804,138.343178 51.9790654,140.04486 Z" id="路径" fill="#000000" fill-rule="nonzero" mask="url(#mask-10)"></path>
                </g>
                <g id="Clipped">
                    <mask id="mask-12" fill="white">
                        <use xlink:href="#path-11"></use>
                    </mask>
                    <g id="SVGID_1_"></g>
                    <ellipse id="椭圆形" fill="#000000" fill-rule="nonzero" mask="url(#mask-12)" cx="52.7484112" cy="126.298318" rx="1.94691589" ry="1.91775701"></ellipse>
                </g>
                <g id="Clipped">
                    <mask id="mask-14" fill="white">
                        <use xlink:href="#path-13"></use>
                    </mask>
                    <g id="SVGID_1_"></g>
                    <ellipse id="椭圆形" fill="#000000" fill-rule="nonzero" mask="url(#mask-14)" cx="72.5248598" cy="133.206729" rx="1.92149533" ry="1.89308411"></ellipse>
                </g>
            </g>
        </g>
    </g>
</svg>