<svg width="20" height="20" viewBox="0 0 20 20" fill="none" xmlns="http://www.w3.org/2000/svg">
<path fill-rule="evenodd" clip-rule="evenodd" d="M18.8637 2.19708C19.1566 1.90418 19.1566 1.42931 18.8637 1.13642C18.5708 0.843525 18.096 0.843525 17.8031 1.13642L14.9698 3.96971C13.4733 2.93299 11.7722 2.3584 9.99987 2.3584C6.74023 2.3584 3.78495 4.28033 1.7757 7.4387C1.3055 8.1756 1.0957 9.11268 1.0957 10.0042C1.0957 10.8958 1.30549 11.8328 1.77567 12.5697C2.38512 13.5263 3.08642 14.374 3.85272 15.0865L1.13617 17.8031C0.843281 18.096 0.843281 18.5708 1.13617 18.8637C1.42907 19.1566 1.90394 19.1566 2.19683 18.8637L8.41113 12.6494L8.42193 12.6388L12.6345 8.42628C12.6359 8.42489 12.6373 8.42349 12.6387 8.42208L18.8637 2.19708ZM12.0551 6.88437L13.8886 5.05084C12.6788 4.26938 11.3526 3.8584 9.99987 3.8584C7.37635 3.8584 4.84843 5.40293 3.04102 8.24427L3.04039 8.24526C2.76081 8.68327 2.5957 9.32098 2.5957 10.0042C2.5957 10.6875 2.76081 11.3252 3.04039 11.7632L3.04074 11.7637C3.59762 12.6378 4.23253 13.3982 4.91419 14.0251L6.88403 12.0552C6.49397 11.4664 6.2666 10.7612 6.2666 10.0002C6.2666 7.93597 7.93572 6.26685 9.99994 6.26685C10.761 6.26685 11.4662 6.49425 12.0551 6.88437ZM7.7666 10.0002C7.7666 8.76439 8.76415 7.76685 9.99994 7.76685C10.3436 7.76685 10.6674 7.84369 10.9573 7.98214L7.98189 10.9576C7.84345 10.6677 7.7666 10.3438 7.7666 10.0002ZM16.2379 6.02401C16.5607 5.7644 17.0328 5.8156 17.2924 6.13836C17.6146 6.53896 17.9317 6.97014 18.2246 7.43156C18.6942 8.16829 18.9038 9.10485 18.9038 9.99592C18.9038 10.8875 18.694 11.8246 18.2238 12.5615C16.2146 15.7198 13.2593 17.6418 9.99964 17.6418C8.8681 17.6418 7.76113 17.4025 6.72527 16.9663C6.34351 16.8056 6.16434 16.3658 6.32508 15.984C6.48582 15.6023 6.9256 15.4231 7.30735 15.5839C8.17148 15.9477 9.08118 16.1418 9.99964 16.1418C12.6232 16.1418 15.1511 14.5972 16.9585 11.7559L16.9591 11.7549C17.2387 11.3169 17.4038 10.6792 17.4038 9.99592C17.4038 9.31267 17.2387 8.67497 16.9591 8.23695L16.9581 8.23529C16.7009 7.83004 16.418 7.44456 16.1236 7.07849C15.864 6.75573 15.9151 6.28363 16.2379 6.02401ZM13.6624 10.7194C13.7375 10.312 13.4682 9.92093 13.0608 9.84582C12.6535 9.77071 12.2624 10.04 12.1873 10.4474C12.027 11.3165 11.308 12.0356 10.4388 12.1958C10.0315 12.2709 9.76216 12.662 9.83727 13.0694C9.91239 13.4767 10.3035 13.7461 10.7108 13.6709C12.1917 13.3979 13.3893 12.2002 13.6624 10.7194Z" fill="#969799"/>
</svg>
