<svg xmlns="http://www.w3.org/2000/svg" fill="none" viewBox="0 0 20 20"><path fill="#969799" d="M3.06 2.794a.75.75 0 0 1 1.061.02L16.96 16.147a.75.75 0 1 1-1.08 1.04l-2.28-2.367c-1.072.545-2.291.93-3.6.93-3.162 0-5.843-2.253-7.288-3.745l-.042-.043c-.346-.356-.647-.667-.82-1.22a2.572 2.572 0 0 1-.099-.741c0-.232.024-.506.099-.742.173-.553.475-.864.821-1.22l.042-.044.539.522-.54-.522c.611-.63 1.417-1.37 2.368-2.024L3.041 3.854a.75.75 0 0 1 .02-1.06Zm3.076 4.275c-.932.61-1.735 1.339-2.347 1.97-.392.404-.45.48-.51.67-.01.035-.029.142-.029.292s.018.256.03.292c.059.188.117.265.508.668 1.41 1.457 3.71 3.29 6.212 3.29.861 0 1.704-.217 2.502-.57l-1.458-1.514c-.313.16-.668.25-1.044.25-1.327 0-2.355-1.109-2.355-2.416 0-.394.092-.768.257-1.098L6.136 7.069Zm3.685 3.828a.887.887 0 0 1-.652-.678l.652.678ZM9.1 4.31c.295-.04.596-.06.9-.06 3.164 0 5.845 2.253 7.29 3.745l.042.044c.346.356.647.666.82 1.22.075.236.1.51.099.741 0 .231-.025.505-.099.742-.174.553-.475.864-.822 1.22l-.041.043c-.23.237-.485.488-.765.743a.75.75 0 1 1-1.011-1.107c.255-.233.488-.463.699-.68.391-.404.45-.48.51-.67.01-.035.029-.142.029-.292s-.018-.256-.03-.291c-.059-.189-.117-.265-.508-.669-1.41-1.456-3.71-3.29-6.212-3.29-.236 0-.471.017-.704.048A.75.75 0 1 1 9.1 4.31Z" clip-rule="evenodd" fill-rule="evenodd" data-follow-fill="#969799"/></svg>