<svg xmlns="http://www.w3.org/2000/svg" xmlns:xlink="http://www.w3.org/1999/xlink" width="900" height="600" viewBox="0 0 900 600" fill="none"><defs><rect id="path_0" x="0" y="0" width="900" height="600" /><filter id="filter_6" x="61" y="75" width="778" height="433" filterUnits="userSpaceOnUse" color-interpolation-filters="sRGB"><feFlood flood-opacity="0" result="BackgroundImageFix"/>
          <feColorMatrix in="SourceAlpha" type="matrix" values="0 0 0 0 0 0 0 0 0 0 0 0 0 0 0 0 0 0 127 0"/>
          <feOffset dx="0" dy="12"/>
          <feGaussianBlur stdDeviation="24"/>
          <feColorMatrix type="matrix" values="0 0 0 0 0 0 0 0 0 0 0 0 0 0 0 0 0 0 0.03 0"/>
          <feBlend mode="normal" in2="BackgroundImageFix" result="effect1_Shadow"/>
          <feBlend mode="normal" in="SourceGraphic" in2="effect1_Shadow" result="shape"/><feFlood flood-opacity="0" result="BackgroundImageFix"/>
          <feColorMatrix in="SourceAlpha" type="matrix" values="0 0 0 0 0 0 0 0 0 0 0 0 0 0 0 0 0 0 127 0"/>
          <feOffset dx="0" dy="9"/>
          <feGaussianBlur stdDeviation="14"/>
          <feColorMatrix type="matrix" values="0 0 0 0 0 0 0 0 0 0 0 0 0 0 0 0 0 0 0.05 0"/>
          <feBlend mode="normal" in2="BackgroundImageFix" result="effect1_Shadow"/>
          <feBlend mode="normal" in="SourceGraphic" in2="effect1_Shadow" result="shape"/><feFlood flood-opacity="0" result="BackgroundImageFix"/>
          <feColorMatrix in="SourceAlpha" type="matrix" values="0 0 0 0 0 0 0 0 0 0 0 0 0 0 0 0 0 0 127 0"/>
          <feOffset dx="0" dy="6"/>
          <feGaussianBlur stdDeviation="8"/>
          <feColorMatrix type="matrix" values="0 0 0 0 0 0 0 0 0 0 0 0 0 0 0 0 0 0 0.08 0"/>
          <feBlend mode="normal" in2="BackgroundImageFix" result="effect1_Shadow"/>
          <feBlend mode="normal" in="SourceGraphic" in2="effect1_Shadow" result="shape"/></filter></defs><g opacity="1" transform="translate(0 0)  rotate(0 450 300)"><rect fill="#F5F6F7" opacity="1" transform="translate(0 0)  rotate(0 450 300)" x="0" y="0" width="900" height="600" rx="6" /><mask id="bg-mask-0" fill="white"><use xlink:href="#path_0"></use></mask><g mask="url(#bg-mask-0)" ><path id="矩形 1" fill-rule="evenodd" style="fill:#2877ff" transform="translate(555 77)  rotate(0 172.5 224)" opacity="0.2" d="M6,448L345,448L345,0L6,0C2.69,0 0,2.69 0,6L0,442C0,445.31 2.69,448 6,448Z " /><g opacity="1" transform="translate(262.5 24)  rotate(0 187.5 14)"><text><tspan x="0" y="21" font-size="20" line-height="28" fill="#000000" opacity="1" font-family="PingFang SC Medium" letter-spacing="0" >IFUN敏捷系统将同步OA企业信息员工成员</tspan></text></g><g id="矩形 2" filter="url(#filter_6)"><path id="矩形 2" fill-rule="evenodd" style="fill:#FFFFFF" transform="translate(109 123)  rotate(0 341 168.5)" opacity="1" d="M6,337L676,337C679.31,337 682,334.31 682,331L682,6C682,2.69 679.31,0 676,0L6,0C2.69,0 0,2.69 0,6L0,331C0,334.31 2.69,337 6,337Z " /><rect  id="矩形 2" style="stroke:#D5D6D9; stroke-width:1; stroke-opacity:1; stroke-dasharray:0 0" transform="translate(109 123)  rotate(0 341 168.5)" x="0.5" y="0.5" rx="5.5"  width="681" height="336" /></g><g opacity="1" transform="translate(129.5 147)  rotate(0 321.75 11)"><g opacity="1" transform="translate(239.5 0)  rotate(0 12 11)"><text><tspan x="0" y="15.5" font-size="12" line-height="22" fill="#969799" opacity="1" font-family="PingFang SC Medium" letter-spacing="0" >邮箱</tspan></text></g><g opacity="1" transform="translate(328.5 0)  rotate(0 12 11)"><text><tspan x="0" y="15.5" font-size="12" line-height="22" fill="#969799" opacity="1" font-family="PingFang SC Medium" letter-spacing="0" >手机</tspan></text></g><g opacity="1" transform="translate(0 0)  rotate(0 12 11)"><text><tspan x="0" y="15.5" font-size="12" line-height="22" fill="#969799" opacity="1" font-family="PingFang SC Medium" letter-spacing="0" >昵称</tspan></text></g><g opacity="1" transform="translate(72 0)  rotate(0 24 11)"><text><tspan x="0" y="15.5" font-size="12" line-height="22" fill="#969799" opacity="1" font-family="PingFang SC Medium" letter-spacing="0" >真实姓名</tspan></text></g><g opacity="1" transform="translate(165 0)  rotate(0 12 11)"><text><tspan x="0" y="15.5" font-size="12" line-height="22" fill="#969799" opacity="1" font-family="PingFang SC Medium" letter-spacing="0" >性别</tspan></text></g><g opacity="1" transform="translate(400.5 0)  rotate(0 12 11)"><text><tspan x="0" y="15.5" font-size="12" line-height="22" fill="#969799" opacity="1" font-family="PingFang SC Medium" letter-spacing="0" >部门</tspan></text></g><g opacity="1" transform="translate(476.5 0)  rotate(0 12 11)"><text><tspan x="0" y="15.5" font-size="12" line-height="22" fill="#969799" opacity="1" font-family="PingFang SC Medium" letter-spacing="0" >职位</tspan></text></g><g opacity="1" transform="translate(542.5 0)  rotate(0 18 11)"><text><tspan x="0" y="15.5" font-size="12" line-height="22" fill="#969799" opacity="1" font-family="PingFang SC Medium" letter-spacing="0" >权限组</tspan></text></g><g opacity="1" transform="translate(607.5 0)  rotate(0 18 11)"><text><tspan x="0" y="15.5" font-size="12" line-height="22" fill="#969799" opacity="1" font-family="PingFang SC Medium" letter-spacing="0" >项目数</tspan></text></g></g><g opacity="1" transform="translate(130 194)  rotate(0 317.25 12)"><path id="矩形 3" fill-rule="evenodd" style="fill:#D5D6D9" transform="translate(75 8)  rotate(0 21 4)" opacity="1" d="M2,8L40,8C41.1,8 42,7.1 42,6L42,2C42,0.9 41.1,0 40,0L2,0C0.9,0 0,0.9 0,2L0,6C0,7.1 0.9,8 2,8Z " /><path id="矩形 3" fill-rule="evenodd" style="fill:#D5D6D9" transform="translate(319.5 8)  rotate(0 21 4)" opacity="1" d="M2,8L40,8C41.1,8 42,7.1 42,6L42,2C42,0.9 41.1,0 40,0L2,0C0.9,0 0,0.9 0,2L0,6C0,7.1 0.9,8 2,8Z " /><path id="矩形 3" fill-rule="evenodd" style="fill:#D5D6D9" transform="translate(168.5 8)  rotate(0 8.5 4)" opacity="1" d="M2,8L15,8C16.1,8 17,7.1 17,6L17,2C17,0.9 16.1,0 15,0L2,0C0.9,0 0,0.9 0,2L0,6C0,7.1 0.9,8 2,8Z " /><path id="矩形 3" fill-rule="evenodd" style="fill:#D5D6D9" transform="translate(400.5 8)  rotate(0 12 4)" opacity="1" d="M2,8L22,8C23.1,8 24,7.1 24,6L24,2C24,0.9 23.1,0 22,0L2,0C0.9,0 0,0.9 0,2L0,6C0,7.1 0.9,8 2,8Z " /><path id="矩形 3" fill-rule="evenodd" style="fill:#D5D6D9" transform="translate(225.5 8)  rotate(0 26 4)" opacity="1" d="M2,8L50,8C51.1,8 52,7.1 52,6L52,2C52,0.9 51.1,0 50,0L2,0C0.9,0 0,0.9 0,2L0,6C0,7.1 0.9,8 2,8Z " /><path id="矩形 3" fill-rule="evenodd" style="fill:#D5D6D9" transform="translate(472.5 8)  rotate(0 15.999999999999998 4)" opacity="1" d="M2,8L30,8C31.1,8 32,7.1 32,6L32,2C32,0.9 31.1,0 30,0L2,0C0.9,0 0,0.9 0,2L0,6C0,7.1 0.9,8 2,8Z " /><path id="矩形 3" fill-rule="evenodd" style="fill:#D5D6D9" transform="translate(548.5 8)  rotate(0 12 4)" opacity="1" d="M2,8L22,8C23.1,8 24,7.1 24,6L24,2C24,0.9 23.1,0 22,0L2,0C0.9,0 0,0.9 0,2L0,6C0,7.1 0.9,8 2,8Z " /><path id="矩形 3" fill-rule="evenodd" style="fill:#D5D6D9" transform="translate(616.5 8)  rotate(0 9 4)" opacity="1" d="M2,8L16,8C17.1,8 18,7.1 18,6L18,2C18,0.9 17.1,0 16,0L2,0C0.9,0 0,0.9 0,2L0,6C0,7.1 0.9,8 2,8Z " /><path id="圆形 1" fill-rule="evenodd" style="fill:#A4ACF5" transform="translate(0 0)  rotate(0 12 12)" opacity="1" d="M12,0C5.37,0 0,5.37 0,12C0,18.63 5.37,24 12,24C18.63,24 24,18.63 24,12C24,5.37 18.63,0 12,0Z " /></g><g opacity="1" transform="translate(130 314)  rotate(0 317.25 12)"><path id="矩形 3" fill-rule="evenodd" style="fill:#D5D6D9" transform="translate(75 8)  rotate(0 21 4)" opacity="1" d="M2,8L40,8C41.1,8 42,7.1 42,6L42,2C42,0.9 41.1,0 40,0L2,0C0.9,0 0,0.9 0,2L0,6C0,7.1 0.9,8 2,8Z " /><path id="矩形 3" fill-rule="evenodd" style="fill:#D5D6D9" transform="translate(319.5 8)  rotate(0 21 4)" opacity="1" d="M2,8L40,8C41.1,8 42,7.1 42,6L42,2C42,0.9 41.1,0 40,0L2,0C0.9,0 0,0.9 0,2L0,6C0,7.1 0.9,8 2,8Z " /><path id="矩形 3" fill-rule="evenodd" style="fill:#D5D6D9" transform="translate(168.5 8)  rotate(0 8.5 4)" opacity="1" d="M2,8L15,8C16.1,8 17,7.1 17,6L17,2C17,0.9 16.1,0 15,0L2,0C0.9,0 0,0.9 0,2L0,6C0,7.1 0.9,8 2,8Z " /><path id="矩形 3" fill-rule="evenodd" style="fill:#D5D6D9" transform="translate(400.5 8)  rotate(0 12 4)" opacity="1" d="M2,8L22,8C23.1,8 24,7.1 24,6L24,2C24,0.9 23.1,0 22,0L2,0C0.9,0 0,0.9 0,2L0,6C0,7.1 0.9,8 2,8Z " /><path id="矩形 3" fill-rule="evenodd" style="fill:#D5D6D9" transform="translate(225.5 8)  rotate(0 26 4)" opacity="1" d="M2,8L50,8C51.1,8 52,7.1 52,6L52,2C52,0.9 51.1,0 50,0L2,0C0.9,0 0,0.9 0,2L0,6C0,7.1 0.9,8 2,8Z " /><path id="矩形 3" fill-rule="evenodd" style="fill:#D5D6D9" transform="translate(472.5 8)  rotate(0 15.999999999999998 4)" opacity="1" d="M2,8L30,8C31.1,8 32,7.1 32,6L32,2C32,0.9 31.1,0 30,0L2,0C0.9,0 0,0.9 0,2L0,6C0,7.1 0.9,8 2,8Z " /><path id="矩形 3" fill-rule="evenodd" style="fill:#D5D6D9" transform="translate(548.5 8)  rotate(0 12 4)" opacity="1" d="M2,8L22,8C23.1,8 24,7.1 24,6L24,2C24,0.9 23.1,0 22,0L2,0C0.9,0 0,0.9 0,2L0,6C0,7.1 0.9,8 2,8Z " /><path id="矩形 3" fill-rule="evenodd" style="fill:#D5D6D9" transform="translate(616.5 8)  rotate(0 9 4)" opacity="1" d="M2,8L16,8C17.1,8 18,7.1 18,6L18,2C18,0.9 17.1,0 16,0L2,0C0.9,0 0,0.9 0,2L0,6C0,7.1 0.9,8 2,8Z " /><path id="圆形 1" fill-rule="evenodd" style="fill:#A4ACF5" transform="translate(0 0)  rotate(0 12 12)" opacity="1" d="M12,0C5.37,0 0,5.37 0,12C0,18.63 5.37,24 12,24C18.63,24 24,18.63 24,12C24,5.37 18.63,0 12,0Z " /></g><g opacity="1" transform="translate(130 233.5)  rotate(0 317.25 12)"><path id="矩形 3" fill-rule="evenodd" style="fill:#D5D6D9" transform="translate(75 8)  rotate(0 21 4)" opacity="1" d="M2,8L40,8C41.1,8 42,7.1 42,6L42,2C42,0.9 41.1,0 40,0L2,0C0.9,0 0,0.9 0,2L0,6C0,7.1 0.9,8 2,8Z " /><path id="矩形 3" fill-rule="evenodd" style="fill:#D5D6D9" transform="translate(319.5 8)  rotate(0 21 4)" opacity="1" d="M2,8L40,8C41.1,8 42,7.1 42,6L42,2C42,0.9 41.1,0 40,0L2,0C0.9,0 0,0.9 0,2L0,6C0,7.1 0.9,8 2,8Z " /><path id="矩形 3" fill-rule="evenodd" style="fill:#D5D6D9" transform="translate(168.5 8)  rotate(0 8.5 4)" opacity="1" d="M2,8L15,8C16.1,8 17,7.1 17,6L17,2C17,0.9 16.1,0 15,0L2,0C0.9,0 0,0.9 0,2L0,6C0,7.1 0.9,8 2,8Z " /><path id="矩形 3" fill-rule="evenodd" style="fill:#D5D6D9" transform="translate(400.5 8)  rotate(0 12 4)" opacity="1" d="M2,8L22,8C23.1,8 24,7.1 24,6L24,2C24,0.9 23.1,0 22,0L2,0C0.9,0 0,0.9 0,2L0,6C0,7.1 0.9,8 2,8Z " /><path id="矩形 3" fill-rule="evenodd" style="fill:#D5D6D9" transform="translate(225.5 8)  rotate(0 26 4)" opacity="1" d="M2,8L50,8C51.1,8 52,7.1 52,6L52,2C52,0.9 51.1,0 50,0L2,0C0.9,0 0,0.9 0,2L0,6C0,7.1 0.9,8 2,8Z " /><path id="矩形 3" fill-rule="evenodd" style="fill:#D5D6D9" transform="translate(472.5 8)  rotate(0 15.999999999999998 4)" opacity="1" d="M2,8L30,8C31.1,8 32,7.1 32,6L32,2C32,0.9 31.1,0 30,0L2,0C0.9,0 0,0.9 0,2L0,6C0,7.1 0.9,8 2,8Z " /><path id="矩形 3" fill-rule="evenodd" style="fill:#D5D6D9" transform="translate(548.5 8)  rotate(0 12 4)" opacity="1" d="M2,8L22,8C23.1,8 24,7.1 24,6L24,2C24,0.9 23.1,0 22,0L2,0C0.9,0 0,0.9 0,2L0,6C0,7.1 0.9,8 2,8Z " /><path id="矩形 3" fill-rule="evenodd" style="fill:#D5D6D9" transform="translate(616.5 8)  rotate(0 9 4)" opacity="1" d="M2,8L16,8C17.1,8 18,7.1 18,6L18,2C18,0.9 17.1,0 16,0L2,0C0.9,0 0,0.9 0,2L0,6C0,7.1 0.9,8 2,8Z " /><path id="圆形 1" fill-rule="evenodd" style="fill:#A4ACF5" transform="translate(0 0)  rotate(0 12 12)" opacity="1" d="M12,0C5.37,0 0,5.37 0,12C0,18.63 5.37,24 12,24C18.63,24 24,18.63 24,12C24,5.37 18.63,0 12,0Z " /></g><g opacity="1" transform="translate(130 353.5)  rotate(0 317.25 12)"><path id="矩形 3" fill-rule="evenodd" style="fill:#D5D6D9" transform="translate(75 8)  rotate(0 21 4)" opacity="1" d="M2,8L40,8C41.1,8 42,7.1 42,6L42,2C42,0.9 41.1,0 40,0L2,0C0.9,0 0,0.9 0,2L0,6C0,7.1 0.9,8 2,8Z " /><path id="矩形 3" fill-rule="evenodd" style="fill:#D5D6D9" transform="translate(319.5 8)  rotate(0 21 4)" opacity="1" d="M2,8L40,8C41.1,8 42,7.1 42,6L42,2C42,0.9 41.1,0 40,0L2,0C0.9,0 0,0.9 0,2L0,6C0,7.1 0.9,8 2,8Z " /><path id="矩形 3" fill-rule="evenodd" style="fill:#D5D6D9" transform="translate(168.5 8)  rotate(0 8.5 4)" opacity="1" d="M2,8L15,8C16.1,8 17,7.1 17,6L17,2C17,0.9 16.1,0 15,0L2,0C0.9,0 0,0.9 0,2L0,6C0,7.1 0.9,8 2,8Z " /><path id="矩形 3" fill-rule="evenodd" style="fill:#D5D6D9" transform="translate(400.5 8)  rotate(0 12 4)" opacity="1" d="M2,8L22,8C23.1,8 24,7.1 24,6L24,2C24,0.9 23.1,0 22,0L2,0C0.9,0 0,0.9 0,2L0,6C0,7.1 0.9,8 2,8Z " /><path id="矩形 3" fill-rule="evenodd" style="fill:#D5D6D9" transform="translate(225.5 8)  rotate(0 26 4)" opacity="1" d="M2,8L50,8C51.1,8 52,7.1 52,6L52,2C52,0.9 51.1,0 50,0L2,0C0.9,0 0,0.9 0,2L0,6C0,7.1 0.9,8 2,8Z " /><path id="矩形 3" fill-rule="evenodd" style="fill:#D5D6D9" transform="translate(472.5 8)  rotate(0 15.999999999999998 4)" opacity="1" d="M2,8L30,8C31.1,8 32,7.1 32,6L32,2C32,0.9 31.1,0 30,0L2,0C0.9,0 0,0.9 0,2L0,6C0,7.1 0.9,8 2,8Z " /><path id="矩形 3" fill-rule="evenodd" style="fill:#D5D6D9" transform="translate(548.5 8)  rotate(0 12 4)" opacity="1" d="M2,8L22,8C23.1,8 24,7.1 24,6L24,2C24,0.9 23.1,0 22,0L2,0C0.9,0 0,0.9 0,2L0,6C0,7.1 0.9,8 2,8Z " /><path id="矩形 3" fill-rule="evenodd" style="fill:#D5D6D9" transform="translate(616.5 8)  rotate(0 9 4)" opacity="1" d="M2,8L16,8C17.1,8 18,7.1 18,6L18,2C18,0.9 17.1,0 16,0L2,0C0.9,0 0,0.9 0,2L0,6C0,7.1 0.9,8 2,8Z " /><path id="圆形 1" fill-rule="evenodd" style="fill:#A4ACF5" transform="translate(0 0)  rotate(0 12 12)" opacity="1" d="M12,0C5.37,0 0,5.37 0,12C0,18.63 5.37,24 12,24C18.63,24 24,18.63 24,12C24,5.37 18.63,0 12,0Z " /></g><g opacity="1" transform="translate(130 273)  rotate(0 317.25 12)"><path id="矩形 3" fill-rule="evenodd" style="fill:#D5D6D9" transform="translate(75 8)  rotate(0 21 4)" opacity="1" d="M2,8L40,8C41.1,8 42,7.1 42,6L42,2C42,0.9 41.1,0 40,0L2,0C0.9,0 0,0.9 0,2L0,6C0,7.1 0.9,8 2,8Z " /><path id="矩形 3" fill-rule="evenodd" style="fill:#D5D6D9" transform="translate(319.5 8)  rotate(0 21 4)" opacity="1" d="M2,8L40,8C41.1,8 42,7.1 42,6L42,2C42,0.9 41.1,0 40,0L2,0C0.9,0 0,0.9 0,2L0,6C0,7.1 0.9,8 2,8Z " /><path id="矩形 3" fill-rule="evenodd" style="fill:#D5D6D9" transform="translate(168.5 8)  rotate(0 8.5 4)" opacity="1" d="M2,8L15,8C16.1,8 17,7.1 17,6L17,2C17,0.9 16.1,0 15,0L2,0C0.9,0 0,0.9 0,2L0,6C0,7.1 0.9,8 2,8Z " /><path id="矩形 3" fill-rule="evenodd" style="fill:#D5D6D9" transform="translate(400.5 8)  rotate(0 12 4)" opacity="1" d="M2,8L22,8C23.1,8 24,7.1 24,6L24,2C24,0.9 23.1,0 22,0L2,0C0.9,0 0,0.9 0,2L0,6C0,7.1 0.9,8 2,8Z " /><path id="矩形 3" fill-rule="evenodd" style="fill:#D5D6D9" transform="translate(225.5 8)  rotate(0 26 4)" opacity="1" d="M2,8L50,8C51.1,8 52,7.1 52,6L52,2C52,0.9 51.1,0 50,0L2,0C0.9,0 0,0.9 0,2L0,6C0,7.1 0.9,8 2,8Z " /><path id="矩形 3" fill-rule="evenodd" style="fill:#D5D6D9" transform="translate(472.5 8)  rotate(0 15.999999999999998 4)" opacity="1" d="M2,8L30,8C31.1,8 32,7.1 32,6L32,2C32,0.9 31.1,0 30,0L2,0C0.9,0 0,0.9 0,2L0,6C0,7.1 0.9,8 2,8Z " /><path id="矩形 3" fill-rule="evenodd" style="fill:#D5D6D9" transform="translate(548.5 8)  rotate(0 12 4)" opacity="1" d="M2,8L22,8C23.1,8 24,7.1 24,6L24,2C24,0.9 23.1,0 22,0L2,0C0.9,0 0,0.9 0,2L0,6C0,7.1 0.9,8 2,8Z " /><path id="矩形 3" fill-rule="evenodd" style="fill:#D5D6D9" transform="translate(616.5 8)  rotate(0 9 4)" opacity="1" d="M2,8L16,8C17.1,8 18,7.1 18,6L18,2C18,0.9 17.1,0 16,0L2,0C0.9,0 0,0.9 0,2L0,6C0,7.1 0.9,8 2,8Z " /><path id="圆形 1" fill-rule="evenodd" style="fill:#A4ACF5" transform="translate(0 0)  rotate(0 12 12)" opacity="1" d="M12,0C5.37,0 0,5.37 0,12C0,18.63 5.37,24 12,24C18.63,24 24,18.63 24,12C24,5.37 18.63,0 12,0Z " /></g><g opacity="1" transform="translate(130 393)  rotate(0 317.25 12)"><path id="矩形 3" fill-rule="evenodd" style="fill:#D5D6D9" transform="translate(75 8)  rotate(0 21 4)" opacity="1" d="M2,8L40,8C41.1,8 42,7.1 42,6L42,2C42,0.9 41.1,0 40,0L2,0C0.9,0 0,0.9 0,2L0,6C0,7.1 0.9,8 2,8Z " /><path id="矩形 3" fill-rule="evenodd" style="fill:#D5D6D9" transform="translate(319.5 8)  rotate(0 21 4)" opacity="1" d="M2,8L40,8C41.1,8 42,7.1 42,6L42,2C42,0.9 41.1,0 40,0L2,0C0.9,0 0,0.9 0,2L0,6C0,7.1 0.9,8 2,8Z " /><path id="矩形 3" fill-rule="evenodd" style="fill:#D5D6D9" transform="translate(168.5 8)  rotate(0 8.5 4)" opacity="1" d="M2,8L15,8C16.1,8 17,7.1 17,6L17,2C17,0.9 16.1,0 15,0L2,0C0.9,0 0,0.9 0,2L0,6C0,7.1 0.9,8 2,8Z " /><path id="矩形 3" fill-rule="evenodd" style="fill:#D5D6D9" transform="translate(400.5 8)  rotate(0 12 4)" opacity="1" d="M2,8L22,8C23.1,8 24,7.1 24,6L24,2C24,0.9 23.1,0 22,0L2,0C0.9,0 0,0.9 0,2L0,6C0,7.1 0.9,8 2,8Z " /><path id="矩形 3" fill-rule="evenodd" style="fill:#D5D6D9" transform="translate(225.5 8)  rotate(0 26 4)" opacity="1" d="M2,8L50,8C51.1,8 52,7.1 52,6L52,2C52,0.9 51.1,0 50,0L2,0C0.9,0 0,0.9 0,2L0,6C0,7.1 0.9,8 2,8Z " /><path id="矩形 3" fill-rule="evenodd" style="fill:#D5D6D9" transform="translate(472.5 8)  rotate(0 15.999999999999998 4)" opacity="1" d="M2,8L30,8C31.1,8 32,7.1 32,6L32,2C32,0.9 31.1,0 30,0L2,0C0.9,0 0,0.9 0,2L0,6C0,7.1 0.9,8 2,8Z " /><path id="矩形 3" fill-rule="evenodd" style="fill:#D5D6D9" transform="translate(548.5 8)  rotate(0 12 4)" opacity="1" d="M2,8L22,8C23.1,8 24,7.1 24,6L24,2C24,0.9 23.1,0 22,0L2,0C0.9,0 0,0.9 0,2L0,6C0,7.1 0.9,8 2,8Z " /><path id="矩形 3" fill-rule="evenodd" style="fill:#D5D6D9" transform="translate(616.5 8)  rotate(0 9 4)" opacity="1" d="M2,8L16,8C17.1,8 18,7.1 18,6L18,2C18,0.9 17.1,0 16,0L2,0C0.9,0 0,0.9 0,2L0,6C0,7.1 0.9,8 2,8Z " /><path id="圆形 1" fill-rule="evenodd" style="fill:#A4ACF5" transform="translate(0 0)  rotate(0 12 12)" opacity="1" d="M12,0C5.37,0 0,5.37 0,12C0,18.63 5.37,24 12,24C18.63,24 24,18.63 24,12C24,5.37 18.63,0 12,0Z " /></g></g></g></svg>