<svg xmlns="http://www.w3.org/2000/svg" xmlns:xlink="http://www.w3.org/1999/xlink" width="900" height="600" viewBox="0 0 900 600" fill="none"><defs><rect id="path_0" x="0" y="0" width="900" height="600" /><filter id="filter_6" x="244" y="67" width="405" height="479" filterUnits="userSpaceOnUse" color-interpolation-filters="sRGB"><feFlood flood-opacity="0" result="BackgroundImageFix"/>
          <feColorMatrix in="SourceAlpha" type="matrix" values="0 0 0 0 0 0 0 0 0 0 0 0 0 0 0 0 0 0 127 0"/>
          <feOffset dx="0" dy="12"/>
          <feGaussianBlur stdDeviation="24"/>
          <feColorMatrix type="matrix" values="0 0 0 0 0 0 0 0 0 0 0 0 0 0 0 0 0 0 0.03 0"/>
          <feBlend mode="normal" in2="BackgroundImageFix" result="effect1_Shadow"/>
          <feBlend mode="normal" in="SourceGraphic" in2="effect1_Shadow" result="shape"/><feFlood flood-opacity="0" result="BackgroundImageFix"/>
          <feColorMatrix in="SourceAlpha" type="matrix" values="0 0 0 0 0 0 0 0 0 0 0 0 0 0 0 0 0 0 127 0"/>
          <feOffset dx="0" dy="9"/>
          <feGaussianBlur stdDeviation="14"/>
          <feColorMatrix type="matrix" values="0 0 0 0 0 0 0 0 0 0 0 0 0 0 0 0 0 0 0.05 0"/>
          <feBlend mode="normal" in2="BackgroundImageFix" result="effect1_Shadow"/>
          <feBlend mode="normal" in="SourceGraphic" in2="effect1_Shadow" result="shape"/><feFlood flood-opacity="0" result="BackgroundImageFix"/>
          <feColorMatrix in="SourceAlpha" type="matrix" values="0 0 0 0 0 0 0 0 0 0 0 0 0 0 0 0 0 0 127 0"/>
          <feOffset dx="0" dy="6"/>
          <feGaussianBlur stdDeviation="8"/>
          <feColorMatrix type="matrix" values="0 0 0 0 0 0 0 0 0 0 0 0 0 0 0 0 0 0 0.08 0"/>
          <feBlend mode="normal" in2="BackgroundImageFix" result="effect1_Shadow"/>
          <feBlend mode="normal" in="SourceGraphic" in2="effect1_Shadow" result="shape"/></filter></defs><g opacity="1" transform="translate(0 0)  rotate(0 450 300)"><rect fill="#F5F6F7" opacity="1" transform="translate(0 0)  rotate(0 450 300)" x="0" y="0" width="900" height="600" rx="6" /><mask id="bg-mask-0" fill="white"><use xlink:href="#path_0"></use></mask><g mask="url(#bg-mask-0)" ><g opacity="1" transform="translate(336 24)  rotate(0 110 18)"><text><tspan x="0" y="25" font-size="20" line-height="36" fill="#000000" opacity="1" font-family="PingFang SC Medium" letter-spacing="0" >创建项目，开始项目管理</tspan></text></g><path id="矩形 1" fill-rule="evenodd" style="fill:#2877ff" transform="translate(555 88)  rotate(0 172.5 224)" opacity="0.2" d="M6,448L345,448L345,0L6,0C2.69,0 0,2.69 0,6L0,442C0,445.31 2.69,448 6,448Z " /><g id="矩形 6" filter="url(#filter_6)"><path id="矩形 6" fill-rule="evenodd" style="fill:#FFFFFF" transform="translate(292 115)  rotate(0 154.5 191.5)" opacity="1" d="M305.5,382.9C307.02,383 309,380.87 309,378.24L309,5.56C309.02,5.03 309,4.49 308.94,3.96C308.59,1.71 306.77,0 304.59,0L5.33,0C4.72,-0.03 4.11,0 3.5,0.1C1.8,0.5 0.32,2.09 0.05,4.06C0,4.52 -0.02,4.99 0,5.45L0,377.44C-0.02,377.97 0,378.51 0.06,379.04C0.41,381.29 2.23,383 4.41,383L303.67,383C304.28,383.03 304.89,383 305.5,382.9Z " /></g><path id="矩形 8" fill-rule="evenodd" style="fill:#2877ff" transform="translate(485 461)  rotate(0 20 9)" opacity="1" d="M2,18L38,18C39.1,18 40,17.1 40,16L40,2C40,0.9 39.1,0 38,0L2,0C0.9,0 0,0.9 0,2L0,16C0,17.1 0.9,18 2,18Z " /><path id="矩形 8" fill-rule="evenodd" style="fill:#D5D6D9" transform="translate(542 461)  rotate(0 20 9)" opacity="1" d="M2,18L38,18C39.1,18 40,17.1 40,16L40,2C40,0.9 39.1,0 38,0L2,0C0.9,0 0,0.9 0,2L0,16C0,17.1 0.9,18 2,18Z " /><g opacity="1" transform="translate(311 247)  rotate(0 24 9)"><text><tspan x="0" y="14" font-size="12" line-height="0" fill="#000000" opacity="1" font-family="SourceHanSansCN-Regular" letter-spacing="0" >项目名称</tspan></text></g><g opacity="1" transform="translate(311 303)  rotate(0 24 9)"><text><tspan x="0" y="14" font-size="12" line-height="0" fill="#000000" opacity="1" font-family="SourceHanSansCN-Regular" letter-spacing="0" >项目描述</tspan></text></g><g opacity="1" transform="translate(311 383)  rotate(0 26.5 9)"><text><tspan x="0" y="14" font-size="12" line-height="0" fill="#000000" opacity="1" font-family="SourceHanSansCN-Regular" letter-spacing="0" >公开/私有</tspan></text></g><path id="矩形 7" fill-rule="evenodd" style="fill:#A4ACF5" transform="translate(311 161)  rotate(0 135.5 35.5)" opacity="1" d="M2,71L269,71C270.1,71 271,70.1 271,69L271,2C271,0.9 270.1,0 269,0L2,0C0.9,0 0,0.9 0,2L0,69C0,70.1 0.9,71 2,71Z " /><g opacity="1" transform="translate(311 129)  rotate(0 32 12)"><text><tspan x="0" y="18" font-size="16" line-height="24" fill="#323233" opacity="1" font-family="PingFang SC Medium" letter-spacing="0" >创建项目</tspan></text></g><path id="矩形 2" fill-rule="evenodd" style="fill:#D5D6D9" transform="translate(311 273)  rotate(0 135.5 10)" opacity="1" d="M2,20L269,20C270.1,20 271,19.1 271,18L271,2C271,0.9 270.1,0 269,0L2,0C0.9,0 0,0.9 0,2L0,18C0,19.1 0.9,20 2,20Z " /><path id="矩形 2" fill-rule="evenodd" style="fill:#D5D6D9" transform="translate(311 329)  rotate(0 135.5 22)" opacity="1" d="M2,44L269,44C270.1,44 271,43.1 271,42L271,2C271,0.9 270.1,0 269,0L2,0C0.9,0 0,0.9 0,2L0,42C0,43.1 0.9,44 2,44Z " /><path id="矩形 2" fill-rule="evenodd" style="fill:#D5D6D9" transform="translate(311 409)  rotate(0 135.5 10)" opacity="1" d="M2,20L269,20C270.1,20 271,19.1 271,18L271,2C271,0.9 270.1,0 269,0L2,0C0.9,0 0,0.9 0,2L0,18C0,19.1 0.9,20 2,20Z " /></g></g></svg>