<svg xmlns="http://www.w3.org/2000/svg" xmlns:xlink="http://www.w3.org/1999/xlink" width="900" height="600" viewBox="0 0 900 600" fill="none"><defs><rect id="path_0" x="0" y="0" width="900" height="600" /><filter id="filter_10" x="-48" y="-48" width="343" height="434" filterUnits="userSpaceOnUse" color-interpolation-filters="sRGB"><feFlood flood-opacity="0" result="BackgroundImageFix"/>
          <feColorMatrix in="SourceAlpha" type="matrix" values="0 0 0 0 0 0 0 0 0 0 0 0 0 0 0 0 0 0 127 0"/>
          <feOffset dx="0" dy="12"/>
          <feGaussianBlur stdDeviation="24"/>
          <feColorMatrix type="matrix" values="0 0 0 0 0 0 0 0 0 0 0 0 0 0 0 0 0 0 0.03 0"/>
          <feBlend mode="normal" in2="BackgroundImageFix" result="effect1_Shadow"/>
          <feBlend mode="normal" in="SourceGraphic" in2="effect1_Shadow" result="shape"/><feFlood flood-opacity="0" result="BackgroundImageFix"/>
          <feColorMatrix in="SourceAlpha" type="matrix" values="0 0 0 0 0 0 0 0 0 0 0 0 0 0 0 0 0 0 127 0"/>
          <feOffset dx="0" dy="9"/>
          <feGaussianBlur stdDeviation="14"/>
          <feColorMatrix type="matrix" values="0 0 0 0 0 0 0 0 0 0 0 0 0 0 0 0 0 0 0.05 0"/>
          <feBlend mode="normal" in2="BackgroundImageFix" result="effect1_Shadow"/>
          <feBlend mode="normal" in="SourceGraphic" in2="effect1_Shadow" result="shape"/><feFlood flood-opacity="0" result="BackgroundImageFix"/>
          <feColorMatrix in="SourceAlpha" type="matrix" values="0 0 0 0 0 0 0 0 0 0 0 0 0 0 0 0 0 0 127 0"/>
          <feOffset dx="0" dy="6"/>
          <feGaussianBlur stdDeviation="8"/>
          <feColorMatrix type="matrix" values="0 0 0 0 0 0 0 0 0 0 0 0 0 0 0 0 0 0 0.08 0"/>
          <feBlend mode="normal" in2="BackgroundImageFix" result="effect1_Shadow"/>
          <feBlend mode="normal" in="SourceGraphic" in2="effect1_Shadow" result="shape"/></filter><filter id="filter_22" x="-48" y="-48" width="390" height="135.2" filterUnits="userSpaceOnUse" color-interpolation-filters="sRGB"><feFlood flood-opacity="0" result="BackgroundImageFix"/>
          <feColorMatrix in="SourceAlpha" type="matrix" values="0 0 0 0 0 0 0 0 0 0 0 0 0 0 0 0 0 0 127 0"/>
          <feOffset dx="0" dy="12"/>
          <feGaussianBlur stdDeviation="24"/>
          <feColorMatrix type="matrix" values="0 0 0 0 0 0 0 0 0 0 0 0 0 0 0 0 0 0 0.03 0"/>
          <feBlend mode="normal" in2="BackgroundImageFix" result="effect1_Shadow"/>
          <feBlend mode="normal" in="SourceGraphic" in2="effect1_Shadow" result="shape"/><feFlood flood-opacity="0" result="BackgroundImageFix"/>
          <feColorMatrix in="SourceAlpha" type="matrix" values="0 0 0 0 0 0 0 0 0 0 0 0 0 0 0 0 0 0 127 0"/>
          <feOffset dx="0" dy="9"/>
          <feGaussianBlur stdDeviation="14"/>
          <feColorMatrix type="matrix" values="0 0 0 0 0 0 0 0 0 0 0 0 0 0 0 0 0 0 0.05 0"/>
          <feBlend mode="normal" in2="BackgroundImageFix" result="effect1_Shadow"/>
          <feBlend mode="normal" in="SourceGraphic" in2="effect1_Shadow" result="shape"/><feFlood flood-opacity="0" result="BackgroundImageFix"/>
          <feColorMatrix in="SourceAlpha" type="matrix" values="0 0 0 0 0 0 0 0 0 0 0 0 0 0 0 0 0 0 127 0"/>
          <feOffset dx="0" dy="6"/>
          <feGaussianBlur stdDeviation="8"/>
          <feColorMatrix type="matrix" values="0 0 0 0 0 0 0 0 0 0 0 0 0 0 0 0 0 0 0.08 0"/>
          <feBlend mode="normal" in2="BackgroundImageFix" result="effect1_Shadow"/>
          <feBlend mode="normal" in="SourceGraphic" in2="effect1_Shadow" result="shape"/></filter><rect id="path_1" x="0" y="0" width="294" height="39.2" /><filter id="filter_28" x="-48" y="-48" width="243" height="200" filterUnits="userSpaceOnUse" color-interpolation-filters="sRGB"><feFlood flood-opacity="0" result="BackgroundImageFix"/>
          <feColorMatrix in="SourceAlpha" type="matrix" values="0 0 0 0 0 0 0 0 0 0 0 0 0 0 0 0 0 0 127 0"/>
          <feOffset dx="0" dy="12"/>
          <feGaussianBlur stdDeviation="24"/>
          <feColorMatrix type="matrix" values="0 0 0 0 0 0 0 0 0 0 0 0 0 0 0 0 0 0 0.03 0"/>
          <feBlend mode="normal" in2="BackgroundImageFix" result="effect1_Shadow"/>
          <feBlend mode="normal" in="SourceGraphic" in2="effect1_Shadow" result="shape"/><feFlood flood-opacity="0" result="BackgroundImageFix"/>
          <feColorMatrix in="SourceAlpha" type="matrix" values="0 0 0 0 0 0 0 0 0 0 0 0 0 0 0 0 0 0 127 0"/>
          <feOffset dx="0" dy="9"/>
          <feGaussianBlur stdDeviation="14"/>
          <feColorMatrix type="matrix" values="0 0 0 0 0 0 0 0 0 0 0 0 0 0 0 0 0 0 0.05 0"/>
          <feBlend mode="normal" in2="BackgroundImageFix" result="effect1_Shadow"/>
          <feBlend mode="normal" in="SourceGraphic" in2="effect1_Shadow" result="shape"/><feFlood flood-opacity="0" result="BackgroundImageFix"/>
          <feColorMatrix in="SourceAlpha" type="matrix" values="0 0 0 0 0 0 0 0 0 0 0 0 0 0 0 0 0 0 127 0"/>
          <feOffset dx="0" dy="6"/>
          <feGaussianBlur stdDeviation="8"/>
          <feColorMatrix type="matrix" values="0 0 0 0 0 0 0 0 0 0 0 0 0 0 0 0 0 0 0.08 0"/>
          <feBlend mode="normal" in2="BackgroundImageFix" result="effect1_Shadow"/>
          <feBlend mode="normal" in="SourceGraphic" in2="effect1_Shadow" result="shape"/></filter><rect id="path_2" x="0" y="0" width="16" height="16" /><rect id="path_3" x="0" y="0" width="16" height="16" /><rect id="path_4" x="0" y="0" width="16" height="16" /></defs><g opacity="1" transform="translate(0 0)  rotate(0 450 300)"><rect fill="#F5F6F7" opacity="1" transform="translate(0 0)  rotate(0 450 300)" x="0" y="0" width="900" height="600" rx="6" /><mask id="bg-mask-0" fill="white"><use xlink:href="#path_0"></use></mask><g mask="url(#bg-mask-0)" ><path id="矩形 1" fill-rule="evenodd" style="fill:#2877ff" transform="translate(521 76)  rotate(0 189.5 224)" opacity="0.2" d="M6,448L379,448L379,0L6,0C2.69,0 0,2.69 0,6L0,442C0,445.31 2.69,448 6,448Z " /><g opacity="1" transform="translate(320 24)  rotate(0 130 18)"><text><tspan x="0" y="25" font-size="20" line-height="36" fill="#000000" opacity="1" font-family="PingFang SC Medium" letter-spacing="0" >请在员工管理中配置用户权限</tspan></text></g><g opacity="1" transform="translate(87 154)  rotate(0 380 180)"><g opacity="1" transform="translate(242 -43)  rotate(0 147 169)"><g id="矩形 6" filter="url(#filter_10)"><path id="矩形 6" fill-rule="evenodd" style="fill:#FFFFFF" transform="translate(0 0)  rotate(0 123.5 169)" opacity="1" d="M243.47,338C245.42,338 247,336.12 247,333.8L247,4.2C247,1.88 245.42,0 243.47,0L3.53,0C1.58,0 0,1.88 0,4.2L0,333.8C0,336.12 1.58,338 3.53,338L243.47,338Z " /></g><g opacity="1" transform="translate(23 103)  rotate(0 18 10)"><text><tspan x="0" y="14.5" font-size="12" line-height="20" fill="#646566" opacity="1" font-family="PingFang SC Regular" letter-spacing="0" >手机号</tspan></text></g><g opacity="1" transform="translate(35 211)  rotate(0 12 10)"><text><tspan x="0" y="14.5" font-size="12" line-height="20" fill="#646566" opacity="1" font-family="PingFang SC Regular" letter-spacing="0" >昵称</tspan></text></g><g opacity="1" transform="translate(35 175)  rotate(0 12 10)"><text><tspan x="0" y="14.5" font-size="12" line-height="20" fill="#646566" opacity="1" font-family="PingFang SC Regular" letter-spacing="0" >姓名</tspan></text></g><g opacity="1" transform="translate(23 252.5999999999999)  rotate(0 18 10)"><text><tspan x="0" y="14.5" font-size="12" line-height="20" fill="#646566" opacity="1" font-family="PingFang SC Regular" letter-spacing="0" >权限组</tspan></text></g><g opacity="1" transform="translate(35 139)  rotate(0 12 10)"><text><tspan x="0" y="14.5" font-size="12" line-height="20" fill="#646566" opacity="1" font-family="PingFang SC Regular" letter-spacing="0" >邮箱</tspan></text></g><g opacity="1" transform="translate(0 0)  rotate(0 147 19.6)"><g id="undefined" filter="url(#filter_22)"></g><mask id="bg-mask-1" fill="white"><use xlink:href="#path_1"></use></mask><g mask="url(#bg-mask-1)" ><path id="文本 3" fill-rule="evenodd" style="fill:#323233" transform="translate(17.315199999999912 14.62720000000013)  rotate(0 21.9632 5.1688)" opacity="1" d="M22.5 3.11L24.12 3.11C23.73 4.41 23.12 5.57 22.27 6.59L22.74 7.8C23.32 6.92 23.79 5.95 24.17 4.88L24.17 10.28L25.22 10.28L25.22 4.76C25.51 5.15 25.86 5.66 26.25 6.26L26.87 5.33C26.32 4.7 25.77 4.13 25.22 3.63L25.22 3.11L26.61 3.11L26.61 2.09L25.22 2.09L25.22 0L24.17 0L24.17 2.09L22.5 2.09L22.5 3.11ZM12.15 0.36L12.15 2.59L15.78 2.59C15.76 2.76 15.75 2.93 15.72 3.11L11.45 3.11L11.45 3.91L15.6 3.91C15.57 4.07 15.53 4.23 15.5 4.41L12.82 4.41L12.82 9.3L11.24 9.3L11.24 10.12L21.32 10.12L21.32 9.3L19.75 9.3L19.75 4.41L16.54 4.41L16.65 3.91L21.12 3.91L21.12 3.11L16.79 3.11C16.81 2.93 16.82 2.77 16.84 2.59L20.42 2.59L20.42 0.36L12.15 0.36ZM43.93 9.31L43.33 10.25C41.5 9.05 40.39 7.43 40.03 5.36L38.98 5.36L38.98 8.85C39.58 8.67 40.17 8.44 40.76 8.18L41 9.16C40.19 9.5 39.16 9.83 37.91 10.16L37.65 9.23C37.83 9.16 37.93 9.06 37.93 8.92L37.93 0.36L42.99 0.36L42.99 5.36L40.98 5.36C41.09 5.94 41.29 6.46 41.56 6.96C42.06 6.66 42.53 6.25 42.97 5.71L43.66 6.4C43.19 6.96 42.65 7.39 42.06 7.71C42.53 8.32 43.15 8.86 43.93 9.31ZM3.82 2.44L5.03 2.44L5.03 10.28L4.09 10.28L4.09 9.74L1.18 9.74L1.18 10.28L0.24 10.28L0.24 2.44L1.42 2.44L1.42 1.38L0 1.38L0 0.37L5.17 0.37L5.17 1.38L3.82 1.38L3.82 2.44ZM35.3 4.4C36.06 5.34 36.44 6.18 36.44 6.94C36.44 7.13 36.39 7.27 36.29 7.35C36.18 7.41 35.97 7.46 35.66 7.48C35.5 7.48 35.31 7.46 35.09 7.43L35.44 8.5C36.27 8.49 36.84 8.34 37.17 8.06C37.4 7.84 37.51 7.46 37.51 6.94C37.46 6.17 37.08 5.28 36.38 4.24Q37.055 2.65 37.55 1.21L37.55 0.37L33.91 0.37L33.91 10.34L34.96 10.34L34.96 1.37L36.49 1.37C36.2 2.26 35.81 3.28 35.3 4.4ZM8.74 10.15L6.42 10.15C5.86 10.15 5.59 9.77 5.59 9.02L5.59 4.11L8.59 4.11L8.59 1.39L5.48 1.39L5.48 0.38L9.61 0.38L9.61 5.14L6.63 5.14L6.63 8.59C6.63 8.95 6.71 9.13 6.88 9.15L8.56 9.15C8.8 9.15 8.96 8.99 9.03 8.69C9.09 8.39 9.14 7.82 9.16 6.98L10.23 7.31C10.14 8.49 10 9.26 9.82 9.62C9.65 9.97 9.3 10.15 8.74 10.15ZM26.76 10.3L26.07 9.44C27.2 8.69 28.15 7.81 28.88 6.79C27.96 5.23 27.41 3.51 27.23 1.6L26.81 1.6L26.81 0.58L31.94 0.58L31.94 1.59C31.63 3.62 31.04 5.36 30.14 6.84C30.83 7.81 31.7 8.68 32.75 9.46L32.02 10.33C31.04 9.53 30.2 8.67 29.52 7.75C28.76 8.75 27.83 9.6 26.76 10.3ZM13.16 1.86L14.57 1.86L14.57 1.13L13.16 1.13L13.16 1.86ZM15.52 1.13L15.52 1.86L17.05 1.86L17.05 1.13L15.52 1.13ZM19.41 1.13L19.41 1.86L18 1.86L18 1.13L19.41 1.13ZM41.94 1.37L38.98 1.37L38.98 2.41L41.94 2.41L41.94 1.37ZM2.91 2.44L2.91 1.38L2.33 1.38L2.33 2.44L2.91 2.44ZM28.25 1.6L30.92 1.6C30.68 3.18 30.21 4.59 29.5 5.82C28.8 4.56 28.38 3.15 28.25 1.6ZM41.94 3.37L41.94 4.39L38.98 4.39L38.98 3.37L41.94 3.37ZM2.88 3.4L2.88 5.32C2.88 5.86 3.14 6.14 3.66 6.14L4.09 6.14L4.09 6.9L1.18 6.9L1.18 6.23L1.65 6.65C2.09 6.09 2.33 5.22 2.34 4.02L2.34 3.4L2.88 3.4ZM1.65 4.02L1.65 3.4L1.18 3.4L1.18 6.05C1.48 5.58 1.64 4.91 1.65 4.02ZM3.58 5.11L3.58 3.4L4.09 3.4L4.09 5.33L3.86 5.33C3.67 5.33 3.58 5.25 3.58 5.11ZM13.88 5.13L13.88 5.68L18.69 5.68L18.69 5.13L13.88 5.13ZM13.88 6.88L13.88 6.32L18.69 6.32L18.69 6.88L13.88 6.88ZM13.88 8.08L13.88 7.52L18.69 7.52L18.69 8.08L13.88 8.08ZM1.18 7.86L1.18 8.75L4.09 8.75L4.09 7.86L1.18 7.86ZM18.69 8.7L18.69 9.3L13.88 9.3L13.88 8.7L18.69 8.7Z" /></g></g><path id="圆形 1" fill-rule="evenodd" style="fill:#A4ACF5" transform="translate(99.40769230769274 39)  rotate(0 24.092307692307525 24)" opacity="1" d="M24.09,0C10.79,0 0,10.75 0,24C0,37.25 10.79,48 24.09,48C37.4,48 48.18,37.25 48.18,24C48.18,10.75 37.4,0 24.09,0Z " /></g><g opacity="1" transform="translate(315 243)  rotate(0 73.5 52)"><g id="undefined" filter="url(#filter_28)"><rect fill="#FFFFFF" opacity="1" transform="translate(0 0)  rotate(0 73.5 52)" x="0" y="0" width="147" height="104" rx="6" /></g><g opacity="1" transform="translate(0 4)  rotate(0 74.5 16)"><rect fill="#F0F4FA" opacity="1" transform="translate(0 0)  rotate(0 74.5 16)" x="0" y="0" width="149" height="32" rx="0" /><g opacity="1" transform="translate(16 5)  rotate(0 21 11)"><text><tspan x="0" y="16" font-size="14" line-height="22" fill="#2877ff" opacity="1" font-family="PingFang SC Medium" letter-spacing="0" >管理者</tspan></text></g><g opacity="1" transform="translate(117 8)  rotate(0 8 8)"><mask id="bg-mask-2" fill="white"><use xlink:href="#path_2"></use></mask><g mask="url(#bg-mask-2)" ><path id="路径 1" fill-rule="evenodd" style="fill:#2877ff" transform="translate(1.624747257695617 2.96875)  rotate(0 6.37525274230433 5.030078125)" opacity="1" d="M1.22,4.25L0.13,4.25C0.02,4.25 -0.04,4.37 0.03,4.45L4.31,9.87C4.51,10.12 4.89,10.12 5.09,9.87L12.72,0.2C12.79,0.12 12.73,0 12.63,0L11.53,0C11.38,0 11.23,0.07 11.14,0.19L4.7,8.35L1.61,4.44C1.51,4.32 1.37,4.25 1.22,4.25Z " /></g></g></g><g opacity="1" transform="translate(0 36)  rotate(0 74.5 16)"><rect fill="#FFFFFF" opacity="1" transform="translate(0 0)  rotate(0 74.5 16)" x="0" y="0" width="149" height="32" rx="0" /><g opacity="1" transform="translate(16 5)  rotate(0 21 11)"><text><tspan x="0" y="16" font-size="14" line-height="22" fill="#646566" opacity="1" font-family="PingFang SC Medium" letter-spacing="0" >参与者</tspan></text></g></g><g opacity="1" transform="translate(0 68)  rotate(0 74.5 16)"><rect fill="#FFFFFF" opacity="1" transform="translate(0 0)  rotate(0 74.5 16)" x="0" y="0" width="149" height="32" rx="0" /><g opacity="1" transform="translate(16 5)  rotate(0 21 11)"><text><tspan x="0" y="16" font-size="14" line-height="22" fill="#646566" opacity="1" font-family="PingFang SC Medium" letter-spacing="0" >编辑者</tspan></text></g><g opacity="1" transform="translate(117 8)  rotate(0 8 8)"><mask id="bg-mask-3" fill="white"><use xlink:href="#path_3"></use></mask><g mask="url(#bg-mask-3)" ></g></g></g></g><g opacity="1" transform="translate(312.60000000000036 205.5999999999999)  rotate(0 74.4 14)"><g opacity="1" transform="translate(16 3)  rotate(0 21 11)"><g opacity="1" transform="translate(0 0)  rotate(0 21 11)"><text><tspan x="0" y="16" font-size="14" line-height="22" fill="#BBBDBF" opacity="1" font-family="PingFang SC Regular" letter-spacing="0" >请选择</tspan></text></g></g><g opacity="1" transform="translate(116.80000000000001 6)  rotate(0 8 8)"><mask id="bg-mask-4" fill="white"><use xlink:href="#path_4"></use></mask><g mask="url(#bg-mask-4)" ><path id="路径 1" fill-rule="evenodd" style="fill:#BBBDBF" transform="translate(2.06230210360797 4)  rotate(0 5.93740182006375 3.999999999999999)" opacity="1" d="M1.5,0.1C1.45,0.04 1.38,0 1.3,0L0.13,0C0.02,0 -0.04,0.12 0.02,0.2L5.53,7.79C5.73,8.07 6.14,8.07 6.34,7.79L11.85,0.2C11.91,0.12 11.85,0 11.75,0L10.58,0C10.5,0 10.42,0.04 10.38,0.1L5.94,6.22L1.5,0.1Z " /></g></g></g><path id="矩形 2" fill-rule="evenodd" style="fill:#D5D6D9" transform="translate(314 120)  rotate(0 30 6)" opacity="1" d="M2,12L58,12C59.1,12 60,11.1 60,10L60,2C60,0.9 59.1,0 58,0L2,0C0.9,0 0,0.9 0,2L0,10C0,11.1 0.9,12 2,12Z " /><path id="矩形 2" fill-rule="evenodd" style="fill:#D5D6D9" transform="translate(314 92)  rotate(0 65.5 6)" opacity="1" d="M2,12L129,12C130.1,12 131,11.1 131,10L131,2C131,0.9 130.1,0 129,0L2,0C0.9,0 0,0.9 0,2L0,10C0,11.1 0.9,12 2,12Z " /><path id="矩形 2" fill-rule="evenodd" style="fill:#D5D6D9" transform="translate(314 64)  rotate(0 44 6)" opacity="1" d="M2,12L86,12C87.1,12 88,11.1 88,10L88,2C88,0.9 87.1,0 86,0L2,0C0.9,0 0,0.9 0,2L0,10C0,11.1 0.9,12 2,12Z " /><path id="矩形 2" fill-rule="evenodd" style="fill:#D5D6D9" transform="translate(314 148)  rotate(0 30 6)" opacity="1" d="M2,12L58,12C59.1,12 60,11.1 60,10L60,2C60,0.9 59.1,0 58,0L2,0C0.9,0 0,0.9 0,2L0,10C0,11.1 0.9,12 2,12Z " /><path id="矩形 2" fill-rule="evenodd" style="fill:#D5D6D9" transform="translate(314 176)  rotate(0 30 6)" opacity="1" d="M2,12L58,12C59.1,12 60,11.1 60,10L60,2C60,0.9 59.1,0 58,0L2,0C0.9,0 0,0.9 0,2L0,10C0,11.1 0.9,12 2,12Z " /></g></g></g></svg>