<svg xmlns="http://www.w3.org/2000/svg" xmlns:xlink="http://www.w3.org/1999/xlink" width="900" height="600" viewBox="0 0 900 600" fill="none"><defs><rect id="path_0" x="0" y="0" width="900" height="600" /><filter id="filter_8" x="-48" y="-48" width="695" height="364" filterUnits="userSpaceOnUse" color-interpolation-filters="sRGB"><feFlood flood-opacity="0" result="BackgroundImageFix"/>
          <feColorMatrix in="SourceAlpha" type="matrix" values="0 0 0 0 0 0 0 0 0 0 0 0 0 0 0 0 0 0 127 0"/>
          <feOffset dx="0" dy="12"/>
          <feGaussianBlur stdDeviation="24"/>
          <feColorMatrix type="matrix" values="0 0 0 0 0 0 0 0 0 0 0 0 0 0 0 0 0 0 0.03 0"/>
          <feBlend mode="normal" in2="BackgroundImageFix" result="effect1_Shadow"/>
          <feBlend mode="normal" in="SourceGraphic" in2="effect1_Shadow" result="shape"/><feFlood flood-opacity="0" result="BackgroundImageFix"/>
          <feColorMatrix in="SourceAlpha" type="matrix" values="0 0 0 0 0 0 0 0 0 0 0 0 0 0 0 0 0 0 127 0"/>
          <feOffset dx="0" dy="9"/>
          <feGaussianBlur stdDeviation="14"/>
          <feColorMatrix type="matrix" values="0 0 0 0 0 0 0 0 0 0 0 0 0 0 0 0 0 0 0.05 0"/>
          <feBlend mode="normal" in2="BackgroundImageFix" result="effect1_Shadow"/>
          <feBlend mode="normal" in="SourceGraphic" in2="effect1_Shadow" result="shape"/><feFlood flood-opacity="0" result="BackgroundImageFix"/>
          <feColorMatrix in="SourceAlpha" type="matrix" values="0 0 0 0 0 0 0 0 0 0 0 0 0 0 0 0 0 0 127 0"/>
          <feOffset dx="0" dy="6"/>
          <feGaussianBlur stdDeviation="8"/>
          <feColorMatrix type="matrix" values="0 0 0 0 0 0 0 0 0 0 0 0 0 0 0 0 0 0 0.08 0"/>
          <feBlend mode="normal" in2="BackgroundImageFix" result="effect1_Shadow"/>
          <feBlend mode="normal" in="SourceGraphic" in2="effect1_Shadow" result="shape"/></filter><rect id="path_1" x="0" y="0" width="16" height="16" /></defs><g opacity="1" transform="translate(0 0)  rotate(0 450 300)"><rect fill="#F5F6F7" opacity="1" transform="translate(0 0)  rotate(0 450 300)" x="0" y="0" width="900" height="600" rx="6" /><mask id="bg-mask-0" fill="white"><use xlink:href="#path_0"></use></mask><g mask="url(#bg-mask-0)" ><g opacity="1" transform="translate(184.5 24)  rotate(0 266.5 36)"><text><tspan x="0" y="25" font-size="20" line-height="36" fill="#000000" opacity="1" font-family="PingFang SC Medium" letter-spacing="0"  >请到设置-权限管理配置权限组系统提供了管理员、编辑者、</tspan><tspan x="66.05000000000001" y="61" font-size="20" line-height="36" fill="#000000" opacity="1" font-family="PingFang SC Medium" letter-spacing="0" >参与者三个系统权限组还可自定义更多权限组</tspan></text></g><path id="矩形 1" fill-rule="evenodd" style="fill:#2877ff" transform="translate(555 109)  rotate(0 172.5 199.5)" opacity="0.2" d="M6,399L345,399L345,0L6,0C2.69,0 0,2.69 0,6L0,393C0,396.31 2.69,399 6,399Z " /><g opacity="1" transform="translate(166 178)  rotate(0 300.5 134)"><g id="矩形 2" filter="url(#filter_8)"><path id="矩形 2" fill-rule="evenodd" style="fill:#FFFFFF" transform="translate(0 0)  rotate(0 299.5 134)" opacity="1" d="M6,268L593,268C596.31,268 599,265.31 599,262L599,6C599,2.69 596.31,0 593,0L6,0C2.69,0 0,2.69 0,6L0,262C0,265.31 2.69,268 6,268Z " /></g><path id="矩形 3" fill-rule="evenodd" style="fill:#F5F6F7" transform="translate(171 0)  rotate(0 215 134)" opacity="1" d="M0,268L424,268C427.31,268 430,265.31 430,262L430,6C430,2.69 427.31,0 424,0L0,0L0,268Z " /><path id="矩形 4" fill-rule="evenodd" style="fill:#FFFFFF" transform="translate(180 8)  rotate(0 206.5 126.5)" opacity="1" d="M6,253L407,253C410.31,253 413,250.31 413,247L413,126.5L413,6C413,2.69 410.31,0 407,0L6,0C2.69,0 0,2.69 0,6L0,247C0,250.31 2.69,253 6,253Z " /><path id="矩形 8" fill-rule="evenodd" style="fill:#2877ff" transform="translate(204 20)  rotate(0 1.5 8)" opacity="1" d="M0,16L3,16L3,0L0,0L0,16Z " /><g opacity="1" transform="translate(180 36)  rotate(0 80 29)"><path id="矩形 7" fill-rule="evenodd" style="fill:#FFFFFF" transform="translate(0 0)  rotate(0 80 29)" opacity="0" d="M0,58L160,58L160,0L0,0L0,58Z " /><g opacity="1" transform="translate(56 8)  rotate(0 24 21)"><g opacity="1" transform="translate(0 0)  rotate(0 21 11)"><text><tspan x="0" y="16" font-size="14" line-height="22" fill="#000000" opacity="1" font-family="PingFang SC Regular" letter-spacing="0" >管理员</tspan></text></g><g opacity="1" transform="translate(0 22)  rotate(0 24 10)"><text><tspan x="0" y="14.5" font-size="12" line-height="20" fill="#BBBDBF" opacity="1" font-family="PingFang SC Regular" letter-spacing="0" >系统分组</tspan></text></g></g></g><g opacity="1" transform="translate(180 94)  rotate(0 80 29)"><path id="矩形 7" fill-rule="evenodd" style="fill:#F0F4FA" transform="translate(0 1.7763568394002505e-15)  rotate(0 80 29)" opacity="1" d="M0,58L160,58L160,0L0,0L0,58Z " /><path id="矩形 1" fill-rule="evenodd" style="fill:#2877ff" transform="translate(157 0)  rotate(0 1.5 29)" opacity="1" d="M0,58L3,58L3,0L0,0L0,58Z " /><g opacity="1" transform="translate(56 8.000000000000002)  rotate(0 24 21)"><g opacity="1" transform="translate(0 0)  rotate(0 21 11)"><text><tspan x="0" y="16" font-size="14" line-height="22" fill="#000000" opacity="1" font-family="PingFang SC Regular" letter-spacing="0" >编辑者</tspan></text></g><g opacity="1" transform="translate(0 22)  rotate(0 24 10)"><text><tspan x="0" y="14.5" font-size="12" line-height="20" fill="#BBBDBF" opacity="1" font-family="PingFang SC Regular" letter-spacing="0" >系统分组</tspan></text></g></g></g><g opacity="1" transform="translate(180 152)  rotate(0 80 29)"><path id="矩形 7" fill-rule="evenodd" style="fill:#FFFFFF" transform="translate(0 0)  rotate(0 80 29)" opacity="0" d="M0,58L160,58L160,0L0,0L0,58Z " /><g opacity="1" transform="translate(56 8)  rotate(0 24 21)"><g opacity="1" transform="translate(0 0)  rotate(0 21 11)"><text><tspan x="0" y="16" font-size="14" line-height="22" fill="#000000" opacity="1" font-family="PingFang SC Regular" letter-spacing="0" >参与者</tspan></text></g><g opacity="1" transform="translate(0 22)  rotate(0 24 10)"><text><tspan x="0" y="14.5" font-size="12" line-height="20" fill="#BBBDBF" opacity="1" font-family="PingFang SC Regular" letter-spacing="0" >系统分组</tspan></text></g></g></g><g opacity="1" transform="translate(180 190)  rotate(0 80 29)"><path id="矩形 7" fill-rule="evenodd" style="fill:#FFFFFF" transform="translate(0 0)  rotate(0 80 29)" opacity="0" d="M0,58L160,58L160,0L0,0L0,58Z " /><g opacity="1" transform="translate(45 25)  rotate(0 35 12.5)"><g opacity="1" transform="translate(0 3)  rotate(0 35 11)"><text><tspan x="0" y="16" font-size="14" line-height="22" fill="#000000" opacity="1" font-family="PingFang SC Regular" letter-spacing="0" >自定义分组</tspan></text></g></g></g><g opacity="1" transform="translate(215 17)  rotate(0 21 11)"><text><tspan x="0" y="16" font-size="14" line-height="22" fill="#323233" opacity="1" font-family="PingFang SC Medium" letter-spacing="0" >用户组</tspan></text></g><g opacity="1" transform="translate(0 26)  rotate(0 0.5 0.5)"></g><path id="矩形 2" fill-rule="evenodd" style="fill:#D5D6D9" transform="translate(31 134)  rotate(0 40 6)" opacity="1" d="M2,12L78,12C79.1,12 80,11.1 80,10L80,2C80,0.9 79.1,0 78,0L2,0C0.9,0 0,0.9 0,2L0,10C0,11.1 0.9,12 2,12Z " /><g opacity="1" transform="translate(392 28)  rotate(0 53 8)"><path id="Checkbox多选框/Normal" fill-rule="evenodd" style="fill:#FFFFFF" transform="translate(0 0)  rotate(0 8 8)" opacity="1" d="M4,16L12,16C14.21,16 16,14.21 16,12L16,4C16,1.79 14.21,0 12,0L4,0C1.79,0 0,1.79 0,4L0,12C0,14.21 1.79,16 4,16Z " /><rect  id="Checkbox多选框/Normal" style="stroke:#D5D6D9; stroke-width:1; stroke-opacity:1; stroke-dasharray:0 0" transform="translate(0 0)  rotate(0 8 8)" x="0.5" y="0.5" rx="3.5"  width="15" height="15" /><path id="矩形 2" fill-rule="evenodd" style="fill:#D5D6D9" transform="translate(26 2)  rotate(0 40 6)" opacity="1" d="M2,12L78,12C79.1,12 80,11.1 80,10L80,2C80,0.9 79.1,0 78,0L2,0C0.9,0 0,0.9 0,2L0,10C0,11.1 0.9,12 2,12Z " /></g><g opacity="1" transform="translate(392 68)  rotate(0 53 8)"><path id="Checkbox多选框/Normal" fill-rule="evenodd" style="fill:#FFFFFF" transform="translate(0 0)  rotate(0 8 8)" opacity="1" d="M4,16L12,16C14.21,16 16,14.21 16,12L16,4C16,1.79 14.21,0 12,0L4,0C1.79,0 0,1.79 0,4L0,12C0,14.21 1.79,16 4,16Z " /><rect  id="Checkbox多选框/Normal" style="stroke:#D5D6D9; stroke-width:1; stroke-opacity:1; stroke-dasharray:0 0" transform="translate(0 0)  rotate(0 8 8)" x="0.5" y="0.5" rx="3.5"  width="15" height="15" /><path id="矩形 2" fill-rule="evenodd" style="fill:#D5D6D9" transform="translate(26 2)  rotate(0 40 6)" opacity="1" d="M2,12L78,12C79.1,12 80,11.1 80,10L80,2C80,0.9 79.1,0 78,0L2,0C0.9,0 0,0.9 0,2L0,10C0,11.1 0.9,12 2,12Z " /></g><g opacity="1" transform="translate(392 108)  rotate(0 53 8)"><path id="Checkbox多选框/Normal" fill-rule="evenodd" style="fill:#FFFFFF" transform="translate(0 0)  rotate(0 8 8)" opacity="1" d="M4,16L12,16C14.21,16 16,14.21 16,12L16,4C16,1.79 14.21,0 12,0L4,0C1.79,0 0,1.79 0,4L0,12C0,14.21 1.79,16 4,16Z " /><rect  id="Checkbox多选框/Normal" style="stroke:#D5D6D9; stroke-width:1; stroke-opacity:1; stroke-dasharray:0 0" transform="translate(0 0)  rotate(0 8 8)" x="0.5" y="0.5" rx="3.5"  width="15" height="15" /><path id="矩形 2" fill-rule="evenodd" style="fill:#D5D6D9" transform="translate(26 2)  rotate(0 40 6)" opacity="1" d="M2,12L78,12C79.1,12 80,11.1 80,10L80,2C80,0.9 79.1,0 78,0L2,0C0.9,0 0,0.9 0,2L0,10C0,11.1 0.9,12 2,12Z " /></g><g opacity="1" transform="translate(392 148)  rotate(0 53 8)"><path id="Checkbox多选框/Normal" fill-rule="evenodd" style="fill:#FFFFFF" transform="translate(0 0)  rotate(0 8 8)" opacity="1" d="M4,16L12,16C14.21,16 16,14.21 16,12L16,4C16,1.79 14.21,0 12,0L4,0C1.79,0 0,1.79 0,4L0,12C0,14.21 1.79,16 4,16Z " /><rect  id="Checkbox多选框/Normal" style="stroke:#D5D6D9; stroke-width:1; stroke-opacity:1; stroke-dasharray:0 0" transform="translate(0 0)  rotate(0 8 8)" x="0.5" y="0.5" rx="3.5"  width="15" height="15" /><path id="矩形 2" fill-rule="evenodd" style="fill:#D5D6D9" transform="translate(26 2)  rotate(0 40 6)" opacity="1" d="M2,12L78,12C79.1,12 80,11.1 80,10L80,2C80,0.9 79.1,0 78,0L2,0C0.9,0 0,0.9 0,2L0,10C0,11.1 0.9,12 2,12Z " /></g><g opacity="1" transform="translate(392 188)  rotate(0 53 8)"><path id="Checkbox多选框/Normal" fill-rule="evenodd" style="fill:#FFFFFF" transform="translate(0 0)  rotate(0 8 8)" opacity="1" d="M4,16L12,16C14.21,16 16,14.21 16,12L16,4C16,1.79 14.21,0 12,0L4,0C1.79,0 0,1.79 0,4L0,12C0,14.21 1.79,16 4,16Z " /><rect  id="Checkbox多选框/Normal" style="stroke:#D5D6D9; stroke-width:1; stroke-opacity:1; stroke-dasharray:0 0" transform="translate(0 0)  rotate(0 8 8)" x="0.5" y="0.5" rx="3.5"  width="15" height="15" /><path id="矩形 2" fill-rule="evenodd" style="fill:#D5D6D9" transform="translate(26 2)  rotate(0 40 6)" opacity="1" d="M2,12L78,12C79.1,12 80,11.1 80,10L80,2C80,0.9 79.1,0 78,0L2,0C0.9,0 0,0.9 0,2L0,10C0,11.1 0.9,12 2,12Z " /></g><g opacity="1" transform="translate(392 228)  rotate(0 53 8)"><path id="Checkbox多选框/Normal" fill-rule="evenodd" style="fill:#FFFFFF" transform="translate(0 0)  rotate(0 8 8)" opacity="1" d="M4,16L12,16C14.21,16 16,14.21 16,12L16,4C16,1.79 14.21,0 12,0L4,0C1.79,0 0,1.79 0,4L0,12C0,14.21 1.79,16 4,16Z " /><rect  id="Checkbox多选框/Normal" style="stroke:#D5D6D9; stroke-width:1; stroke-opacity:1; stroke-dasharray:0 0" transform="translate(0 0)  rotate(0 8 8)" x="0.5" y="0.5" rx="3.5"  width="15" height="15" /><path id="矩形 2" fill-rule="evenodd" style="fill:#D5D6D9" transform="translate(26 2)  rotate(0 40 6)" opacity="1" d="M2,12L78,12C79.1,12 80,11.1 80,10L80,2C80,0.9 79.1,0 78,0L2,0C0.9,0 0,0.9 0,2L0,10C0,11.1 0.9,12 2,12Z " /></g><path id="矩形 2" fill-rule="evenodd" style="fill:#D5D6D9" transform="translate(31 46)  rotate(0 40 6)" opacity="1" d="M2,12L78,12C79.1,12 80,11.1 80,10L80,2C80,0.9 79.1,0 78,0L2,0C0.9,0 0,0.9 0,2L0,10C0,11.1 0.9,12 2,12Z " /><path id="矩形 2" fill-rule="evenodd" style="fill:#D5D6D9" transform="translate(31 166)  rotate(0 40 6)" opacity="1" d="M2,12L78,12C79.1,12 80,11.1 80,10L80,2C80,0.9 79.1,0 78,0L2,0C0.9,0 0,0.9 0,2L0,10C0,11.1 0.9,12 2,12Z " /><g opacity="1" transform="translate(0 70)  rotate(0 86.5 22)"><path id="矩形 6" fill-rule="evenodd" style="fill:#F0F4FA" transform="translate(0 0)  rotate(0 86.5 22)" opacity="1" d="M0,44L173,44L173,0L0,0L0,44Z " /><g opacity="1" transform="translate(54 11)  rotate(0 28 11)"><text><tspan x="0" y="16" font-size="14" line-height="22" fill="#2877ff" opacity="1" font-family="PingFang SC Regular" letter-spacing="0" >权限管理</tspan></text></g><g opacity="1" transform="translate(30 14)  rotate(0 8 8)"><mask id="bg-mask-1" fill="white"><use xlink:href="#path_1"></use></mask><g mask="url(#bg-mask-1)" ><path id="分组 1" fill-rule="evenodd" style="fill:#2877ff" transform="translate(2.21875 0.8124999999999991)  rotate(0 5.779721108482774 7.18828125)" opacity="1" d="M5.78 14.38C5.85 14.38 5.92 14.35 5.98 14.31L11.36 10.12C11.47 10.03 11.56 9.85 11.56 9.71L11.56 2.17C11.56 2.04 11.46 1.89 11.33 1.84L6.02 0.03C5.95 0.01 5.87 0 5.78 0C5.7 0 5.61 0.01 5.55 0.03L0.24 1.84C0.11 1.89 0 2.04 0 2.17L0 9.71C0 9.85 0.09 10.03 0.2 10.12L5.58 14.31C5.64 14.35 5.71 14.38 5.78 14.38Z M10.435 2.73219L5.785 1.14219L1.125 2.73219L1.125 9.41219L5.785 13.0422L10.435 9.41219L10.435 2.73219Z " /><path id="路径 3" fill-rule="evenodd" style="fill:#2877ff" transform="translate(5.124802103607971 5.125)  rotate(0 2.875197896392031 2.4375)" opacity="1" d="M1.19,1.96C1.14,1.89 1.07,1.85 0.99,1.85L0.13,1.85C0.02,1.85 -0.04,1.97 0.02,2.05L2,4.77C2.1,4.91 2.3,4.91 2.4,4.77L5.73,0.2C5.79,0.12 5.73,0 5.63,0L4.76,0C4.68,0 4.61,0.04 4.56,0.1L2.2,3.35L1.19,1.96Z " /></g></g><path id="矩形 7" fill-rule="evenodd" style="fill:#2877ff" transform="translate(169 0)  rotate(0 1.5 22)" opacity="1" d="M0,44L3,44L3,0L0,0L0,44Z " /></g></g></g></g></svg>