<svg xmlns="http://www.w3.org/2000/svg" fill="none" viewBox="0 0 20 20"><g clip-path="url(#a)"><path fill="#969799" d="M10 1.75a4.083 4.083 0 0 0-4.084 4.083v.917H5a2.417 2.417 0 0 0-2.417 2.417v6.666A2.417 2.417 0 0 0 5 18.25h10a2.417 2.417 0 0 0 2.416-2.417V9.167A2.417 2.417 0 0 0 15 6.75h-.917v-.917A4.083 4.083 0 0 0 10 1.75Zm3.334 6.5H5a.917.917 0 0 0-.917.917v6.666c0 .507.41.917.917.917h10c.506 0 .916-.41.916-.917V9.167A.917.917 0 0 0 15 8.25h-1.666Zm-.751-1.5v-.917a2.583 2.583 0 0 0-5.167 0v.917h5.167Z" clip-rule="evenodd" fill-rule="evenodd"/></g><defs><clipPath id="a"><path fill="#fff" d="M0 0h20v20H0z"/></clipPath></defs></svg>