<svg width="20" height="20" viewBox="0 0 20 20" fill="none" xmlns="http://www.w3.org/2000/svg">
<path fill-rule="evenodd" clip-rule="evenodd" d="M8.65851 2.68603L4.01365 4.58732C3.86075 4.64887 3.68084 4.79376 3.53617 5.00896C3.39138 5.22435 3.3252 5.44577 3.3252 5.60824V9.26659C3.3252 12.9918 6.04593 16.521 9.77345 17.5516C9.91871 17.591 10.0817 17.591 10.2269 17.5516C13.9545 16.521 16.6752 12.9918 16.6752 9.26659L16.6752 9.26488L16.6835 5.60824C16.6834 5.44851 16.6169 5.22726 16.4704 5.01039C16.3238 4.79335 16.1424 4.6474 15.9919 4.58603L11.3502 2.68603C10.4904 2.33532 9.51835 2.33535 8.65851 2.68603ZM8.09186 1.29718C9.31515 0.798077 10.6936 0.798077 11.9169 1.29718L16.5585 3.19712C17.0411 3.39413 17.4392 3.76492 17.7133 4.17067C17.9874 4.57641 18.1835 5.08469 18.1835 5.60824L18.1835 5.60995L18.1752 9.26659C18.1748 13.6905 14.9797 17.7947 10.6249 18.9978L10.6225 18.9985C10.2183 19.1087 9.78205 19.1087 9.37785 18.9985L9.37546 18.9978C5.0204 17.7946 1.8252 13.6909 1.8252 9.26659V5.60824C1.8252 5.08738 2.01735 4.57963 2.29131 4.1721C2.56499 3.765 2.96345 3.39375 3.45121 3.19674L8.09186 1.29718ZM10.0002 7.83325C9.4939 7.83325 9.0835 8.24366 9.0835 8.74992C9.0835 9.25338 9.48937 9.66204 9.99176 9.66655C9.9945 9.66652 9.99725 9.6665 10 9.6665C10.0028 9.6665 10.0056 9.66652 10.0084 9.66655C10.5109 9.66213 10.9168 9.25344 10.9168 8.74992C10.9168 8.24366 10.5064 7.83325 10.0002 7.83325ZM10.75 11.048C11.7176 10.7325 12.4168 9.82286 12.4168 8.74992C12.4168 7.41523 11.3349 6.33325 10.0002 6.33325C8.66547 6.33325 7.5835 7.41523 7.5835 8.74992C7.5835 9.82274 8.28255 10.7323 9.25 11.0479V12.9165C9.25 13.3307 9.58579 13.6665 10 13.6665C10.4142 13.6665 10.75 13.3307 10.75 12.9165V11.048Z" fill="#969799"/>
</svg>
