<svg width="32" height="32" viewBox="0 0 32 32" fill="none" xmlns="http://www.w3.org/2000/svg">
<path d="M6.46875 9.96179C6.46875 8.79585 7.74071 8.07568 8.74049 8.67555L18.2405 14.3755C18.6923 14.6466 18.9688 15.1349 18.9688 15.6618V25.9132C18.9688 27.0792 17.6968 27.7993 16.697 27.1994L7.19701 21.4994C6.7452 21.2284 6.46875 20.7401 6.46875 20.2132V9.96179Z" fill="#2877FF"/>
<path opacity="0.6" fill-rule="evenodd" clip-rule="evenodd" d="M25.5312 11.7868C25.5312 11.2599 25.2548 10.7716 24.803 10.5005L15.303 4.80055C14.3032 4.20068 13.0312 4.92085 13.0312 6.08679V8.90072C13.0312 9.42761 13.3077 9.91587 13.7595 10.1869L19.4905 13.6255C19.9423 13.8966 20.2188 14.3849 20.2188 14.9118V20.6507C20.2188 21.1776 20.4952 21.6659 20.947 21.9369L23.2595 23.3244C24.2593 23.9243 25.5312 23.2041 25.5312 22.0382V11.7868Z" fill="#2877FF"/>
</svg>
