<svg xmlns="http://www.w3.org/2000/svg" xmlns:xlink="http://www.w3.org/1999/xlink" width="80" height="96" viewBox="0 0 80 96" fill="none"><defs><rect id="path_0" x="0" y="0" width="80" height="96" /><rect id="path_1" x="0" y="0" width="48" height="48" /></defs><g opacity="1" transform="translate(0 0)  rotate(0 40 48)"><mask id="bg-mask-0" fill="white"><use xlink:href="#path_0"></use></mask><g mask="url(#bg-mask-0)" ><path id="文本 1" fill-rule="evenodd" style="fill:#333333" transform="translate(16.041999999999916 73.66199999999981)  rotate(0 23.508999999999997 4.669)" opacity="1" d="M0 9.34L2.32 9.34L3.23 7.18L6.78 7.18L7.69 9.34L10.01 9.34L6.15 0L3.86 0L0 9.34ZM16.45 5.46L19.05 5.46L19.05 7.67L17.25 7.67C17.25 7.67 16.56 7.67 16.09 7.53C16.09 7.53 15.62 7.39 15.36 7.08C15.36 7.08 15.05 6.75 14.87 6.06C14.87 6.06 14.7 5.38 14.7 4.52C14.7 4.52 14.7 2.86 15.37 2.21C15.37 2.21 15.93 1.67 17.18 1.67L21.03 1.67L21.03 0L16.95 0C16.95 0 15.52 0 14.63 0.41C14.63 0.41 13.73 0.81 13.21 1.69C13.21 1.69 12.51 2.9 12.51 4.7C12.51 4.7 12.51 7.48 13.98 8.61C13.98 8.61 14.5 9.02 15.14 9.18C15.14 9.18 15.78 9.34 16.85 9.34L21.03 9.34L21.03 3.79L16.45 3.79L16.45 5.46ZM26.68 0L26.68 9.34L24.69 9.34L24.69 0L26.68 0ZM32.43 5.25L32.43 0L30.46 0L30.46 5.25C30.46 5.25 30.46 6.62 30.61 7.21C30.61 7.21 31.03 8.72 32.57 9.17C32.57 9.17 33.24 9.34 34.74 9.34L36.86 9.34L36.86 7.67L34.95 7.67C34.95 7.67 33.65 7.67 33.13 7.44C33.13 7.44 32.61 7.21 32.52 6.57C32.52 6.57 32.47 6.24 32.43 5.25ZM44.53 7.67L47.02 7.67L47.02 9.34L44.43 9.34C43.38 9.34 42.58 9.21 42.58 9.21C41.32 9 40.58 8.11 40.58 8.11C39.51 6.82 39.51 4.62 39.51 4.62C39.51 2.18 41.01 0.83 41.01 0.83C41.53 0.36 42.11 0.18 42.11 0.18C42.69 0 43.67 0 43.67 0L47.02 0L47.02 1.67L44.43 1.67C43.42 1.67 42.96 1.81 42.96 1.81C42.5 1.95 42.19 2.35 42.19 2.35C41.98 2.63 41.9 2.91 41.9 2.91C41.82 3.19 41.77 3.86 41.77 3.86L47.02 3.86L47.02 5.53L41.77 5.53C41.88 6.73 42.48 7.2 42.48 7.2C43.08 7.67 44.53 7.67 44.53 7.67ZM5.01 2.25L6.34 5.52L3.68 5.52L5.01 2.25Z" /><g opacity="1" transform="translate(16 16)  rotate(0 24 24)"><mask id="bg-mask-1" fill="white"><use xlink:href="#path_1"></use></mask><g mask="url(#bg-mask-1)" ><path id="矩形备份-6" fill-rule="evenodd" style="fill:#2877FF" transform="translate(9 10.26)  rotate(0 9.7286812734375 16.89679065234375)" opacity="1" d="M0,0L0,22.67L19.46,33.79L19.46,11.12L0,0Z " /><path id="形状结合" fill-rule="evenodd" style="fill:#2877FF" transform="translate(18.66 4)  rotate(0 9.73828125 16.91015625)" opacity="0.604400635" d="M0,10.18L11.39,16.69L11.39,29.2L19.48,33.82L19.48,11.13L0,0L0,10.18Z " /></g></g></g></g></svg>