<svg width="24" height="24" viewBox="0 0 24 24" fill="none" xmlns="http://www.w3.org/2000/svg">
<g clip-path="url(#clip0_3144_251962)">
<path fill-rule="evenodd" clip-rule="evenodd" d="M11.9989 0C18.6257 0 23.9978 5.37201 23.9978 11.9989C23.9978 18.6258 18.6258 23.9978 11.9989 23.9978C5.37201 23.9978 0 18.6257 0 11.9989C0 5.37216 5.37201 0 11.9989 0Z" fill="black"/>
<path fill-rule="evenodd" clip-rule="evenodd" d="M10.3436 8.00606H13.6519C14.0818 8.00606 14.4303 8.3546 14.4303 8.78438V19.0972C14.4303 19.1114 12.0085 22.8429 12.0085 22.8429C12.0085 22.8429 9.56532 19.3093 9.56532 19.0972V8.78438C9.56532 8.3546 9.91386 8.00606 10.3438 8.00606H10.3436ZM11.9978 1.22852C13.538 1.22852 14.7865 2.47703 14.7865 4.01699C14.7865 5.55695 13.538 6.80545 11.9978 6.80545C10.4575 6.80545 9.20898 5.55695 9.20898 4.01699C9.20898 2.47703 10.4575 1.22852 11.9978 1.22852Z" fill="white"/>
</g>
<defs>
<clipPath id="clip0_3144_251962">
<rect width="24" height="24" fill="white"/>
</clipPath>
</defs>
</svg>
