<svg width="32" height="32" viewBox="0 0 32 32" fill="none" xmlns="http://www.w3.org/2000/svg">
<g clip-path="url(#clip0_3139_145634)">
<path fill-rule="evenodd" clip-rule="evenodd" d="M15.9985 0C24.8342 0 31.9971 7.16268 31.9971 15.9985C31.9971 24.8344 24.8344 31.9971 15.9985 31.9971C7.16268 31.9971 0 24.8342 0 15.9985C0 7.16288 7.16268 0 15.9985 0Z" fill="black"/>
<path fill-rule="evenodd" clip-rule="evenodd" d="M13.7922 10.6749H18.2031C18.7764 10.6749 19.2411 11.1396 19.2411 11.7127V25.4631C19.2411 25.482 16.012 30.4573 16.012 30.4573C16.012 30.4573 12.7544 25.7459 12.7544 25.4631V11.7127C12.7544 11.1396 13.2191 10.6749 13.7924 10.6749H13.7922ZM15.9977 1.63818C18.0514 1.63818 19.716 3.30287 19.716 5.35615C19.716 7.40943 18.0514 9.0741 15.9977 9.0741C13.944 9.0741 12.2793 7.40943 12.2793 5.35615C12.2793 3.30287 13.944 1.63818 15.9977 1.63818Z" fill="white"/>
</g>
<defs>
<clipPath id="clip0_3139_145634">
<rect width="32" height="32" fill="white"/>
</clipPath>
</defs>
</svg>
