<svg width="50" height="22" viewBox="0 0 50 22" fill="none" xmlns="http://www.w3.org/2000/svg">
<path d="M0.0479736 17L4.46397 6.328H7.07197L11.488 17H8.83197L7.79197 14.536H3.74397L2.70397 17H0.0479736ZM5.77597 8.904L4.25597 12.632H7.29597L5.77597 8.904Z" fill="#323233"/>
<path d="M17.5548 10.664H22.7868V17H18.0188C17.1975 17 16.5415 16.9413 16.0508 16.824C15.5708 16.696 15.1335 16.4773 14.7388 16.168C13.6188 15.304 13.0588 13.816 13.0588 11.704C13.0588 10.328 13.3255 9.18134 13.8588 8.264C14.2535 7.592 14.7922 7.10134 15.4748 6.792C16.1575 6.48267 17.0428 6.328 18.1308 6.328H22.7868V8.232H18.3868C17.4375 8.232 16.7495 8.44 16.3228 8.856C15.8108 9.34667 15.5548 10.2267 15.5548 11.496C15.5548 12.1467 15.6188 12.7333 15.7468 13.256C15.8855 13.7787 16.0722 14.168 16.3068 14.424C16.5095 14.6587 16.7868 14.8293 17.1388 14.936C17.5015 15.0427 17.9442 15.096 18.4668 15.096H20.5308V12.568H17.5548V10.664Z" fill="#323233"/>
<path d="M25.6973 17V6.328H27.9693V17H25.6973Z" fill="#323233"/>
<path d="M31.0068 6.328H33.2628V12.328C33.2948 13.0853 33.3268 13.5867 33.3588 13.832C33.4335 14.3227 33.6682 14.6587 34.0628 14.84C34.4575 15.0107 35.1508 15.096 36.1428 15.096H38.3188V17H35.9028C34.7615 17 33.9348 16.936 33.4228 16.808C32.2495 16.4667 31.5028 15.72 31.1828 14.568C31.0655 14.12 31.0068 13.3733 31.0068 12.328V6.328Z" fill="#323233"/>
<path d="M48.6505 6.328V8.232H45.6905C44.9225 8.232 44.3625 8.28534 44.0105 8.392C43.6585 8.49867 43.3651 8.70667 43.1305 9.016C42.9705 9.22934 42.8585 9.44267 42.7945 9.656C42.7411 9.86934 42.6931 10.232 42.6505 10.744H48.6505V12.648H42.6505C42.7358 13.5653 43.0078 14.2053 43.4665 14.568C43.9251 14.92 44.7038 15.096 45.8025 15.096H48.6505V17H45.6905C44.8905 17 44.1865 16.952 43.5785 16.856C42.6185 16.696 41.8558 16.2747 41.2905 15.592C40.4798 14.6107 40.0745 13.2827 40.0745 11.608C40.0745 9.752 40.6451 8.30667 41.7865 7.272C42.1811 6.92 42.5971 6.67467 43.0345 6.536C43.4825 6.39734 44.0798 6.328 44.8265 6.328H48.6505Z" fill="#323233"/>
</svg>
