<svg width="42" height="16" viewBox="0 0 42 16" fill="none" xmlns="http://www.w3.org/2000/svg">
<path opacity="0.1" d="M42 14C42 15.1046 41.1046 16 40 16L6.75168 16C6.10631 16 5.5006 15.6886 5.12509 15.1637L0.832543 9.1637C0.334663 8.46778 0.334662 7.53222 0.832542 6.8363L5.12509 0.836298C5.5006 0.311422 6.10631 0 6.75168 0L40 0C41.1046 0 42 0.895431 42 2V14Z" fill="#FA9746"/>
<path d="M11.5 4.0602C11.2133 4.46686 10.83 4.93353 10.35 5.4602C9.87 5.98686 9.41 6.44353 8.97 6.8302L8.57 5.8802C8.93667 5.57353 9.33333 5.18353 9.76 4.7102C10.1867 4.23686 10.5167 3.8202 10.75 3.4602L11.5 4.0602ZM17.44 7.5902H16.1V8.5302H17.31V9.4202H16.1V11.3802C16.1 11.7002 16.0567 11.9469 15.97 12.1202C15.8833 12.2935 15.7333 12.4135 15.52 12.4802C15.3133 12.5535 15.0133 12.5902 14.62 12.5902H13.53L13.35 11.6602H14.4C14.6133 11.6602 14.77 11.6435 14.87 11.6102C14.9767 11.5702 15.05 11.5069 15.09 11.4202C15.13 11.3335 15.15 11.2002 15.15 11.0202V9.4202H11.5V8.5302H15.15V7.5902H11.34V6.6902H13.81V5.6202H11.84V4.7302H13.81V3.57019H14.78V4.7302H16.99V5.6202H14.78V6.6902H17.44V7.5902ZM11.43 6.4502C11.1967 6.8902 10.9233 7.33353 10.61 7.7802V12.6702H9.71V8.9802C9.43 9.31353 9.14 9.62353 8.84 9.9102L8.5 8.8602C8.85333 8.5402 9.22667 8.11353 9.62 7.5802C10.0133 7.0402 10.3633 6.5002 10.67 5.9602L11.43 6.4502ZM12.48 9.4802C12.6667 9.6602 13.1067 10.1235 13.8 10.8702L13.12 11.5602C12.9467 11.3535 12.7233 11.1002 12.45 10.8002C12.1767 10.5002 11.9633 10.2735 11.81 10.1202L12.48 9.4802Z" fill="#FA9746"/>
<path d="M27.46 7.5902V8.5502H25.41V12.6302H24.4V8.5502H21.77C21.7367 9.21686 21.65 9.77686 21.51 10.2302C21.37 10.6769 21.15 11.0935 20.85 11.4802C20.5567 11.8669 20.13 12.3035 19.57 12.7902L18.81 12.0502C19.3167 11.6435 19.7033 11.2769 19.97 10.9502C20.2367 10.6235 20.4267 10.2802 20.54 9.9202C20.66 9.55353 20.7367 9.09686 20.77 8.5502H18.54V7.5902H20.79V7.5402V5.0302H18.96V4.1002H27.06V5.0302H25.41V7.5902H27.46ZM21.8 7.5902H24.4V5.0302H21.8V7.4402V7.5902Z" fill="#FA9746"/>
<path d="M35.89 5.2702C35.3567 4.9302 34.78 4.58353 34.16 4.2302L34.63 3.4502C35.21 3.77686 35.7867 4.11686 36.36 4.4702L35.89 5.2702ZM37.36 6.3502H32.38C32.2933 6.70353 32.1933 7.05686 32.08 7.4102H36.36V8.3002C36.1 8.78686 35.8267 9.2202 35.54 9.6002C35.26 9.97353 34.9433 10.3102 34.59 10.6102C35.3233 11.0435 36.2467 11.4069 37.36 11.7002L36.97 12.7102C35.6567 12.3169 34.5767 11.8302 33.73 11.2502C33.31 11.5169 32.8267 11.7702 32.28 12.0102C31.7333 12.2502 31.0867 12.4969 30.34 12.7502L29.92 11.8402C31.1467 11.4535 32.15 11.0435 32.93 10.6102C32.3767 10.0969 31.9133 9.4902 31.54 8.7902C31.2533 9.39686 30.9067 9.98686 30.5 10.5602C30.0933 11.1269 29.6 11.7169 29.02 12.3302L28.51 11.3502C29.21 10.6702 29.7933 9.92353 30.26 9.1102C30.7267 8.29686 31.1 7.37686 31.38 6.3502H29.01V5.5302L29.49 3.7102L30.46 3.90019L30.07 5.4602H31.59C31.7167 4.81353 31.8133 4.16353 31.88 3.5102L32.85 3.5902C32.7633 4.29686 32.67 4.9202 32.57 5.4602H37.36V6.3502ZM33.78 10.0502C34.42 9.56353 34.92 8.9802 35.28 8.3002H32.33C32.7167 8.99353 33.2 9.57686 33.78 10.0502Z" fill="#FA9746"/>
</svg>
