<svg width="117" height="24" viewBox="0 0 117 24" fill="none" xmlns="http://www.w3.org/2000/svg">
<g clip-path="url(#clip0_3144_251965)">
<path fill-rule="evenodd" clip-rule="evenodd" d="M11.9989 0C18.6257 0 23.9978 5.37201 23.9978 11.9989C23.9978 18.6258 18.6258 23.9978 11.9989 23.9978C5.37201 23.9978 0 18.6257 0 11.9989C0 5.37216 5.37201 0 11.9989 0Z" fill="black"/>
<path fill-rule="evenodd" clip-rule="evenodd" d="M10.3436 8.00606H13.6519C14.0818 8.00606 14.4303 8.3546 14.4303 8.78438V19.0972C14.4303 19.1114 12.0085 22.8429 12.0085 22.8429C12.0085 22.8429 9.56532 19.3093 9.56532 19.0972V8.78438C9.56532 8.3546 9.91386 8.00606 10.3438 8.00606H10.3436ZM11.9978 1.22852C13.538 1.22852 14.7865 2.47703 14.7865 4.01699C14.7865 5.55695 13.538 6.80545 11.9978 6.80545C10.4575 6.80545 9.20898 5.55695 9.20898 4.01699C9.20898 2.47703 10.4575 1.22852 11.9978 1.22852Z" fill="white"/>
</g>
<path d="M35.2646 18.9998H32.6406V6.55176H35.2646V18.9998Z" fill="#323233"/>
<path d="M46.3229 6.55176V8.67976H42.3709C41.9975 8.67976 41.6189 8.71709 41.2349 8.79176C40.8615 8.86642 40.5202 9.01576 40.2109 9.23976C39.9122 9.45309 39.6615 9.76242 39.4589 10.1678C39.2669 10.5731 39.1709 11.1011 39.1709 11.7518H46.1309V13.7998H39.1709V18.9998H36.5469V12.5358C36.5469 11.6611 36.6322 10.8611 36.8029 10.1358C36.9735 9.39976 37.2615 8.77042 37.6669 8.24776C38.0829 7.71442 38.6322 7.29842 39.3149 6.99976C39.9975 6.70109 40.8455 6.55176 41.8589 6.55176H46.3229Z" fill="#323233"/>
<path d="M47.4375 6.55176H50.0615V14.8878C50.0615 15.5918 50.3068 16.1411 50.7975 16.5358C51.2882 16.9304 51.9868 17.1278 52.8935 17.1278C53.7895 17.1278 54.4828 16.9304 54.9735 16.5358C55.4642 16.1411 55.7095 15.5918 55.7095 14.8878V6.55176H58.3335V14.9838C58.3335 15.6558 58.1948 16.2531 57.9175 16.7758C57.6402 17.2878 57.2562 17.7251 56.7655 18.0878C56.2855 18.4398 55.7148 18.7118 55.0535 18.9038C54.3922 19.0851 53.6722 19.1758 52.8935 19.1758C52.1148 19.1758 51.3895 19.0851 50.7175 18.9038C50.0562 18.7118 49.4802 18.4398 48.9895 18.0878C48.5095 17.7251 48.1308 17.2878 47.8535 16.7758C47.5762 16.2531 47.4375 15.6558 47.4375 14.9838V6.55176Z" fill="#323233"/>
<path d="M62.2334 18.9998H59.6094V6.55176H62.9534L67.9614 15.6558H68.0254V6.55176H70.6494V18.9998H67.3054L62.2974 9.87976H62.2334V18.9998Z" fill="#323233"/>
<path d="M77.2075 18.9998L82.4555 6.55176H85.1115L90.3595 18.9998H87.5595L86.3435 15.9758H81.2235L80.0075 18.9998H77.2075ZM83.7835 9.59176L82.0075 14.0238H85.5595L83.7835 9.59176Z" fill="#323233"/>
<path d="M99.6196 10.1038V18.9998C99.6196 19.6078 99.5343 20.1358 99.3636 20.5838C99.193 21.0318 98.9583 21.3998 98.6596 21.6878C98.3716 21.9758 98.0303 22.1891 97.6356 22.3278C97.241 22.4771 96.8196 22.5518 96.3716 22.5518H91.2516V20.7758H95.9076C96.3876 20.7758 96.7396 20.6531 96.9636 20.4078C97.1983 20.1731 97.3156 19.7038 97.3156 18.9998H94.5476C93.2036 18.9998 92.153 18.6264 91.3956 17.8798C90.649 17.1224 90.2756 16.0131 90.2756 14.5518C90.2756 13.0904 90.649 11.9864 91.3956 11.2398C92.153 10.4824 93.2036 10.1038 94.5476 10.1038H99.6196ZM97.3156 11.9758H94.8996C94.2276 11.9758 93.6943 12.2051 93.2996 12.6638C92.9156 13.1224 92.7236 13.7518 92.7236 14.5518C92.7236 15.3518 92.9156 15.9811 93.2996 16.4398C93.6943 16.8984 94.2276 17.1278 94.8996 17.1278H97.3156V11.9758Z" fill="#323233"/>
<path d="M103.37 18.9998H101.066V10.1038H103.37V18.9998ZM103.37 9.20776H101.066V7.07976H103.37V9.20776Z" fill="#323233"/>
<path d="M107.277 18.9998H104.973V6.55176H107.277V18.9998Z" fill="#323233"/>
<path d="M113.103 17.2238H116.399V18.9998H112.751C111.407 18.9998 110.356 18.6264 109.599 17.8798C108.852 17.1224 108.479 16.0131 108.479 14.5518C108.479 13.0904 108.852 11.9864 109.599 11.2398C110.356 10.4824 111.407 10.1038 112.751 10.1038H116.399V11.8798H113.103C112.825 11.8798 112.564 11.8958 112.319 11.9278C112.084 11.9491 111.871 12.0238 111.679 12.1518C111.497 12.2691 111.348 12.4451 111.231 12.6798C111.124 12.9144 111.055 13.2398 111.023 13.6558H116.207V15.4318H111.023C111.055 15.6771 111.092 15.9118 111.135 16.1358C111.177 16.3491 111.263 16.5358 111.391 16.6958C111.519 16.8558 111.716 16.9838 111.983 17.0798C112.249 17.1758 112.623 17.2238 113.103 17.2238Z" fill="#323233"/>
<defs>
<clipPath id="clip0_3144_251965">
<rect width="24" height="24" fill="white"/>
</clipPath>
</defs>
</svg>
