<svg width="24" height="24" viewBox="0 0 24 24" fill="none" xmlns="http://www.w3.org/2000/svg">
<g clip-path="url(#clip0_2576_258937)">
<path d="M1.68011 13.2534C0.959317 12.5326 0.959317 11.3639 1.68011 10.6431L3.35811 8.96514L15.2905 20.8976L13.6125 22.5756C12.8917 23.2964 11.7231 23.2964 11.0023 22.5756L1.68011 13.2534Z" fill="url(#paint0_linear_2576_258937)"/>
<path d="M13.5951 22.5753C12.8744 23.2961 11.7057 23.2961 10.9849 22.5753L9.30693 20.8973L21.2394 8.96484L22.9174 10.6428C23.6381 11.3636 23.6381 12.5323 22.9174 13.2531L13.5951 22.5753Z" fill="url(#paint1_linear_2576_258937)"/>
<path d="M9.32451 2.98311C10.972 1.33558 13.6432 1.33558 15.2907 2.98311V2.98311L3.3583 14.9155L1.6803 13.2375C0.959508 12.5167 0.959508 11.3481 1.6803 10.6273L9.32451 2.98311Z" fill="url(#paint2_linear_2576_258937)"/>
<path d="M22.9429 10.6519C23.6637 11.3727 23.6637 12.5413 22.9429 13.2621L21.2649 14.9401L13.788 7.46324L15.466 5.78525C16.1868 5.06445 17.3555 5.06445 18.0763 5.78525L22.9429 10.6519Z" fill="url(#paint3_linear_2576_258937)"/>
<path d="M15.4498 5.75433C16.1706 5.03354 17.3392 5.03354 18.06 5.75433L19.738 7.43233L14.6497 12.5206C13.9289 13.2414 12.7603 13.2414 12.0395 12.5206L10.3615 10.8426L15.4498 5.75433Z" fill="url(#paint4_linear_2576_258937)"/>
</g>
<defs>
<linearGradient id="paint0_linear_2576_258937" x1="2.75036" y1="11.6532" x2="11.9669" y2="20.8697" gradientUnits="userSpaceOnUse">
<stop stop-color="#4AA6FA" stop-opacity="0.65"/>
<stop offset="1" stop-color="#247DEF"/>
</linearGradient>
<linearGradient id="paint1_linear_2576_258937" x1="23.0014" y1="10.415" x2="16.0881" y2="7.88025" gradientUnits="userSpaceOnUse">
<stop stop-color="#5370F3" stop-opacity="0.53"/>
<stop offset="1" stop-color="#5370F3" stop-opacity="0.9"/>
</linearGradient>
<linearGradient id="paint2_linear_2576_258937" x1="10.0237" y1="5.26705" x2="1.86674" y2="13.424" gradientUnits="userSpaceOnUse">
<stop stop-color="#11BAE3" stop-opacity="0.65"/>
<stop offset="1" stop-color="#A6EDFF" stop-opacity="0.9"/>
</linearGradient>
<linearGradient id="paint3_linear_2576_258937" x1="22.7636" y1="13.4415" x2="16.9127" y2="14.5497" gradientUnits="userSpaceOnUse">
<stop stop-color="#FC6698" stop-opacity="0.85"/>
<stop offset="1" stop-color="#FFA29F" stop-opacity="0.93"/>
</linearGradient>
<linearGradient id="paint4_linear_2576_258937" x1="11.3196" y1="10.8033" x2="16.2996" y2="13.0284" gradientUnits="userSpaceOnUse">
<stop stop-color="#3590FD"/>
<stop offset="1" stop-color="#88E7FF"/>
</linearGradient>
<clipPath id="clip0_2576_258937">
<rect width="24" height="24" rx="6.75" fill="white"/>
</clipPath>
</defs>
</svg>
