<svg width="24" height="24" viewBox="0 0 24 24" fill="none" xmlns="http://www.w3.org/2000/svg">
<path d="M2.31641 5.86759C2.31641 4.68343 3.60824 3.95201 4.62365 4.56125L14.2721 10.3503C14.731 10.6256 15.0117 11.1215 15.0117 11.6566V22.0683C15.0117 23.2524 13.7199 23.9838 12.7045 23.3746L3.05604 17.5855C2.59717 17.3102 2.31641 16.8143 2.31641 16.2792V5.86759Z" fill="#6688FF"/>
<path fill-rule="evenodd" clip-rule="evenodd" d="M21.6836 7.7211C21.6836 7.18598 21.4028 6.69009 20.944 6.41477L11.2955 0.625704C10.2801 0.0164585 8.98828 0.747881 8.98828 1.93204V4.78994C8.98828 5.32506 9.26905 5.82095 9.72792 6.09627L15.5484 9.58859C16.0073 9.86392 16.2881 10.3598 16.2881 10.8949V16.7235C16.2881 17.2587 16.5689 17.7545 17.0277 18.0299L19.3764 19.439C20.3918 20.0483 21.6836 19.3169 21.6836 18.1327V7.7211Z" fill="#94ACFF"/>
</svg>
