<svg xmlns="http://www.w3.org/2000/svg" fill="none" viewBox="0 0 20 20"><path fill="#969799" d="M10 5.75c-2.503 0-4.801 1.833-6.212 3.29-.39.403-.45.48-.508.668-.012.036-.03.142-.03.292s.018.256.03.292c.059.189.117.265.508.669 1.41 1.456 3.71 3.289 6.212 3.289 2.503 0 4.801-1.833 6.212-3.29.39-.403.45-.48.508-.668.012-.036.03-.142.03-.292s-.018-.256-.03-.292c-.059-.189-.117-.265-.508-.669C14.802 7.583 12.502 5.75 10 5.75ZM2.71 7.996C4.157 6.504 6.838 4.25 10 4.25c3.163 0 5.844 2.254 7.29 3.746l.041.043c.346.356.647.667.82 1.22.075.236.099.51.099.741 0 .231-.024.505-.099.742-.173.552-.474.863-.82 1.219l-.042.043C15.844 13.496 13.163 15.75 10 15.75c-3.163 0-5.844-2.254-7.29-3.746l-.041-.043c-.345-.356-.647-.666-.82-1.22A2.572 2.572 0 0 1 1.75 10c0-.231.024-.505.099-.742.173-.553.475-.863.82-1.22l.042-.042.52.504-.52-.504ZM10 9.083c-.446 0-.855.384-.855.917s.41.917.855.917.855-.384.855-.917-.41-.917-.855-.917ZM7.645 10c0-1.308 1.028-2.417 2.355-2.417s2.355 1.11 2.355 2.417c0 1.308-1.028 2.417-2.355 2.417S7.645 11.307 7.645 10Z" clip-rule="evenodd" fill-rule="evenodd" data-follow-fill="#969799"/></svg>