<svg width="20" height="20" viewBox="0 0 20 20" fill="none" xmlns="http://www.w3.org/2000/svg">
<path fill-rule="evenodd" clip-rule="evenodd" d="M9.99987 2.3501C6.74023 2.3501 3.78495 4.27203 1.7757 7.4304C1.3055 8.1673 1.0957 9.10438 1.0957 9.99593C1.0957 10.8873 1.30541 11.8241 1.77538 12.561C3.78464 15.7196 6.74006 17.6418 9.99987 17.6418C13.2593 17.6418 16.2145 15.72 18.2237 12.562C18.6941 11.825 18.904 10.8877 18.904 9.99593C18.904 9.10458 18.6943 8.16772 18.2244 7.43089L16.4016 7.43083C16.4014 7.43054 16.4012 7.43025 16.401 7.42996L18.2237 7.4299C16.2145 4.27183 13.2593 2.3501 9.99987 2.3501ZM12.7095 7.43007L16.401 7.42996C14.6495 5.10377 12.3635 3.8501 9.99987 3.8501C7.63612 3.8501 5.34998 5.10391 3.59849 7.43034L1.7757 7.4304L3.59841 7.43045C3.40596 7.68609 3.21996 7.95468 3.04102 8.23597L3.04039 8.23696C2.76081 8.67497 2.5957 9.31268 2.5957 9.99593C2.5957 10.6792 2.76081 11.3169 3.04039 11.7549L3.04102 11.7559C4.84843 14.5972 7.37635 16.1418 9.99987 16.1418C12.6234 16.1418 15.1513 14.5972 16.9587 11.7559L16.9593 11.7549C17.2389 11.3169 17.404 10.6792 17.404 9.99593C17.404 9.31268 17.2389 8.67497 16.9593 8.23696L16.9587 8.23597C16.7799 7.95482 16.594 7.68636 16.4016 7.43083L12.7101 7.43072C13.3445 8.09969 13.7333 9.00392 13.7333 10.0002C13.7333 12.0644 12.0641 13.7335 9.99994 13.7335C7.93572 13.7335 6.2666 12.0644 6.2666 10.0002C6.2666 9.00384 6.65546 8.09954 7.28992 7.43056L3.59841 7.43045C3.59844 7.43041 3.59847 7.43038 3.59849 7.43034L7.29023 7.43023C7.97022 6.71341 8.93223 6.26685 9.99994 6.26685C11.0676 6.26685 12.0295 6.71334 12.7095 7.43007ZM7.7666 10.0002C7.7666 8.76439 8.76415 7.76685 9.99994 7.76685C11.2357 7.76685 12.2333 8.76439 12.2333 10.0002C12.2333 11.236 11.2357 12.2335 9.99994 12.2335C8.76415 12.2335 7.7666 11.236 7.7666 10.0002Z" fill="#969799"/>
</svg>
