<svg width="20" height="20" viewBox="0 0 20 20" fill="none" xmlns="http://www.w3.org/2000/svg">
<path fill-rule="evenodd" clip-rule="evenodd" d="M2.4165 6.66675C2.4165 5.11569 2.80376 4.09015 3.44683 3.44708C4.08991 2.804 5.11545 2.41675 6.6665 2.41675H13.3332C14.8842 2.41675 15.9098 2.804 16.5528 3.44708C17.1959 4.09015 17.5832 5.11569 17.5832 6.66675V10.8334C17.5832 12.3845 17.1959 13.41 16.5528 14.0531C15.9098 14.6962 14.8842 15.0834 13.3332 15.0834H12.9165C12.4202 15.0834 11.9507 15.3208 11.6527 15.7129L11.6498 15.7167L10.3998 17.3834C10.2457 17.589 10.0936 17.6334 9.99984 17.6334C9.90605 17.6334 9.754 17.589 9.59984 17.3834L8.35237 15.7201C8.19283 15.5033 7.9733 15.3532 7.78399 15.2594C7.59197 15.1642 7.34349 15.0834 7.08317 15.0834H6.6665C5.0131 15.0834 4.0187 14.8638 3.41038 14.3315C2.82684 13.8209 2.4165 12.8521 2.4165 10.8334V6.66675ZM6.6665 0.916748C4.88423 0.916748 3.40977 1.36282 2.38617 2.38642C1.36258 3.41001 0.916504 4.88447 0.916504 6.66675V10.8334C0.916504 12.9814 1.3395 14.5126 2.42263 15.4603C3.48097 16.3864 4.98658 16.5834 6.6665 16.5834H7.0666L7.06783 16.5837C7.0799 16.587 7.0978 16.5934 7.11777 16.6033C7.13565 16.6122 7.14923 16.6209 7.15752 16.627L8.39984 18.2834C8.79567 18.8112 9.36862 19.1334 9.99984 19.1334C10.6311 19.1334 11.204 18.8112 11.5998 18.2834L12.847 16.6206L12.8477 16.6196C12.8664 16.5957 12.8964 16.5834 12.9165 16.5834H13.3332C15.1154 16.5834 16.5899 16.1373 17.6135 15.1137C18.6371 14.0902 19.0832 12.6157 19.0832 10.8334V6.66675C19.0832 4.88447 18.6371 3.41001 17.6135 2.38642C16.5899 1.36282 15.1154 0.916748 13.3332 0.916748H6.6665ZM13.3306 8.16675C12.7783 8.16675 12.3306 8.61446 12.3306 9.16675C12.3306 9.71903 12.7783 10.1667 13.3306 10.1667H13.3381C13.8903 10.1667 14.3381 9.71903 14.3381 9.16675C14.3381 8.61446 13.8903 8.16675 13.3381 8.16675H13.3306ZM8.99609 9.16675C8.99609 8.61446 9.44381 8.16675 9.99609 8.16675H10.0036C10.5559 8.16675 11.0036 8.61446 11.0036 9.16675C11.0036 9.71903 10.5559 10.1667 10.0036 10.1667H9.99609C9.44381 10.1667 8.99609 9.71903 8.99609 9.16675ZM6.66211 8.16675C6.10982 8.16675 5.66211 8.61446 5.66211 9.16675C5.66211 9.71903 6.10982 10.1667 6.66211 10.1667H6.66959C7.22188 10.1667 7.66959 9.71903 7.66959 9.16675C7.66959 8.61446 7.22188 8.16675 6.66959 8.16675H6.66211Z" fill="#969799"/>
</svg>
