<svg xmlns="http://www.w3.org/2000/svg" fill="none" viewBox="0 0 20 20"><path fill="#969799" d="M14.863 2.584H5.137c-.441 0-.817 0-1.126.025-.324.027-.64.085-.942.238a2.416 2.416 0 0 0-1.056 1.057c-.153.301-.211.617-.238.94-.025.31-.025.686-.025 1.127v9.623c0 .415 0 .776.026 1.061.025.279.084.637.32.933.3.377.757.596 1.239.595.378 0 .695-.178.928-.332.239-.158.522-.384.846-.643l1.296-1.037c.294-.236.362-.286.43-.32a.913.913 0 0 1 .232-.082c.074-.015.158-.018.535-.018h7.26c.442 0 .818 0 1.127-.026.324-.026.64-.084.941-.238.455-.231.825-.6 1.057-1.056.154-.301.212-.617.238-.941.025-.309.025-.684.025-1.124V5.969c0-.44 0-.816-.025-1.124-.027-.324-.085-.64-.238-.941a2.418 2.418 0 0 0-1.057-1.057c-.301-.153-.617-.211-.94-.238-.31-.025-.685-.025-1.127-.025ZM3.75 4.184c.055-.028.151-.06.383-.08.24-.02.555-.02 1.034-.02h9.666c.48 0 .794 0 1.034.02.231.02.327.052.382.08a.918.918 0 0 1 .401.4c.028.055.061.151.08.383.02.24.02.554.02 1.034v6.333c0 .48 0 .793-.02 1.034-.019.231-.052.327-.08.382a.917.917 0 0 1-.4.4c-.056.029-.152.061-.383.08-.24.02-.555.02-1.034.02H7.546c-.292 0-.538 0-.78.05-.214.044-.42.116-.614.215-.22.113-.413.267-.64.45l-.044.034-1.27 1.016c-.359.287-.587.469-.762.584a1.265 1.265 0 0 1-.132.079.081.081 0 0 1-.013-.006 1.245 1.245 0 0 1-.021-.152c-.02-.209-.02-.501-.02-.96V6c0-.478 0-.793.02-1.033.02-.231.052-.328.08-.382a.916.916 0 0 1 .4-.401ZM5 9.167a1.25 1.25 0 1 0 2.5 0 1.25 1.25 0 0 0-2.5 0Zm3.75 0a1.25 1.25 0 1 0 2.5 0 1.25 1.25 0 0 0-2.5 0Zm3.75 0a1.25 1.25 0 1 0 2.5 0 1.25 1.25 0 0 0-2.5 0Z" clip-rule="evenodd" fill-rule="evenodd" data-follow-fill="#969799"/></svg>