<svg width="56" height="56" viewBox="0 0 56 56" fill="none" xmlns="http://www.w3.org/2000/svg">
<path fill-rule="evenodd" clip-rule="evenodd" d="M27.9982 8C39.0428 8 47.9964 16.9533 47.9964 27.9982C47.9964 39.043 39.043 47.9964 27.9982 47.9964C16.9533 47.9964 8 39.0428 8 27.9982C8 16.9536 16.9533 8 27.9982 8Z" fill="black"/>
<path fill-rule="evenodd" clip-rule="evenodd" d="M25.2407 21.3438H30.7544C31.471 21.3438 32.0519 21.9247 32.0519 22.641V39.829C32.0519 39.8527 28.0155 46.0718 28.0155 46.0718C28.0155 46.0718 23.9435 40.1825 23.9435 39.829V22.641C23.9435 21.9247 24.5244 21.3438 25.241 21.3438H25.2407ZM27.9976 10.0479C30.5647 10.0479 32.6455 12.1287 32.6455 14.6953C32.6455 17.2619 30.5647 19.3427 27.9976 19.3427C25.4304 19.3427 23.3496 17.2619 23.3496 14.6953C23.3496 12.1287 25.4304 10.0479 27.9976 10.0479Z" fill="white"/>
</svg>
