<svg width="56" height="56" viewBox="0 0 56 56" fill="none" xmlns="http://www.w3.org/2000/svg">
<rect width="56" height="56" fill="white"/>
<path d="M11.3203 17.4331C11.3203 15.3927 13.5462 14.1324 15.2959 15.1822L31.9209 25.1572C32.7115 25.6316 33.1953 26.4861 33.1953 27.4081V45.3481C33.1953 47.3885 30.9694 48.6488 29.2198 47.599L12.5948 37.624C11.8041 37.1496 11.3203 36.2952 11.3203 35.3731V17.4331Z" fill="#2877ff"/>
<path opacity="0.6" fill-rule="evenodd" clip-rule="evenodd" d="M44.6797 20.6269C44.6797 19.7048 44.1959 18.8504 43.4052 18.376L26.7802 8.40095C25.0306 7.35118 22.8047 8.61148 22.8047 10.6519V15.5762C22.8047 16.4983 23.2885 17.3528 24.0791 17.8272L34.1084 23.8447C34.899 24.3191 35.3828 25.1736 35.3828 26.0956V36.1387C35.3828 37.0608 35.8666 37.9153 36.6573 38.3897L40.7041 40.8178C42.4538 41.8676 44.6797 40.6073 44.6797 38.5669V20.6269Z" fill="#2877ff"/>
</svg>
