<svg width="20" height="20" viewBox="0 0 20 20" fill="none" xmlns="http://www.w3.org/2000/svg">
<path fill-rule="evenodd" clip-rule="evenodd" d="M7.0498 5.36675C7.0498 3.73819 8.36512 2.41675 9.9998 2.41675C11.6267 2.41675 12.949 3.73847 12.9498 5.36522C12.9424 6.95025 11.7067 8.23344 10.1488 8.30718C10.0487 8.3003 9.9438 8.30066 9.84415 8.30726C8.28448 8.23434 7.0498 6.95014 7.0498 5.36675ZM9.9998 0.916748C7.53449 0.916748 5.5498 2.91197 5.5498 5.36675C5.5498 7.77012 7.4444 9.7277 9.83294 9.80799C9.864 9.80904 9.89509 9.80815 9.92604 9.80534C9.9749 9.80089 10.027 9.80154 10.0585 9.80469C10.0917 9.80801 10.125 9.80911 10.1583 9.80799C12.5474 9.72769 14.4398 7.77026 14.4498 5.36987L14.4498 5.36675C14.4498 2.91087 12.4557 0.916748 9.9998 0.916748ZM14.7248 11.5096C13.4336 10.6472 11.7694 10.2395 10.1437 10.2395C8.51775 10.2395 6.85058 10.6473 5.55214 11.5082L5.54939 11.51C4.38571 12.289 3.7041 13.3882 3.7041 14.5822C3.7041 15.7764 4.38591 16.8738 5.55028 17.6488C6.84522 18.5149 8.51117 18.9249 10.1374 18.9249C11.764 18.9249 13.4303 18.5148 14.7253 17.6483L14.7255 17.6482C15.8892 16.8692 16.5708 15.77 16.5708 14.576C16.5708 13.3818 15.889 12.2845 14.7248 11.5096ZM5.2041 14.5822C5.2041 14.0036 5.53048 13.3282 6.38245 12.7574C7.38389 12.0939 8.74527 11.7395 10.1437 11.7395C11.543 11.7395 12.8996 12.0943 13.8917 12.7569L13.8928 12.7577C14.7446 13.3244 15.0708 13.9976 15.0708 14.576C15.0708 15.1548 14.7441 15.8306 13.8912 16.4016C12.8946 17.0684 11.5359 17.4249 10.1374 17.4249C8.73902 17.4249 7.38029 17.0684 6.38367 16.4016L6.38203 16.4005C5.53027 15.8338 5.2041 15.1606 5.2041 14.5822Z" fill="#969799"/>
</svg>
