<svg xmlns="http://www.w3.org/2000/svg" xmlns:xlink="http://www.w3.org/1999/xlink" width="240" height="146.62319031712366" viewBox="0 0 240 146.62319031712366" fill="none"><defs><linearGradient id="linear_0" x1="50%" y1="0%" x2="51%" y2="100%" gradientUnits="objectBoundingBox"><stop offset="0" stop-color="#E0EBFF" stop-opacity="1" /><stop offset="0.6" stop-color="#FFFFFF" stop-opacity="0.5" /><stop offset="1" stop-color="#FFFFFF" stop-opacity="0" /></linearGradient><linearGradient id="linear_1" x1="16.37860554862982%" y1="-27.39958858861815%" x2="114.63560788836276%" y2="192.62893725885434%" gradientUnits="objectBoundingBox"><stop offset="0" stop-color="#E0EBFF" stop-opacity="1" /><stop offset="1" stop-color="#FFFFFF" stop-opacity="0" /></linearGradient><linearGradient id="linear_2" x1="16.37860554862982%" y1="-27.39958858861815%" x2="114.63560788836276%" y2="192.62893725885434%" gradientUnits="objectBoundingBox"><stop offset="0" stop-color="#E0ECFF" stop-opacity="1" /><stop offset="1" stop-color="#FFFFFF" stop-opacity="0" /></linearGradient><linearGradient id="linear_3" x1="6.970637173651539%" y1="65.80000000000013%" x2="100%" y2="65.80000000000013%" gradientUnits="objectBoundingBox"><stop offset="0" stop-color="#A5C6FF" stop-opacity="1" /><stop offset="1" stop-color="#A5C6FF" stop-opacity="1" /></linearGradient><filter id="filter_10" x="78" y="98.08985698379038" width="84" height="13.799999999999997" filterUnits="userSpaceOnUse" color-interpolation-filters="sRGB"><feFlood flood-opacity="0" result="BackgroundImageFix"/>
          <feBlend mode="normal" in="SourceGraphic" in2="BackgroundImageFix" result="shape"/>
          <feColorMatrix in="SourceAlpha" type="matrix" values="0 0 0 0 0 0 0 0 0 0 0 0 0 0 0 0 0 0 127 0" result="hardAlpha"/>
          <feOffset dx="0" dy="6.4"/>
          <feGaussianBlur stdDeviation="0"/>
          <feComposite in2="hardAlpha" operator="arithmetic" k2="-1" k3="1"/>
          <feColorMatrix type="matrix" values="0 0 0 0 0.8274509803921568 0 0 0 0 0.8901960784313725 0 0 0 0 1 0 0 0 1 0"/>
          <feBlend mode="normal" in2="shape" result="effect1_Shadow"/></filter><linearGradient id="linear_4" x1="50%" y1="130.95282869301315%" x2="51%" y2="-13.429108564304038%" gradientUnits="objectBoundingBox"><stop offset="0" stop-color="#E5EFFF" stop-opacity="1" /><stop offset="1" stop-color="#BED6FF" stop-opacity="1" /></linearGradient><linearGradient id="linear_5" x1="21.186962012550875%" y1="65.8%" x2="128.12676949403112%" y2="16.89419496656903%" gradientUnits="objectBoundingBox"><stop offset="0" stop-color="#A5C6FF" stop-opacity="1" /><stop offset="1" stop-color="#DEEAFF" stop-opacity="1" /></linearGradient><linearGradient id="linear_6" x1="0%" y1="50%" x2="100%" y2="50%" gradientUnits="objectBoundingBox"><stop offset="0" stop-color="#E5EFFF" stop-opacity="1" /><stop offset="1" stop-color="#BED6FF" stop-opacity="1" /></linearGradient></defs><g opacity="1" transform="translate(0 0.2898569837904006)  rotate(0 120 72)"><g opacity="1" transform="translate(0 -0.28985698379037783)  rotate(0 120 72.1449284918952)"><path id="路径_8510" fill-rule="evenodd" fill="url(#linear_0)" transform="translate(0 140.6898569837904)  rotate(0 120 1.7999999999999998)" opacity="1" d="M160,0C71.65,0 0,3.48 0,4.8L320,4.8C320,3.48 248.35,0 160,0Z " /><path id="路径_5901" fill-rule="evenodd" fill="url(#linear_1)" transform="translate(151.9411558119951 0)  rotate(0 12.523458585369802 6.657784288761407)" opacity="1" d="M28.87,17.75C31.17,17.75 33.65,16.28 33.38,13.71C33.09,11.75 31.4,10.3 29.42,10.31C29.42,10.31 28.65,0.35 17.37,0.01C5.77,-0.34 5.32,9.29 5.32,9.29C5.32,9.29 0.45,8.23 0.02,12.97C-0.44,18.11 6.88,17.75 6.88,17.75L13.54,17.75L28.87,17.75Z " /><path id="路径_5902" fill-rule="evenodd" fill="url(#linear_2)" transform="translate(51.61198963871291 21.05559684716108)  rotate(0 21.60298607503894 10.461335813152347)" opacity="1" d="M9.36,18.18C6.76,17.21 3.86,17.61 1.62,19.25C-1.47,21.73 -0.33,27.84 6.69,27.84L52.8,27.84C52.8,27.84 57.45,28.59 57.6,24.52C57.79,19.38 51.51,20.33 51.51,20.33C52.56,17.7 51.51,14.7 49.06,13.29C46.54,11.83 43.33,12.35 41.4,14.53C41.4,14.53 39.59,-2.63 22.69,0.35C21.53,0.55 20.39,0.86 19.29,1.27C17.26,2.1 15.41,3.31 13.82,4.82C13.07,5.63 12.41,6.51 11.84,7.46C10.04,10.73 9.18,14.45 9.36,18.18Z " /><g id="矩形" filter="url(#filter_10)"><path id="矩形" fill-rule="evenodd" fill="url(#linear_3)" transform="translate(78 98.08985698379038)  rotate(0 42 6.8999999999999995)" opacity="1" d="M0,18.4L112,18.4L99.2,0L12.8,0L0,18.4Z " /></g><path id="矩形" fill-rule="evenodd" fill="url(#linear_4)" transform="translate(87.6 60.28985698379041)  rotate(0 32.400000000000006 34.2)" opacity="1" d="M0,91.2L86.4,91.2L86.4,6.4C86.4,4.7 85.73,3.07 84.53,1.87C83.33,0.67 81.7,0 80,0L6.4,0C2.87,0 0,2.87 0,6.4L0,91.2Z " /><path id="矩形" fill-rule="evenodd" style="fill:#FFFFFF" transform="translate(97.19999999999999 69.88985698379041)  rotate(0 22.799999999999997 1.7999999999999998)" opacity="1" d="M2.4,4.8L58.4,4.8C59.73,4.8 60.8,3.73 60.8,2.4L60.8,2.4C60.8,1.07 59.73,0 58.4,0L2.4,0C1.76,0 1.15,0.25 0.7,0.7C0.25,1.15 0,1.76 0,2.4L0,2.4C0,3.04 0.25,3.65 0.7,4.1C1.15,4.55 1.76,4.8 2.4,4.8Z " /><path id="矩形备份" fill-rule="evenodd" style="fill:#FFFFFF" transform="translate(97.19999999999999 79.48985698379039)  rotate(0 22.799999999999997 1.7999999999999998)" opacity="1" d="M2.4,4.8L58.4,4.8C59.73,4.8 60.8,3.73 60.8,2.4L60.8,2.4C60.8,1.07 59.73,0 58.4,0L2.4,0C1.76,0 1.15,0.25 0.7,0.7C0.25,1.15 0,1.76 0,2.4L0,2.4C0,3.04 0.25,3.65 0.7,4.1C1.15,4.55 1.76,4.8 2.4,4.8Z " /><path id="矩形备份 2" fill-rule="evenodd" style="fill:#FFFFFF" transform="translate(97.19999999999999 89.08985698379038)  rotate(0 9.600000000000001 1.7999999999999998)" opacity="1" d="M2.4,4.8L23.2,4.8C23.84,4.8 24.45,4.55 24.9,4.1C25.35,3.65 25.6,3.04 25.6,2.4L25.6,2.4C25.6,1.76 25.35,1.15 24.9,0.7C24.45,0.25 23.84,0 23.2,0L2.4,0C1.76,0 1.15,0.25 0.7,0.7C0.25,1.15 0,1.76 0,2.4L0,2.4C0,3.04 0.25,3.65 0.7,4.1C1.15,4.55 1.76,4.8 2.4,4.8Z " /><path id="形状结合" fill-rule="evenodd" fill="url(#linear_5)" transform="translate(78 109.48942395710466)  rotate(0 42 14.70021651334285)" opacity="1" d="M53.0789 0.000433027C53.2888 0.86589 53.4 1.77008 53.4 2.70043C53.4 9.00043 48.3 14.1004 42 14.1004C35.7 14.1004 30.6 9.00043 30.6 2.70043C30.6 1.77008 30.7112 0.86589 30.9211 0.000433027L5.04 0.000433027L0 2.40043L0 23.0004C0 26.5304 2.87 29.4004 6.4 29.4004L77.6 29.4004C79.3 29.4004 80.93 28.7304 82.13 27.5304C83.33 26.3304 84 24.7004 84 23.0004L84 2.40043L79.07 0.000433027L53.0789 0.000433027Z " /><path id="形状结合" fill-rule="evenodd" fill="url(#linear_6)" transform="translate(78 111.8898569837904)  rotate(0 42 14.399999999999999)" opacity="1" d="M27.6 0L0 0L0 22.4C0 24.1 0.67 25.73 1.87 26.93C3.07 28.13 4.7 28.8 6.4 28.8L77.6 28.8C79.3 28.8 80.93 28.13 82.13 26.93C83.33 25.73 84 24.1 84 22.4L84 0L56.4 0C56.4 7.95 49.95 14.4 42 14.4C34.05 14.4 27.6 7.95 27.6 0Z " /></g></g></svg>