<?xml version="1.0" encoding="UTF-8"?>
<svg width="261px" height="157px" viewBox="0 0 261 157" version="1.1" xmlns="http://www.w3.org/2000/svg" xmlns:xlink="http://www.w3.org/1999/xlink">
    <title>暂无数据</title>
    <defs>
        <linearGradient x1="50%" y1="0%" x2="50%" y2="100%" id="linearGradient-1">
            <stop stop-color="#EEEFF3" offset="0%"></stop>
            <stop stop-color="#FFFFFF" stop-opacity="0.502" offset="60%"></stop>
            <stop stop-color="#FFFFFF" stop-opacity="0" offset="100%"></stop>
        </linearGradient>
        <linearGradient x1="16.3786055%" y1="29.1902341%" x2="114.635608%" y2="88.3474235%" id="linearGradient-2">
            <stop stop-color="#EEEFF3" offset="0%"></stop>
            <stop stop-color="#FFFFFF" stop-opacity="0" offset="100%"></stop>
        </linearGradient>
        <linearGradient x1="16.3786055%" y1="30.6501029%" x2="114.635608%" y2="85.6572343%" id="linearGradient-3">
            <stop stop-color="#EEEFF3" offset="0%"></stop>
            <stop stop-color="#FFFFFF" stop-opacity="0" offset="100%"></stop>
        </linearGradient>
    </defs>
    <g id="暂无数据" stroke="none" stroke-width="1" fill="none" fill-rule="evenodd">
        <g id="编组" transform="translate(5.000000, 2.000000)">
            <path d="M256,154 C256,152.895881 198.692275,150 128,150 C57.3077251,150 0,152.895881 0,154 L256,154 Z" id="路径_8510" fill="url(#linearGradient-1)" fill-rule="nonzero"></path>
            <path d="M172.946693,13.9948055 L167.565646,13.9948055 C167.565646,13.9948055 161.646227,14.2844004 162.016691,10.2287724 C162.360502,6.49130927 166.302339,7.32892697 166.302339,7.32892697 C166.302339,7.32892697 166.666139,-0.266772105 176.04366,0.00723926544 C185.163988,0.274757475 185.78498,8.1275857 185.78498,8.1275857 C187.387726,8.12023726 188.751526,9.26376126 188.983225,10.809261 C189.204437,12.8390229 187.197539,14 185.338559,14 L172.94536,14 L172.946693,13.9948055 Z" id="路径_5901" fill="url(#linearGradient-2)" fill-rule="nonzero"></path>
            <path d="M67.0371544,25.9774315 C66.4381267,26.6422853 65.9087391,27.3704606 65.4577757,28.149875 C64.0137614,30.8490998 63.3265301,33.9096957 63.4730231,36.9890044 C61.4017936,36.1904145 59.0798906,36.5227605 57.2976524,37.8729174 C54.8219762,39.9204454 55.739332,44.9550832 61.3448103,44.9550832 L98.158812,44.9550832 C98.158812,44.9550832 101.875617,45.5742296 101.996702,42.2150888 C102.146743,37.9774662 97.1269512,38.7568303 97.1269512,38.7568303 C97.965059,36.5905933 97.1321712,34.1182066 95.1724701,32.9550484 C93.1577009,31.7521714 90.6005208,32.1790751 89.056326,33.9760969 C89.056326,33.9760969 87.6177752,19.8334897 74.120668,22.2856353 C73.1930378,22.4526451 72.2820298,22.7062335 71.398872,23.043275 C69.7824089,23.7319678 68.304907,24.7261734 67.042419,25.9747159 L67.0371544,25.9774315 Z" id="路径_5902" fill="url(#linearGradient-3)" fill-rule="nonzero"></path>
            <polygon id="矩形" fill="#E3E4EA" fill-rule="nonzero" points="93.1714286 105 161.828571 105 172 119 83 119"></polygon>
            <path d="M101,65 L154,65 C158.418278,65 162,68.581722 162,73 L162,138 L162,138 L93,138 L93,73 C93,68.581722 96.581722,65 101,65 Z" id="矩形" fill="#F9FAFC" fill-rule="nonzero"></path>
            <rect id="矩形" fill="#E9EAEE" x="104" y="75" width="48" height="4" rx="2"></rect>
            <rect id="矩形备份" fill="#E9EAEE" x="104" y="85" width="48" height="4" rx="2"></rect>
            <rect id="矩形备份-2" fill="#E9EAEE" x="103" y="95" width="21" height="4" rx="2"></rect>
            <path d="M166.774881,117.00186 L172,119.613953 L172,141 C172,145.418278 168.418278,149 164,149 L91,149 C86.581722,149 83,145.418278 83,141 L83,119.613953 L88.3423523,117.00186 L115.762409,117.001003 C115.539549,117.943321 115.421429,118.927723 115.421429,119.940464 C115.421429,126.792905 120.829189,132.347906 127.5,132.347906 C134.170811,132.347906 139.578571,126.792905 139.578571,119.940464 C139.578571,118.927723 139.460451,117.943321 139.237591,117.001003 L166.774881,117.00186 Z" id="形状结合" fill-rule="nonzero"></path>
            <path d="M172,119 L172,142 C172,146.418278 168.418278,150 164,150 L91,150 C86.581722,150 83,146.418278 83,142 L83,119 L112.242857,119 L112.242857,119 C112.242857,127.560414 119.073713,134.5 127.5,134.5 C135.926287,134.5 142.757143,127.560414 142.757143,119 L172,119 Z" id="形状结合" fill="#EEEFF3" fill-rule="nonzero"></path>
        </g>
    </g>
</svg>