<svg xmlns="http://www.w3.org/2000/svg" xmlns:xlink="http://www.w3.org/1999/xlink" width="80" height="96" viewBox="0 0 80 96" fill="none"><g opacity="1" transform="translate(0 0)  rotate(0 40 48)"><g opacity="1" transform="translate(0 0)  rotate(0 40 48)"><g opacity="1" transform="translate(14.999999999999993 16)  rotate(0 25.000000000000007 25)"><path id="路径 1" fill-rule="evenodd" style="fill:#000000" transform="translate(0 0.9810159192241151)  rotate(0 24.524936771935536 23.16754664702859)" opacity="1" d="M24.52,0C10.98,0 0,10.37 0,23.17C0,35.96 10.98,46.34 24.52,46.34C38.07,46.34 49.05,35.96 49.05,23.17C49.05,10.37 38.07,0 24.52,0Z " /><g opacity="1" transform="translate(7.720380602917947 27.081931517237297)  rotate(0 12.653848732414383 11.192542953331756)"><g opacity="1" transform="translate(-26.648108345495608 -27.331632989652565)  rotate(0 0.011530077841477141 0.010894479599268576)"></g><path id="路径 2" fill-rule="evenodd" style="fill:#FFFFFF" transform="translate(0 -3.552713678800501e-15)  rotate(0 12.653848732414383 11.192542953331756)" opacity="1" d="M3.93,1.32C3.69,1.47 3.31,1.72 2.9,2.13C2.25,2.78 1.98,3.43 1.44,4.97C0.69,7.14 0.31,8.24 0.15,9.37C0.15,9.37 -0.01,10.5 0,11.48C0.04,14.89 4.97,22.18 12.34,22.38C16.05,22.48 19.66,20.77 21.24,19.02C21.63,18.58 22.03,18.05 22.03,18.05C22.74,17.1 23.03,16.46 24.31,13.56C24.93,12.18 25.23,11.47 25.29,10.72C25.31,10.46 25.35,9.77 25.14,8.9C24.8,7.51 24.05,6.6 23.24,5.64C21.87,4.02 20.48,3.07 20.15,2.85C16.7,0.53 13.13,0.23 11.27,0.07C10.34,-0.01 8.95,-0.07 7.29,0.19C5.35,0.5 4.39,1.03 3.93,1.32Z " /></g><path id="路径 3" fill-rule="evenodd" style="fill:#FFFFFF" transform="translate(11.22910515207589 6.27453821328231)  rotate(0 6.2350610863751506 12.787616013898289)" opacity="1" d="M10.79,12.28C11.79,8.72 12.83,5.52 12.35,2.09C12.23,1.3 12,0.19 11.34,0.02C11.07,-0.05 10.52,-0.02 8.97,1.71C7.4,3.45 6.52,5.02 6.39,5.25C4.77,8.17 3.96,9.63 3.35,11.12C1.38,15.92 -1.54,23.03 0.98,25.01C2.05,25.84 3.97,25.66 5.15,25.06C6.51,24.37 7.06,23.03 7.36,22.26C9.62,16.47 10.79,12.28 10.79,12.28Z " /><path id="路径 4" fill-rule="evenodd" style="fill:#FFFFFF" transform="translate(27.023697584001766 11.428934401288243)  rotate(0 6.2350610863751506 12.787616013898289)" opacity="1" d="M7.36,22.26C9.62,16.47 10.79,12.28 10.79,12.28C11.79,8.72 12.83,5.52 12.35,2.09C12.23,1.3 12,0.19 11.34,0.02C11.07,-0.05 10.52,-0.02 8.97,1.71C7.4,3.45 6.52,5.02 6.39,5.25C4.77,8.17 3.96,9.63 3.35,11.12C1.38,15.92 -1.54,23.03 0.98,25.01C2.05,25.84 3.97,25.66 5.15,25.06C6.51,24.37 7.06,23.03 7.36,22.26Z " /><g opacity="1" transform="translate(7.5863588534186155 26.909810870561277)  rotate(0 12.861004329294294 11.545094564719365)"><g opacity="1" transform="translate(-26.514086595996275 -27.159512342976505)  rotate(0 0.011530077841477141 0.010894479599268576)"></g><path id="路径 5" fill-rule="evenodd" style="fill:#FFFFFF" transform="translate(0 1.7763568394002505e-14)  rotate(0 12.861004329294294 11.545094564719365)" opacity="1" d="M1.08,5.88C0.63,7.1 -0.13,9.22 0.02,11.87C0.1,13.2 0.35,17.57 4.14,20.59C7.69,23.42 11.94,23.13 13.06,23.03C13.53,22.99 18.11,22.55 21.51,19.03C23.19,17.29 23.91,15.5 24.44,14.2C25.42,11.77 25.67,9.61 25.72,8.18C23.94,6.45 22.16,4.72 20.38,2.99C19.72,2.36 18.37,1.24 16.31,0.56C14.19,-0.14 12.36,-0.03 11.42,0.08L3.74,1.12C2.93,2.17 1.87,3.77 1.08,5.88Z " /></g><path id="路径 6" fill-rule="evenodd" style="fill:#000000" transform="translate(16.686255616016464 40.43251309032038)  rotate(0 1.8817934168755526 1.1955181428896462)" opacity="1" d="M0.74,1.74C1,2.13 1.14,2.27 1.36,2.35C1.57,2.42 1.77,2.4 2.27,2.27C3.2,2.03 3.67,1.91 3.74,1.72C3.9,1.3 3.16,0.6 2.44,0.28C1.56,-0.1 0.27,-0.12 0.02,0.38C-0.08,0.57 0.2,0.96 0.74,1.74Z " /><path id="路径 7" fill-rule="evenodd" style="fill:#000000" transform="translate(16.342088569830427 36.24789463309441)  rotate(0 0.6004864539841294 0.5588868034424778)" opacity="1" d="M0.6,0C0.27,0 0,0.25 0,0.56C0,0.87 0.27,1.12 0.6,1.12C0.93,1.12 1.2,0.87 1.2,0.56C1.2,0.25 0.93,0 0.6,0Z " /><path id="路径 8" fill-rule="evenodd" style="fill:#000000" transform="translate(22.449570802460862 38.26838481957476)  rotate(0 0.5926460010519249 0.5516964469069604)" opacity="1" d="M0.59,0C0.27,0 0,0.25 0,0.55C0,0.86 0.27,1.1 0.59,1.1C0.92,1.1 1.19,0.86 1.19,0.55C1.19,0.25 0.92,0 0.59,0Z " /></g><g opacity="1" transform="translate(25 74)  rotate(0 15 9)"><path id="并集" fill-rule="evenodd" style="fill:#000000" transform="translate(0 0)  rotate(0 15 9)" opacity="1" d="M27.935 0L27.935 8.47L27.885 8.47L23.935 0L21.305 0L21.305 11.59L23.365 11.59L23.365 3.1L23.415 3.1L27.365 11.59L30.005 11.59L30.005 0L27.935 0Z M2.09473 11.5873L2.09473 0.0072646L0.0347328 0.0072646L0.0347328 11.5873L2.09473 11.5873Z M6.81285 2.09726C7.10285 2.02726 7.40285 1.99726 7.70285 1.99726L10.8128 1.99726L10.8128 0.0072646L7.29285 0.0072646L5.29285 0.427265C4.75285 0.707265 4.32285 1.08726 4.00285 1.57726L3.31285 3.33726C3.18285 4.01726 3.11285 4.75726 3.11285 5.57726L3.11285 11.5873L5.17285 11.5873L5.17285 6.75726L10.6629 6.75726L10.6629 4.84726L5.17285 4.84726L5.41285 3.37726C5.56285 2.99726 5.76285 2.70726 6.00285 2.50726C6.24285 2.30726 6.52285 2.16726 6.81285 2.09726Z M20.294 0.0072646L18.234 0.0072646L18.234 7.76726L17.654 9.29726C17.264 9.66726 16.714 9.84726 16.004 9.84726L14.354 9.29726C13.964 8.92726 13.764 8.41726 13.764 7.76726L13.764 0.0072646L11.704 0.0072646L11.704 7.84726C11.704 8.47726 11.814 9.02726 12.034 9.50726C12.254 9.99726 12.564 10.4073 12.934 10.7373L14.294 11.4873Q15.089 11.7573 16.004 11.7573L17.714 11.4873C18.234 11.3173 18.684 11.0673 19.064 10.7373C19.444 10.4073 19.744 9.99726 19.964 9.50726C20.184 9.02726 20.294 8.47726 20.294 7.84726L20.294 0.0072646Z M2.82 17.7302L2.82 15.7502L2.44 15.7502L2.44 17.4902C2.18 17.5802 1.9 17.6202 1.63 17.6302C0.89 17.6302 0.4 16.8702 0.4 15.7502C0.4 14.6302 0.92 13.8902 1.7 13.8902C2.06 13.8902 2.48 14.0102 2.74 14.2002L2.74 13.8302C2.48 13.6402 2.05 13.5202 1.65 13.5202C0.66 13.5202 0 14.4202 0 15.7502C0 17.1002 0.64 18.0002 1.61 18.0002C2.05 18.0002 2.53 17.8902 2.82 17.7302Z M28.6971 13.5202C27.9871 13.5202 27.5171 13.9902 27.5171 14.7002C27.5171 15.3102 27.8571 15.6002 28.3171 15.7802L29.0171 16.0602C29.3371 16.1902 29.5971 16.4002 29.5971 16.8302C29.5971 17.3202 29.2071 17.6302 28.6271 17.6302C28.2271 17.6302 27.7571 17.5002 27.4471 17.3102L27.4971 17.7002C27.7571 17.8802 28.2171 18.0002 28.6571 18.0002C29.4671 18.0002 29.9971 17.5202 29.9971 16.7902C29.9971 16.1502 29.6471 15.8502 29.1871 15.6702L28.5071 15.4002C28.1671 15.2802 27.9171 15.0802 27.9171 14.6602C27.9171 14.2002 28.2371 13.8902 28.7171 13.8902C29.1071 13.8902 29.5471 14.0202 29.8071 14.2202L29.8071 13.8302C29.5171 13.6402 29.0671 13.5202 28.6971 13.5202Z M13.5633 17.939L13.9433 17.939L13.9333 14.159L15.2433 17.329L15.4333 17.329L16.7533 14.159L16.7333 17.939L17.1133 17.939L17.1133 13.579L16.6233 13.579L15.3433 16.699L14.0533 13.579L13.5633 13.579L13.5633 17.939Z M21.7573 15.899L23.4873 15.899L23.4873 15.529L21.7573 15.529L21.7573 13.949L23.6073 13.949L23.6573 13.579L21.3773 13.579L21.3773 17.939L23.6973 17.939L23.6973 17.569L21.7573 17.569L21.7573 15.899Z M9.32962 17.9394L9.73962 17.9394L8.35962 13.5794L7.86962 13.5794L6.49962 17.9394L6.89962 17.9394L7.25962 16.7694L8.96962 16.7694L9.32962 17.9394Z M8.11457 13.9505L7.37457 16.4005L8.86457 16.4005L8.11457 13.9505Z " /></g></g></g></svg>